<svg width="291" height="276" viewBox="0 0 291 276" fill="none" xmlns="http://www.w3.org/2000/svg">
<path d="M43.3157 41.6087C43.3948 41.4373 43.4636 41.2625 43.5393 41.0946C43.7732 40.57 44.0106 40.0489 44.2549 39.5313C45.8169 36.2405 47.6024 33.1385 49.5876 30.2289C51.2837 27.7389 51.9408 24.6614 51.411 21.6818L48.8066 6.91673C48.3525 4.36029 50.7952 2.26199 53.1966 3.14678L66.8586 8.15822C69.6935 9.19688 72.8209 9.0465 75.5354 7.72108C76.2166 7.38884 76.9013 7.0706 77.5962 6.75935C77.7992 6.66493 78.0125 6.574 78.2224 6.48657C78.7281 6.26275 79.2373 6.04943 79.75 5.84659C79.9667 5.75566 80.1835 5.66824 80.4071 5.5843C81.0126 5.343 81.6181 5.11918 82.2271 4.89536C82.3337 4.86039 82.4335 4.81842 82.5367 4.78345C83.2558 4.52466 83.9748 4.28685 84.7042 4.05954C84.8865 4.00009 85.0689 3.94763 85.2547 3.89167C85.8155 3.72031 86.3728 3.55944 86.9336 3.40207C87.1538 3.34262 87.3705 3.28316 87.5804 3.22371C88.1791 3.06284 88.7846 2.91246 89.3832 2.76908C89.5243 2.73411 89.6653 2.69914 89.8064 2.66766C90.5633 2.4963 91.3202 2.33543 92.0771 2.18505C92.1941 2.16057 92.311 2.14309 92.4314 2.11861C93.0714 1.9997 93.7113 1.8843 94.3547 1.78288C94.5542 1.7549 94.7503 1.72343 94.9498 1.69545C95.5657 1.60452 96.1884 1.52059 96.8042 1.44365C96.9556 1.42617 97.1036 1.40868 97.2549 1.39119C98.81 1.20934 100.372 1.09044 101.941 1.02399C102.106 1.02049 102.275 1.0135 102.44 1.00651C103.087 0.985522 103.73 0.971534 104.377 0.971534C104.528 0.971534 104.676 0.971534 104.827 0.971534C106.413 0.978529 108.01 1.03798 109.603 1.15688C109.737 1.16738 109.864 1.18136 110.002 1.19186C110.669 1.24781 111.34 1.31076 112.008 1.39119C112.162 1.40868 112.321 1.42617 112.472 1.44365C113.253 1.53808 114.034 1.63949 114.815 1.76189C119.601 -0.0391489 125.539 -0.158053 134.787 3.82872C148.917 9.9138 155.223 17.1949 157.17 26.8856C157.628 27.4766 158.075 28.0781 158.516 28.6901C158.543 28.7321 158.574 28.7706 158.602 28.8125C159.479 30.04 160.318 31.2885 161.11 32.558C161.144 32.6139 161.182 32.6664 161.209 32.7224C161.997 33.9883 162.737 35.2823 163.435 36.5972C163.47 36.6637 163.504 36.7301 163.535 36.7896C164.227 38.101 164.88 39.4334 165.482 40.7833C165.513 40.8568 165.548 40.9232 165.579 40.9932C166.181 42.3431 166.738 43.7175 167.258 45.1023C167.285 45.1758 167.309 45.2457 167.34 45.3192C167.585 45.9871 167.818 46.6621 168.049 47.337C168.056 47.3615 168.066 47.379 168.073 47.4035C168.307 48.1099 168.531 48.8198 168.741 49.5368C168.765 49.6067 168.782 49.6731 168.799 49.7466C168.995 50.4006 169.177 51.065 169.353 51.7295C169.37 51.7924 169.387 51.8589 169.405 51.9253C169.587 52.6353 169.762 53.3522 169.927 54.0761C169.938 54.1355 169.952 54.195 169.969 54.2544C170.117 54.9119 170.251 55.5694 170.378 56.2303C170.399 56.3353 170.419 56.4297 170.437 56.5311C170.574 57.248 170.698 57.9719 170.815 58.6924C170.819 58.7273 170.825 58.7658 170.832 58.8008C170.939 59.4757 171.025 60.1507 171.114 60.8256C171.132 60.9515 171.142 61.0774 171.159 61.1963C171.331 62.6162 171.455 64.05 171.538 65.4839C171.541 65.6273 171.555 65.7706 171.558 65.9105C171.63 67.3304 171.658 68.7642 171.641 70.1911C171.641 70.3484 171.637 70.4953 171.637 70.6527C171.624 71.3137 171.606 71.9851 171.572 72.6461C171.572 72.695 171.565 72.7475 171.565 72.7965C171.531 73.5064 171.483 74.2163 171.424 74.9297C171.414 75.0836 171.397 75.2445 171.383 75.4018C171.331 76.0173 171.266 76.6363 171.197 77.2519C171.183 77.3603 171.173 77.4687 171.159 77.5736C171.077 78.28 170.977 78.9795 170.877 79.6789C170.856 79.8328 170.832 79.9831 170.808 80.137C170.715 80.728 170.616 81.3191 170.502 81.9101C170.478 82.0535 170.45 82.1934 170.426 82.3367C170.292 83.0292 170.151 83.7216 170 84.4141C169.969 84.5574 169.934 84.6938 169.9 84.8372C169.762 85.4177 169.621 85.9983 169.477 86.5753C169.435 86.7397 169.394 86.9006 169.353 87.0684C169.171 87.7539 168.978 88.4393 168.771 89.1213C168.737 89.2367 168.699 89.3556 168.665 89.4675C168.482 90.055 168.297 90.639 168.101 91.2231C168.042 91.3979 167.984 91.5693 167.925 91.7441C167.691 92.4261 167.45 93.101 167.192 93.7795C167.161 93.8529 167.134 93.9229 167.103 93.9963C166.869 94.6048 166.621 95.2133 166.37 95.8253C166.294 96.0037 166.222 96.175 166.146 96.3569C165.861 97.0319 165.565 97.6998 165.255 98.3678C164.901 99.1337 164.526 99.8786 164.151 100.627C164.082 100.77 164.003 100.914 163.934 101.05C163.545 101.799 163.146 102.536 162.737 103.267C162.723 103.285 162.713 103.309 162.703 103.327C162.266 104.096 161.815 104.848 161.357 105.596C161.344 105.614 161.333 105.631 161.323 105.649C160.845 106.415 160.363 107.167 159.864 107.901C159.864 107.926 159.871 107.95 159.864 107.975C159.83 108.177 159.696 108.338 159.513 108.412C159.025 109.122 158.526 109.821 158.01 110.506C158.068 110.608 158.103 110.723 158.092 110.846C158.065 111.153 157.817 111.377 157.518 111.377C157.501 111.377 157.483 111.377 157.463 111.377C157.452 111.377 157.418 111.374 157.36 111.367C155.017 114.406 152.447 117.204 149.687 119.746C149.68 119.753 149.674 119.76 149.667 119.767C149.663 119.77 149.656 119.77 149.656 119.777C149.639 119.795 149.622 119.812 149.605 119.826C148.899 120.477 148.177 121.11 147.444 121.725C147.444 121.725 147.444 121.725 147.437 121.725C145.301 123.523 143.064 125.184 140.746 126.688C140.697 126.719 140.656 126.747 140.611 126.772C139.841 127.268 139.067 127.748 138.286 128.206C138.268 128.216 138.244 128.23 138.227 128.241C135.853 129.632 133.407 130.877 130.899 131.962C130.83 131.993 130.758 132.025 130.696 132.053C129.884 132.399 129.069 132.734 128.246 133.049C128.24 133.049 128.24 133.056 128.236 133.056C126.537 133.707 124.82 134.28 123.075 134.787C122.993 134.812 122.917 134.836 122.835 134.861C121.083 135.361 119.312 135.798 117.526 136.151C117.509 136.151 117.499 136.155 117.481 136.155C115.73 136.504 113.962 136.784 112.183 136.987C112.066 136.998 111.949 137.015 111.825 137.029C110.993 137.116 110.16 137.197 109.321 137.256C109.303 137.256 109.286 137.256 109.266 137.26C107.452 137.393 105.626 137.445 103.802 137.424C103.754 137.424 103.713 137.424 103.668 137.424C102.65 137.41 101.635 137.368 100.62 137.309C100.596 137.309 100.572 137.309 100.547 137.302C99.7149 137.249 98.8754 137.183 98.0428 137.099C98.029 137.099 98.0187 137.099 98.0084 137.095C97.0623 136.998 96.1162 136.886 95.17 136.749C95.1425 136.742 95.1184 136.742 95.0909 136.735C94.2136 136.606 93.3328 136.455 92.459 136.295C92.3523 136.277 92.2422 136.253 92.1356 136.235C90.3397 135.889 88.5437 135.462 86.7581 134.955C86.6962 134.938 86.6309 134.92 86.5655 134.896C85.757 134.661 84.9519 134.417 84.1469 134.151C84.0952 134.13 84.0402 134.112 83.9955 134.102C82.1755 133.497 80.3658 132.811 78.5768 132.042C78.446 131.986 78.3187 131.927 78.188 131.867C77.7958 131.696 77.3967 131.521 77.001 131.336C76.5744 131.14 76.1444 130.94 75.7212 130.734C72.2532 129.041 69.002 127.094 65.9641 124.925C65.8953 124.88 65.823 124.824 65.7542 124.778C65.4721 124.576 65.19 124.366 64.9148 124.163C64.8494 124.114 64.784 124.061 64.7152 124.013C64.2989 123.701 63.8861 123.387 63.4835 123.068C63.3012 122.925 63.112 122.782 62.9365 122.638C62.5065 122.299 62.0867 121.946 61.667 121.592C61.6395 121.568 61.6051 121.54 61.5741 121.516C61.2472 121.239 60.9273 120.96 60.6073 120.68C60.5764 120.655 60.5523 120.631 60.5248 120.606C59.1039 119.354 57.7483 118.05 56.4478 116.696C56.4134 116.658 56.379 116.616 56.3377 116.574C55.973 116.193 55.6084 115.805 55.2574 115.416C55.1645 115.315 55.0682 115.214 54.9822 115.105C54.9684 115.095 54.965 115.081 54.9512 115.077C54.9306 115.046 54.8996 115.018 54.8755 114.986C54.6175 114.693 54.3595 114.402 54.1014 114.109C53.9707 113.958 53.8434 113.804 53.7127 113.647C53.6852 113.612 53.6507 113.577 53.6198 113.542C53.6095 113.528 53.6026 113.518 53.5888 113.511C53.3858 113.266 53.1794 113.021 52.973 112.769C52.887 112.664 52.7975 112.556 52.7115 112.44C52.4294 112.094 52.1507 111.748 51.8824 111.398C51.7585 111.241 51.6415 111.087 51.5246 110.93C51.3353 110.685 51.153 110.44 50.9672 110.188C50.8915 110.087 50.8193 109.992 50.7436 109.891C50.6541 109.779 50.5716 109.657 50.4924 109.538C50.2516 109.209 50.0142 108.877 49.7871 108.541C49.7562 108.506 49.7321 108.464 49.7046 108.429C48.5073 106.702 47.3926 104.914 46.3639 103.092C46.3157 103.005 46.2641 102.921 46.216 102.83C45.8065 102.089 45.4074 101.351 45.0187 100.595C44.9946 100.55 44.9739 100.501 44.943 100.449C44.4544 99.4799 43.9865 98.5077 43.5462 97.5145C43.5324 97.49 43.5221 97.4655 43.5118 97.4375C43.2468 96.8465 42.9957 96.2555 42.748 95.6575C42.7308 95.6085 42.7067 95.5665 42.6895 95.5176C42.5244 95.1189 42.3592 94.7132 42.201 94.3076C42.1941 94.3006 42.1941 94.2901 42.1906 94.2831C41.9532 93.6781 41.7262 93.0696 41.5094 92.4611C41.4853 92.4016 41.4613 92.3352 41.4441 92.2757C41.2927 91.8456 41.1447 91.4084 41.0037 90.9782C40.9693 90.8663 40.928 90.7509 40.8936 90.639C40.7388 90.1739 40.5943 89.7018 40.4532 89.2297C40.4394 89.1877 40.4291 89.1457 40.4119 89.1038C40.264 88.6142 40.1229 88.1246 39.9887 87.628C39.975 87.5755 39.9578 87.5265 39.9475 87.4741C39.8305 87.0474 39.7169 86.6243 39.6137 86.1941C39.5897 86.1102 39.5724 86.0263 39.5484 85.9423C39.4486 85.5367 39.3488 85.131 39.2594 84.7183C39.2353 84.6134 39.2146 84.5085 39.1906 84.4036C39.1011 84.0084 39.0185 83.6132 38.936 83.2145C38.9153 83.0956 38.8912 82.9767 38.8603 82.8543C38.7846 82.4661 38.7089 82.0779 38.6367 81.6898C38.616 81.5604 38.5919 81.4275 38.5678 81.3016C38.5025 80.9204 38.4371 80.5392 38.3752 80.1545C38.3511 80.0181 38.3339 79.8817 38.3098 79.7418C38.2513 79.3606 38.1963 78.9865 38.1447 78.6018C38.1275 78.4584 38.1103 78.322 38.0931 78.1786C38.0449 77.7974 37.9967 77.4197 37.952 77.0385C37.9348 76.8951 37.921 76.7553 37.9038 76.6119C37.8625 76.2307 37.8281 75.8495 37.7937 75.4648C37.78 75.3284 37.7697 75.185 37.7559 75.0416C37.7284 74.6535 37.694 74.2723 37.6699 73.8841C37.6561 73.7512 37.6527 73.6148 37.6458 73.4819C37.6217 73.0902 37.5976 72.695 37.5804 72.2929C37.577 72.174 37.577 72.062 37.5701 71.9431C37.5529 71.5305 37.5391 71.1108 37.5357 70.6982C37.5357 70.6212 37.5357 70.5513 37.5357 70.4743C37.5047 68.5264 37.5529 66.5715 37.6871 64.6201C37.694 64.5466 37.694 64.4697 37.6974 64.3962C37.7284 64.0325 37.7559 63.6618 37.7937 63.2981C37.8109 63.1268 37.8213 62.9519 37.8385 62.7806C37.8694 62.4518 37.9107 62.1161 37.9451 61.7874C37.9692 61.5775 37.9933 61.3677 38.0174 61.1544C38.0518 60.8431 38.0931 60.5319 38.1378 60.2276C38.1687 59.9968 38.1963 59.7625 38.2341 59.5282C38.2754 59.2379 38.3201 58.9372 38.3683 58.6469C38.4096 58.4021 38.444 58.1538 38.4853 57.9055C38.5334 57.6187 38.585 57.332 38.6367 57.0487C38.6848 56.7934 38.733 56.5381 38.7777 56.2863C38.8328 56.0065 38.8912 55.7303 38.9497 55.4505C39.0013 55.1882 39.0598 54.9224 39.1149 54.6671C39.1734 54.3908 39.2353 54.125 39.2972 53.8488C39.3591 53.5795 39.4176 53.3102 39.483 53.0479C39.5484 52.7786 39.6137 52.5163 39.6825 52.2471C39.7548 51.9778 39.8236 51.705 39.8993 51.4357C39.9715 51.1734 40.0404 50.9111 40.116 50.6454C40.1952 50.3726 40.2743 50.0928 40.3569 49.8165C40.436 49.5612 40.5117 49.3024 40.5874 49.0507C40.6768 48.7709 40.7628 48.4841 40.8557 48.2043C40.9383 47.9525 41.014 47.7077 41.0966 47.4559C41.1929 47.1692 41.2961 46.8824 41.3959 46.5921C41.4785 46.3508 41.5679 46.106 41.6505 45.8682C41.7537 45.571 41.8741 45.2702 41.9842 44.9729C42.0737 44.7456 42.1562 44.5113 42.2422 44.284C42.3661 43.9693 42.4934 43.651 42.6172 43.3398C42.7067 43.1334 42.7893 42.9166 42.8753 42.7068C43.0129 42.3151 43.1643 41.9619 43.3157 41.6087ZM289.985 196.124L281.174 184.094C279.396 181.663 278.628 178.614 279.055 175.61C279.554 172.109 279.791 168.521 279.743 164.863C279.495 146.125 271.974 129.346 259.94 117.228C260.838 114.591 261.633 111.909 262.255 109.209C266.814 89.4325 251.944 80.3154 251.944 80.3154C251.944 80.3154 252.285 67.7605 241.637 63.6339C230.988 59.5072 203.778 60.1926 189.07 72.7475C174.366 85.3058 177.073 91.1531 178.088 99.7492C178.37 102.113 178.838 104.442 179.375 106.576C158.839 118.571 145.129 141.306 145.669 167.248C146.298 197.635 166.759 223.325 194.327 231.379C194.386 231.397 194.444 231.414 194.503 231.432C194.585 231.456 194.671 231.481 194.754 231.505H194.761C195.16 231.617 195.559 231.725 195.965 231.834C196.068 231.862 196.175 231.886 196.274 231.918C196.622 232.005 196.973 232.096 197.327 232.18C197.485 232.215 197.644 232.257 197.802 232.292C198.118 232.365 198.442 232.435 198.765 232.509C198.858 232.526 198.944 232.551 199.041 232.568C199.051 232.572 199.068 232.572 199.082 232.579C199.168 232.596 199.257 232.614 199.34 232.635C199.639 232.694 199.938 232.754 200.238 232.813C200.455 232.855 200.678 232.897 200.895 232.939C201.077 232.974 201.253 233.002 201.435 233.04C201.442 233.04 201.442 233.04 201.445 233.04C201.545 233.058 201.645 233.068 201.745 233.086C201.986 233.128 202.226 233.166 202.467 233.208C202.739 233.25 203.007 233.289 203.279 233.331C203.431 233.355 203.582 233.373 203.737 233.397C203.843 233.411 203.953 233.429 204.06 233.439C204.318 233.474 204.569 233.505 204.827 233.54C205.109 233.575 205.385 233.607 205.667 233.638C205.863 233.656 206.056 233.677 206.248 233.701C206.265 233.701 206.29 233.708 206.307 233.708C206.338 233.708 206.365 233.715 206.396 233.715C206.702 233.743 207.005 233.768 207.311 233.792C207.535 233.81 207.759 233.827 207.982 233.845C208.158 233.859 208.333 233.869 208.509 233.883C208.66 233.894 208.822 233.901 208.973 233.904C208.99 233.904 209.007 233.904 209.021 233.904C209.207 233.918 209.389 233.929 209.579 233.936C210.112 233.96 210.645 233.978 211.185 233.988C211.973 234.006 212.754 234.006 213.528 233.995C213.762 233.995 214 233.985 214.234 233.978C214.784 233.964 215.338 233.946 215.888 233.918C216.14 233.904 216.394 233.894 216.652 233.876C217.21 233.841 217.767 233.803 218.324 233.757C218.538 233.74 218.747 233.719 218.964 233.701C219.697 233.631 220.433 233.554 221.159 233.457C221.183 233.453 221.207 233.453 221.231 233.453C222.036 233.352 222.835 233.229 223.633 233.093C223.684 233.086 223.736 233.075 223.784 233.065C224.5 232.942 225.212 232.806 225.914 232.663C226.051 232.635 226.179 232.61 226.309 232.579C226.96 232.442 227.607 232.299 228.253 232.142C228.37 232.114 228.487 232.089 228.597 232.061C229.337 231.876 230.07 231.683 230.806 231.474C244.836 227.476 257.012 218.947 265.706 207.539C267.55 205.112 270.285 203.559 273.278 203.202L287.704 201.475C290.25 201.188 291.52 198.209 289.985 196.124ZM133.93 212.802C133.947 212.585 133.958 212.372 133.975 212.155C134.071 211.26 134.205 209.42 134.112 206.71C134.112 206.542 134.106 206.374 134.106 206.207C134.116 206.196 134.133 206.189 134.147 206.179C134.405 205.993 134.47 205.626 134.281 205.36C134.257 205.329 134.229 205.304 134.198 205.28C134.333 205.066 134.398 204.923 134.398 204.923C137.952 205.094 139.132 202.688 139.132 202.688C139.132 202.688 143.016 202.688 143.529 199.936C143.797 198.485 144.062 196.303 144.203 193.914C144.22 193.907 146.24 193.393 148.088 192.54C149.949 191.679 147.747 187.039 146.065 187.553C144.372 188.067 144.372 188.067 144.372 188.067C144.372 188.067 144.337 188.651 144.303 189.553C144.289 188.819 144.255 188.088 144.203 187.378C143.863 182.905 141.162 179.296 138.121 181.016C135.695 182.384 134.911 179.471 132.544 181.363C131.58 182.136 130.472 182.279 129.296 182.338C127.524 177.844 125.295 173.55 122.628 169.528C122.611 169.5 122.587 169.469 122.57 169.441C122.26 168.976 121.947 168.514 121.631 168.059C121.6 168.017 121.572 167.972 121.538 167.93C121.225 167.482 120.901 167.038 120.578 166.605C120.543 166.563 120.516 166.514 120.478 166.472C120.144 166.024 119.804 165.576 119.46 165.139C119.436 165.115 119.418 165.087 119.394 165.062C117.908 163.167 116.318 161.345 114.626 159.614C114.615 159.603 114.609 159.596 114.598 159.586C114.199 159.177 113.8 158.778 113.387 158.379C113.312 158.306 113.243 158.236 113.164 158.162C112.82 157.827 112.465 157.498 112.114 157.169C112.008 157.075 111.904 156.98 111.798 156.886C111.467 156.585 111.141 156.288 110.803 155.994C110.683 155.886 110.559 155.781 110.435 155.672C110.112 155.389 109.785 155.116 109.455 154.84C109.324 154.735 109.19 154.62 109.063 154.511C108.725 154.246 108.392 153.976 108.058 153.707C107.927 153.606 107.8 153.504 107.666 153.403C107.311 153.126 106.947 152.857 106.589 152.588C106.472 152.504 106.362 152.417 106.245 152.333C105.825 152.028 105.398 151.724 104.975 151.423C104.917 151.381 104.858 151.339 104.8 151.297C103.812 150.619 102.804 149.955 101.776 149.329C101.648 149.245 101.511 149.168 101.377 149.087C101.002 148.863 100.627 148.636 100.245 148.412C100.062 148.307 99.88 148.206 99.6977 148.105C99.3639 147.912 99.0233 147.727 98.6827 147.542C98.4763 147.43 98.2699 147.321 98.0669 147.213C97.7435 147.041 97.4132 146.874 97.0864 146.706C96.8696 146.597 96.6494 146.485 96.4327 146.377C96.1093 146.216 95.7893 146.059 95.459 145.905C95.2354 145.796 95.0118 145.695 94.7847 145.59C94.4544 145.44 94.1207 145.289 93.7904 145.139C93.5702 145.038 93.3397 144.943 93.1161 144.842C92.7755 144.691 92.4314 144.555 92.0771 144.412C91.8603 144.321 91.6367 144.233 91.42 144.142C91.0381 143.992 90.6527 143.845 90.264 143.702C90.0747 143.628 89.889 143.558 89.6997 143.485C89.1252 143.278 88.5437 143.072 87.9554 142.876C87.3877 142.684 86.8166 142.506 86.2421 142.334C86.0529 142.278 85.874 142.226 85.6847 142.173C85.296 142.058 84.9106 141.946 84.5219 141.838C84.3051 141.778 84.0815 141.719 83.8647 141.663C83.5069 141.568 83.1491 141.477 82.7948 141.39C82.5677 141.334 82.3372 141.275 82.1101 141.222C81.7557 141.138 81.4048 141.061 81.0539 140.984C80.8234 140.935 80.5963 140.886 80.3727 140.841C80.008 140.76 79.6433 140.698 79.2855 140.624C79.0688 140.582 78.8589 140.54 78.6387 140.505C78.2396 140.432 77.8405 140.369 77.4414 140.309C77.266 140.278 77.0905 140.25 76.915 140.225C76.3508 140.141 75.7866 140.065 75.2292 139.991C75.2189 139.991 75.2051 139.984 75.1948 139.984C74.6065 139.914 74.0147 139.848 73.4264 139.795C73.3094 139.781 73.1856 139.778 73.0686 139.764C72.611 139.722 72.1535 139.687 71.6959 139.652C71.5204 139.638 71.3415 139.627 71.1661 139.62C70.7601 139.596 70.3575 139.575 69.9447 139.554C69.7589 139.55 69.5697 139.543 69.3805 139.536C68.9814 139.526 68.5823 139.512 68.1832 139.508C68.0008 139.508 67.8219 139.502 67.6396 139.502C67.2233 139.502 66.8104 139.502 66.3942 139.508C66.229 139.508 66.0708 139.512 65.9056 139.512C65.4446 139.526 64.9733 139.536 64.5088 139.554C64.4056 139.561 64.292 139.561 64.1854 139.568C62.4204 139.652 60.6658 139.806 58.9215 140.026C58.8458 140.04 58.7736 140.044 58.6979 140.058C58.199 140.124 57.7001 140.194 57.2013 140.271C57.0946 140.288 56.988 140.309 56.8848 140.32C56.4065 140.397 55.9386 140.474 55.4639 140.565C55.3572 140.582 55.2506 140.6 55.1473 140.624C54.6588 140.715 54.1703 140.809 53.6886 140.911C53.6095 140.928 53.5303 140.946 53.4478 140.96C52.9042 141.079 52.364 141.198 51.817 141.331C51.8067 141.334 51.7895 141.334 51.7757 141.341C49.4568 141.904 47.1793 142.583 44.9361 143.383C44.9189 143.39 44.9017 143.397 44.8845 143.401C44.3512 143.593 43.8145 143.796 43.2812 143.999C43.2537 144.013 43.2228 144.023 43.1884 144.034C42.6551 144.244 42.1253 144.46 41.5954 144.681C41.5851 144.688 41.5748 144.691 41.561 144.698C38.2616 146.083 35.0758 147.734 32.0276 149.626C24.001 153.158 18.08 158.939 14.5329 165.325C13.4939 166.65 12.503 168.024 11.5569 169.441C11.5259 169.49 11.4915 169.535 11.464 169.584C10.5523 170.952 9.68875 172.361 8.87336 173.805C8.82864 173.889 8.78047 173.973 8.7323 174.057C8.34009 174.763 7.9582 175.466 7.59352 176.19C7.55223 176.274 7.51094 176.358 7.46966 176.442C7.12906 177.11 6.80221 177.785 6.48569 178.467C6.44441 178.554 6.40312 178.645 6.36184 178.736C6.03155 179.446 5.72191 180.17 5.41571 180.891C5.35035 181.048 5.28842 181.202 5.22305 181.356C4.91685 182.097 4.62441 182.845 4.3423 183.597C-3.48472 204.72 -0.360793 227.197 10.7415 244.717C10.8998 244.969 11.0408 245.231 11.1819 245.494C11.2989 245.714 11.4055 245.941 11.5087 246.176C11.987 247.246 12.2897 248.372 12.4308 249.533C12.4445 249.62 12.4549 249.711 12.4652 249.802C12.4858 250.005 12.4962 250.208 12.5065 250.404C12.5134 250.561 12.5202 250.722 12.5202 250.876C12.5202 251.044 12.5202 251.215 12.5134 251.383C12.5065 251.593 12.4893 251.803 12.4652 252.006C12.4549 252.135 12.4445 252.268 12.4308 252.401C12.3861 252.74 12.331 253.079 12.2553 253.415C12.2553 253.422 12.2553 253.422 12.2553 253.425L9.06258 267.848C9.03162 267.991 9.00754 268.134 8.99722 268.271C8.99034 268.313 8.99034 268.355 8.99034 268.397C8.98689 268.498 8.9869 268.6 8.9869 268.701C8.9869 268.743 8.98689 268.785 8.99034 268.82C9.00754 269.089 9.0557 269.352 9.13828 269.603C9.1486 269.638 9.16236 269.673 9.17268 269.712C9.20364 269.799 9.23805 269.89 9.27933 269.977C9.29654 270.016 9.30686 270.051 9.3275 270.082C9.43759 270.313 9.57865 270.53 9.73691 270.726C9.761 270.757 9.78508 270.778 9.80916 270.81C9.87109 270.88 9.93646 270.946 10.0018 271.02C10.0294 271.044 10.0534 271.072 10.0844 271.097C10.2702 271.268 10.4766 271.418 10.6934 271.544C10.7278 271.562 10.7587 271.579 10.7931 271.597C10.8757 271.639 10.9652 271.681 11.0477 271.719C11.0821 271.73 11.1165 271.747 11.1509 271.758C11.2679 271.807 11.3918 271.841 11.5156 271.88C11.7909 271.95 12.0867 271.981 12.3792 271.967C12.5271 271.964 12.6785 271.95 12.8299 271.922C12.9847 271.897 13.1361 271.862 13.2875 271.807L27.3658 267.344C27.6651 267.25 27.9713 267.176 28.2775 267.106C28.4048 267.075 28.5355 267.054 28.6697 267.029C28.8211 266.998 28.9759 266.98 29.1204 266.956C29.5195 266.903 29.9186 266.862 30.3177 266.844C30.5413 266.837 30.7718 266.837 30.9954 266.844C31.0539 266.844 31.1055 266.848 31.164 266.848C31.5218 266.862 31.8762 266.896 32.2271 266.945C32.2856 266.949 32.3441 266.963 32.4026 266.97C32.4576 266.973 32.5092 266.98 32.5608 266.991C32.726 267.022 32.8911 267.054 33.0494 267.089C33.242 267.131 33.4381 267.176 33.6239 267.232C33.7547 267.267 33.882 267.302 34.0161 267.344C34.2776 267.421 34.5288 267.519 34.7799 267.613C34.8694 267.648 34.9554 267.687 35.0379 267.722C35.3373 267.848 35.6331 267.984 35.9187 268.134C36.6137 268.505 37.3155 268.855 38.0277 269.201C38.2376 269.303 38.4509 269.407 38.6607 269.502C39.1906 269.754 39.7307 269.998 40.264 270.236C40.4807 270.331 40.694 270.429 40.9108 270.523C41.6436 270.838 42.3833 271.146 43.1299 271.436C43.9625 271.758 44.8019 272.069 45.6517 272.356C46.5325 272.66 47.4132 272.936 48.3009 273.198C48.3009 273.198 48.3009 273.198 48.3077 273.198C48.435 273.233 48.5658 273.275 48.7 273.317C49.6874 273.604 50.6713 273.866 51.6587 274.108C52.4707 274.303 53.2792 274.489 54.0877 274.657C54.2872 274.699 54.4833 274.734 54.6829 274.769C55.082 274.849 55.4742 274.926 55.8733 274.992C56.1072 275.034 56.3377 275.069 56.5717 275.104C56.9364 275.164 57.2942 275.223 57.6589 275.279C57.9066 275.314 58.1474 275.349 58.3917 275.381C58.746 275.426 59.097 275.475 59.4479 275.517C59.6956 275.545 59.9433 275.576 60.1876 275.601C60.542 275.636 60.8929 275.671 61.2438 275.709C61.4846 275.73 61.7323 275.755 61.9732 275.772C62.3379 275.804 62.6957 275.828 63.0604 275.853C63.2874 275.863 63.5179 275.881 63.745 275.891C64.1441 275.916 64.5398 275.93 64.9388 275.947C65.1315 275.954 65.3242 275.965 65.5203 275.972C66.6763 276 67.8323 276 68.9814 275.972C69.1706 275.965 69.3633 275.958 69.5525 275.947C69.9275 275.933 70.3025 275.923 70.6809 275.898C70.9011 275.888 71.1248 275.87 71.3484 275.856C71.689 275.832 72.0296 275.814 72.3702 275.79C72.611 275.772 72.845 275.748 73.0858 275.727C73.4092 275.695 73.7326 275.667 74.0491 275.636C74.2969 275.611 74.5411 275.583 74.7888 275.552C75.0985 275.517 75.4116 275.482 75.7212 275.44C75.9758 275.409 76.2201 275.374 76.4747 275.339C76.7774 275.297 77.0836 275.248 77.3898 275.199C77.641 275.157 77.8887 275.115 78.1398 275.073C78.4391 275.02 78.7454 274.971 79.0447 274.919C79.2958 274.87 79.5435 274.825 79.7981 274.776C80.0974 274.716 80.3968 274.657 80.6892 274.597C80.9404 274.541 81.1881 274.489 81.4392 274.436C81.7351 274.37 82.0344 274.303 82.3269 274.234C82.5746 274.174 82.8188 274.111 83.0734 274.052C83.3659 273.982 83.6652 273.905 83.9576 273.828C84.2053 273.761 84.4462 273.695 84.687 273.629C84.9794 273.545 85.2788 273.461 85.5746 273.377C85.8155 273.307 86.0529 273.24 86.2937 273.17C86.593 273.079 86.8889 272.985 87.1882 272.887C87.4221 272.817 87.6561 272.74 87.8866 272.66C88.1928 272.558 88.4921 272.457 88.7915 272.352C89.0116 272.272 89.2353 272.195 89.4589 272.118C89.7754 272.006 90.0885 271.883 90.3981 271.772C90.6046 271.695 90.8144 271.618 91.0209 271.537C91.3683 271.401 91.7124 271.264 92.0599 271.121C92.2319 271.048 92.4005 270.981 92.5725 270.918C93.5978 270.488 94.6092 270.04 95.6104 269.554C95.7824 269.47 95.9476 269.386 96.1162 269.303C96.4464 269.142 96.7802 268.981 97.1036 268.813C97.3031 268.712 97.4958 268.61 97.6953 268.505C97.9878 268.348 98.2905 268.194 98.583 268.037C98.7894 267.925 98.9924 267.809 99.2057 267.697C99.4878 267.543 99.763 267.386 100.045 267.225C100.255 267.106 100.461 266.98 100.671 266.855C100.943 266.694 101.211 266.54 101.483 266.372C101.693 266.239 101.906 266.11 102.116 265.977C102.381 265.816 102.639 265.648 102.897 265.48C103.107 265.344 103.32 265.207 103.53 265.067C103.785 264.903 104.043 264.735 104.294 264.56C104.507 264.417 104.717 264.274 104.924 264.13C105.175 263.959 105.423 263.78 105.667 263.606C105.873 263.455 106.08 263.308 106.286 263.158C106.53 262.98 106.778 262.794 107.019 262.609C107.225 262.452 107.425 262.305 107.624 262.147C107.865 261.962 108.11 261.773 108.35 261.581C108.55 261.427 108.746 261.263 108.946 261.109C109.183 260.913 109.424 260.713 109.661 260.518C109.854 260.357 110.047 260.196 110.236 260.035C110.477 259.829 110.711 259.622 110.944 259.413C111.134 259.252 111.323 259.084 111.502 258.916C111.743 258.703 111.98 258.479 112.214 258.258C112.389 258.098 112.565 257.937 112.744 257.769C112.988 257.538 113.229 257.297 113.477 257.059C113.635 256.905 113.8 256.748 113.958 256.594C114.227 256.325 114.492 256.048 114.756 255.775C114.884 255.643 115.015 255.513 115.142 255.38C115.537 254.968 115.919 254.555 116.301 254.139C116.669 253.733 117.034 253.32 117.392 252.901C117.984 252.215 118.565 251.509 119.129 250.792C119.979 250.656 120.843 250.498 121.747 250.32C145.07 245.679 153.355 224.007 160.452 222.287C160.452 222.287 150.145 213.344 135.268 212.827C134.811 212.827 134.37 212.813 133.93 212.802Z" fill="#EBEFA5"/>
<path d="M287.714 201.492L273.292 203.22C270.296 203.58 267.567 205.133 265.716 207.556C253.166 224.031 233.366 234.495 211.185 234.002C175.494 233.201 146.415 203.58 145.665 167.258C144.878 129.293 174.582 98.1997 211.567 97.5807C248.882 96.9513 279.244 126.905 279.743 164.87C279.791 168.528 279.554 172.109 279.055 175.617C278.628 178.614 279.395 181.667 281.174 184.097L289.985 196.131C291.52 198.208 290.25 201.188 287.714 201.492ZM93.8317 216.278C77.7786 219.545 59.0144 231.068 48.3662 234.68C37.7146 238.296 26.9013 235.541 15.7439 240.531C13.5868 241.493 11.7564 242.643 10.2014 243.867C10.3768 244.151 10.542 244.438 10.7243 244.717C12.3551 247.291 12.8883 250.435 12.2278 253.425L9.0316 267.848C8.46737 270.38 10.8172 272.583 13.253 271.813L27.3313 267.351C30.18 266.449 33.2558 266.725 35.898 268.134C38.9772 269.775 42.225 271.191 45.6311 272.362C80.9954 284.494 118.837 265.309 130.655 229.281C132.127 224.79 133.115 220.244 133.641 215.715C122.171 213.799 106.279 213.746 93.8317 216.278ZM75.7109 130.72C104.511 144.751 138.42 136.001 157.428 111.265C155.109 106.474 151.511 101.809 146.04 100.448C133.617 97.3534 120.856 92.968 120.856 92.968C120.856 92.968 77.8405 83.6795 65.5822 84.5398C57.5247 85.1063 46.498 86.4527 39.8993 87.3061C44.8604 105.663 57.3664 121.785 75.7109 130.72Z" fill="#406931"/>
<path d="M287.715 201.492L273.292 203.22C270.296 203.58 267.567 205.133 265.716 207.556C253.166 224.031 233.366 234.495 211.185 234.002C194.678 233.631 179.592 227.084 168.059 216.572C172.439 213.333 178.474 209.378 185.151 206.469C198.528 200.632 202.034 197.719 205.216 194.473C208.402 191.231 210.628 179.243 210.628 179.243L251.401 172.109C251.401 172.109 253.947 176.323 256.496 180.862C258.832 185.024 268.407 185.097 282.261 185.58L289.985 196.124C291.52 198.208 290.25 201.188 287.715 201.492ZM95.5244 225.738C88.2547 237.09 91.6367 242.762 84.0299 244.483C76.4196 246.203 75.7453 246.717 75.7453 246.717L76.7602 249.298C76.7602 249.298 85.0448 245.857 89.1011 245.857C93.1574 245.857 98.4006 254.974 121.723 250.334C145.05 245.689 153.331 224.021 160.428 222.3C160.428 222.3 150.121 213.358 135.244 212.837C120.368 212.323 102.791 214.383 95.5244 225.738ZM80.4552 115.839C83.2833 120.41 100.568 135.619 117.808 132.178C135.052 128.737 149.698 119.718 149.698 119.718C149.698 119.718 137.752 106.379 116.962 103.459C96.1746 100.536 88.3958 106.897 84.8521 109.307C81.2982 111.713 78.4288 111.366 73.6982 110.852C68.9642 110.338 64.0237 109.562 64.0237 109.562L64.065 111.199C64.065 111.199 78.219 112.227 80.4552 115.839Z" fill="#89B05D"/>
<path d="M247.045 174.309L230.435 180.628L222.828 196.106L216.745 181.397L213.704 179.596L213.322 172.116C213.322 172.116 199.505 174.053 192.153 167.989C184.804 161.925 182.519 151.867 182.014 140.515C181.511 129.167 183.411 124.652 182.268 111.367C181.13 98.0808 183.407 81.1824 201.666 74.0937C219.917 66.9944 243.116 73.8349 252.88 94.087C262.641 114.336 249.202 133.556 245.146 144.006C241.086 154.448 247.045 174.309 247.045 174.309ZM196.591 195.592C195.452 187.724 194.819 182.307 194.437 178.18C194.055 174.053 191.396 175.34 190.763 178.309C190.13 181.278 190.381 185.531 190.257 187.724C190.13 189.917 188.485 192.753 188.485 192.753C188.485 192.753 181.893 190.819 176.819 188.759C171.747 186.696 169.976 190.438 170.478 192.372C170.478 192.372 165.407 193.533 167.691 197.012C167.691 197.012 163.504 197.012 164.774 200.628C164.774 200.628 160.845 200.758 162.365 204.622C162.988 206.213 168.737 213.858 175.298 222.321C185.612 229.431 197.946 233.701 211.192 234.002C218.008 234.156 224.593 233.267 230.816 231.491C223.378 227.728 209.021 220.254 204.576 216.492C198.493 211.326 197.73 203.458 196.591 195.592ZM138.114 181.023C135.692 182.391 134.904 179.474 132.537 181.369C130.173 183.261 126.96 181.369 123.918 183.775C120.88 186.185 119.019 184.122 116.652 186.356C114.285 188.591 114.791 195.474 114.791 195.474C114.791 195.474 112.93 202.352 114.963 203.381C116.986 204.416 123.075 206.997 123.075 206.997C123.698 207.546 124.376 207.833 125.047 207.958L125.652 212.931C125.652 212.931 129.537 212.634 133.892 212.802C133.892 212.802 134.322 210.263 134.057 205.5C134.295 205.175 134.405 204.93 134.405 204.93C137.955 205.101 139.135 202.695 139.135 202.695C139.135 202.695 143.023 202.695 143.532 199.939C144.038 197.187 144.547 191.857 144.21 187.385C143.863 182.915 141.162 179.303 138.114 181.023ZM84.7042 191.511C78.7866 181.023 70.8426 164.684 63.745 158.152C56.6473 151.615 32.4782 148.349 20.8151 164.338C9.14856 180.334 22.0021 200.282 22.0021 200.282C22.0021 200.282 17.9458 205.615 22.3427 213.176C26.7396 220.748 36.0322 218.513 37.2157 219.198C38.4027 219.887 44.654 225.735 44.654 225.735C45.6723 230.547 43.639 236.051 43.639 236.051C47.5508 239.545 51.6587 241.678 55.6083 242.927C50.0864 247.34 41.7193 255.16 37.7215 259.783C34.9519 262.99 32.1858 265.368 30.3004 266.837C32.2339 266.763 34.164 267.19 35.9083 268.12C38.991 269.764 42.2353 271.18 45.6414 272.352C47.6368 273.03 49.6323 273.611 51.6415 274.1C51.9683 274.135 52.2917 274.177 52.5979 274.233C59.6956 275.44 64.7668 270.963 68.3208 269.243C71.8713 267.522 77.954 259.269 79.6433 255.828C81.336 252.386 85.2202 249.12 84.7145 247.921C84.2122 246.711 80.3176 247.746 78.6352 249.291C76.9425 250.841 73.392 255.653 73.392 255.653C72.0468 249.491 67.0168 244.525 66.9756 244.479C67.1923 244.472 67.4091 244.465 67.6224 244.455C70.0754 244.381 78.8038 244.133 80.8302 244.133C83.1973 244.133 85.0551 244.479 85.5608 243.444C86.0666 242.413 86.5758 241.038 81.8452 240.349C80.6479 240.178 78.8795 239.902 76.8393 239.639L75.9276 229.34C91.2961 222.472 90.6217 202.006 84.7042 191.511ZM151.951 64.5883C153.978 59.9476 152.292 55.4747 152.292 55.4747C157.022 42.9164 154.053 17.7437 139.449 11.788C96.849 -5.57541 92.2904 32.0856 92.2904 32.0856C92.2904 32.0856 90.4291 33.2922 87.3877 38.6218C84.3464 43.955 89.077 50.3164 89.077 50.3164C89.077 50.3164 88.9084 65.1094 84.515 72.8487C80.1181 80.5914 65.5822 84.5467 65.5822 84.5467C65.5822 84.5467 70.9906 98.3011 90.5977 102.089C110.205 105.872 120.856 92.9749 120.856 92.9749C120.856 92.9749 116.122 91.2543 113.418 88.8482C110.711 86.4387 112.572 82.6582 112.572 82.6582C112.572 82.6582 116.628 86.6135 126.602 85.4105C136.576 84.204 145.194 70.2747 145.194 70.2747C145.194 70.2747 149.928 69.2361 151.951 64.5883ZM164.251 96.612C163.195 93.0343 161.925 88.1488 158.884 89.0091C155.842 89.8694 153.307 92.1006 153.307 92.1006C147.389 90.7297 145.535 96.0559 145.7 106.033C145.848 114.608 148.858 118.725 149.705 119.711C155.89 114.007 161.127 107.013 164.997 98.8816C164.756 98.1962 164.498 97.4548 164.251 96.612ZM59.5855 119.76C63.8688 120.578 67.815 117.637 70.8254 116.875C74.2074 116.014 78.2637 116.7 78.7694 115.668C79.2752 114.633 78.7694 113.773 75.5595 112.912C72.3461 112.052 64.0649 111.192 64.0649 111.192V109.646L73.6982 110.852L72.8518 104.316C72.8518 104.316 78.9346 110.681 80.2901 111.541C81.6387 112.398 84.0058 111.888 82.6571 109.307C81.305 106.726 76.2338 98.4689 72.8518 96.7483C69.4699 95.0277 63.5523 96.9232 55.6083 102.249C52.4706 104.358 50.1036 105.656 48.3834 106.456C51.4936 111.314 55.2471 115.787 59.5855 119.76Z" fill="#FFA080"/>
<path d="M251.944 80.3222C251.944 80.3222 252.285 67.7673 241.637 63.6371C230.989 59.5105 203.778 60.1994 189.07 72.7543C174.366 85.3091 177.073 91.1599 178.088 99.7559C179.103 108.355 182.65 116.437 182.65 116.437C182.65 116.437 182.145 108.87 182.31 104.229C182.478 99.5881 183.325 96.6609 183.325 96.6609C210.535 99.067 227.775 91.8453 227.775 91.8453C227.775 91.8453 224.059 97.3464 224.059 105.603C224.059 108.758 225.123 113.045 226.519 117.011L217.144 119.193C216.064 116.952 212.08 116.151 204.084 116.539C198.27 116.819 196.199 119.036 195.545 120.04C194.148 119.683 193.016 119.889 192.449 120.057C191.602 119.211 188.85 117 183.576 117.745C179.802 118.277 177.658 119.204 176.633 120.739C175.522 122.4 175.835 124.596 176.337 126.719C177.407 131.234 181.573 134.252 186.307 134.252C186.975 134.252 187.663 134.186 188.344 134.06C188.279 134.287 188.22 134.497 188.172 134.682C187.811 136.018 188.086 137.284 188.95 138.246C189.889 139.291 191.289 139.771 192.425 139.771C192.648 139.771 192.858 139.753 193.058 139.718C193.367 139.655 193.581 139.351 193.522 139.036C193.464 138.718 193.157 138.508 192.851 138.564C191.984 138.725 190.605 138.354 189.8 137.459C189.194 136.784 189.025 135.959 189.283 134.997C190.116 131.944 193.133 121.869 193.168 121.767C193.24 121.526 193.15 121.278 192.968 121.134C193.422 121.026 194.186 120.931 195.101 121.138C195.184 122.173 195.628 126.957 197.348 130.297C199.257 134 203.561 134.937 210.504 133.168C212.648 132.626 214.375 131.244 215.63 129.073C217.32 126.149 217.75 122.376 217.457 120.319L226.918 118.123C229.131 124.047 231.962 128.915 232.843 127.621C234.364 125.387 235.884 115.584 235.884 115.584C235.884 115.584 247.713 111.804 248.899 122.12C250.197 133.427 238.588 138.456 238.588 138.456L244.165 148.258C244.165 148.258 257.686 128.996 262.255 109.216C266.821 89.4393 251.944 80.3222 251.944 80.3222ZM188.668 132.955C188.554 132.888 188.42 132.86 188.286 132.888C183.301 133.874 178.553 131.038 177.459 126.45C176.853 123.904 176.891 122.442 177.589 121.403C178.415 120.165 180.314 119.396 183.741 118.91C189.39 118.109 191.736 120.984 191.829 121.103C191.908 121.204 192.019 121.271 192.136 121.306C192.111 121.347 192.084 121.382 192.07 121.431C192.043 121.515 189.83 128.898 188.668 132.955ZM214.643 128.482C213.545 130.374 212.059 131.57 210.229 132.035C203.781 133.679 200.021 132.948 198.37 129.751C196.815 126.73 196.35 122.239 196.257 121.127C196.305 121.075 196.34 121.015 196.367 120.949C196.381 120.917 197.589 118.025 204.143 117.71C206.94 117.574 215.482 117.161 216.236 120.029C216.652 121.634 216.329 125.565 214.643 128.482ZM207.662 122.369C207.662 123.271 206.947 124.005 206.056 124.005C205.168 124.005 204.445 123.278 204.445 122.369C204.445 121.466 205.161 120.732 206.056 120.732C206.943 120.739 207.662 121.466 207.662 122.369ZM188.227 123.575C188.227 124.477 187.512 125.212 186.617 125.212C185.729 125.212 185.01 124.484 185.01 123.575C185.01 122.673 185.726 121.938 186.617 121.938C187.505 121.938 188.227 122.673 188.227 123.575ZM207.002 145.212C207.253 145.408 207.294 145.779 207.102 146.038C204.552 149.353 201.442 150.063 199.25 150.063C197.63 150.063 196.508 149.675 196.488 149.668C196.185 149.559 196.027 149.227 196.133 148.923C196.24 148.618 196.567 148.454 196.866 148.562C197.086 148.639 202.285 150.402 206.197 145.314C206.389 145.058 206.747 145.009 207.002 145.212ZM227.101 167.856C227.665 169.857 220.168 176.368 213.638 178.316L213.322 172.116C219.835 170.958 226.426 165.45 227.101 167.856ZM199.749 112.986C199.567 112.716 199.632 112.353 199.897 112.174C199.966 112.125 206.905 107.352 214.086 112.699C214.344 112.891 214.399 113.255 214.209 113.517C214.099 113.671 213.92 113.755 213.745 113.755C213.628 113.755 213.511 113.72 213.404 113.643C206.902 108.8 200.805 112.954 200.547 113.136C200.289 113.321 199.932 113.255 199.749 112.986ZM183.6 113.542C183.393 113.787 183.036 113.822 182.791 113.619C182.544 113.416 182.509 113.045 182.709 112.8C182.743 112.758 186.166 108.635 191.946 113.045C192.201 113.238 192.253 113.608 192.067 113.864C191.953 114.017 191.778 114.098 191.602 114.098C191.485 114.098 191.361 114.059 191.255 113.975C186.383 110.261 183.713 113.409 183.6 113.542ZM238.079 131.021C237.979 131.091 237.863 131.126 237.749 131.126C237.567 131.126 237.388 131.038 237.274 130.877C237.092 130.611 237.157 130.244 237.415 130.059C239.369 128.678 239.07 127.579 238.63 125.918C238.303 124.698 237.938 123.327 238.568 121.725C239.782 118.641 242.951 118.455 244.461 118.791C244.771 118.857 244.964 119.172 244.902 119.483C244.836 119.802 244.527 119.998 244.22 119.931C244.079 119.903 240.787 119.228 239.634 122.155C239.149 123.39 239.435 124.467 239.741 125.607C240.192 127.279 240.697 129.167 238.079 131.021ZM176.925 196.809C177.173 197.012 177.214 197.383 177.015 197.635C176.901 197.778 176.733 197.855 176.568 197.855C176.437 197.855 176.316 197.813 176.203 197.726L170.967 193.424C170.719 193.221 170.678 192.851 170.877 192.599C171.077 192.347 171.441 192.305 171.689 192.508L176.925 196.809ZM172.917 202.013C173.137 202.241 173.137 202.611 172.917 202.842C172.804 202.957 172.656 203.017 172.511 203.017C172.363 203.017 172.215 202.957 172.105 202.842L167.375 198.03C167.151 197.803 167.151 197.432 167.375 197.198C167.598 196.97 167.96 196.97 168.19 197.198L172.917 202.013ZM169.411 206.542C169.604 206.797 169.559 207.161 169.305 207.36C169.198 207.444 169.078 207.479 168.954 207.479C168.782 207.479 168.606 207.402 168.496 207.252L164.609 202.09C164.416 201.835 164.461 201.471 164.715 201.272C164.966 201.076 165.331 201.121 165.52 201.38L169.411 206.542ZM222.704 204.923C222.704 205.825 221.988 206.56 221.094 206.56C220.21 206.56 219.487 205.829 219.487 204.923C219.487 204.021 220.203 203.286 221.094 203.286C221.988 203.286 222.704 204.021 222.704 204.923ZM94.8501 223.57C83.9061 223.57 75.0056 214.516 75.0056 203.381C75.0056 192.246 83.9061 183.191 94.8501 183.191C103.386 183.191 110.683 188.703 113.477 196.418L117.099 195.599L115.448 191.746C115.321 191.445 115.455 191.099 115.747 190.973C116.04 190.843 116.38 190.98 116.504 191.28L122.759 205.895C122.886 206.196 122.752 206.542 122.46 206.668C122.381 206.703 122.305 206.713 122.229 206.713C122.006 206.713 121.796 206.584 121.699 206.36L118.923 199.869L114.54 200.908C114.64 201.719 114.691 202.538 114.691 203.374C114.691 207.633 113.404 211.7 110.969 215.149C110.783 215.411 110.425 215.47 110.164 215.282C109.906 215.089 109.847 214.725 110.036 214.463C112.324 211.218 113.542 207.385 113.542 203.374C113.542 192.886 105.158 184.356 94.8501 184.356C84.5391 184.356 76.1582 192.886 76.1582 203.374C76.1582 213.865 84.5391 222.395 94.8501 222.395C95.2939 222.395 95.7343 222.377 96.1712 222.346C96.4809 222.335 96.763 222.566 96.7871 222.891C96.8112 223.213 96.5703 223.493 96.2504 223.517C95.7894 223.552 95.318 223.57 94.8501 223.57ZM148.088 192.546C146.23 193.407 144.203 193.921 144.203 193.921C144.203 190.997 144.372 188.07 144.372 188.07C144.372 188.07 144.372 188.07 146.065 187.556C147.754 187.045 149.949 191.686 148.088 192.546ZM74.9884 190.651C74.1008 190.651 73.3817 189.924 73.3817 189.014C73.3817 188.112 74.0973 187.378 74.9884 187.378C75.8761 187.378 76.5985 188.108 76.5985 189.014C76.5985 189.924 75.8761 190.651 74.9884 190.651ZM61.4675 197.533C61.4675 198.436 60.7519 199.17 59.8608 199.17C58.9732 199.17 58.2507 198.443 58.2507 197.533C58.2507 196.631 58.9663 195.897 59.8608 195.897C60.745 195.897 61.4675 196.631 61.4675 197.533ZM74.3726 200.814C73.8806 202.496 71.8301 203.37 71.7406 203.405C71.6718 203.437 71.5961 203.447 71.5239 203.447C71.2968 203.447 71.0835 203.311 70.9906 203.083C70.8668 202.783 71.0078 202.443 71.3003 202.318C71.7544 202.125 72.9861 201.422 73.2682 200.471C73.4093 199.981 73.2923 199.464 72.9104 198.894C71.1145 196.232 68.9608 194.201 68.9367 194.176C68.7027 193.956 68.689 193.585 68.9057 193.347C69.1225 193.106 69.4872 193.095 69.7211 193.316C69.8174 193.4 71.9884 195.456 73.86 198.233C74.4414 199.104 74.6203 199.971 74.3726 200.814ZM62.5375 210.106C62.5891 210.144 67.908 213.487 73.2751 210.434C73.5503 210.274 73.9012 210.382 74.0561 210.662C74.2074 210.945 74.1146 211.302 73.8324 211.456C71.9299 212.54 70.0583 212.914 68.3793 212.914C64.7806 212.914 62.0799 211.207 61.9216 211.099C61.6498 210.924 61.5741 210.56 61.7462 210.291C61.9079 210.018 62.2657 209.941 62.5375 210.106ZM50.114 195.414C50.0555 195.687 49.8216 195.886 49.5498 195.886C49.5154 195.886 49.4741 195.879 49.4397 195.872C49.13 195.806 48.9305 195.502 48.989 195.187C48.9993 195.113 50.52 187.85 58.488 187.493C58.7977 187.462 59.0729 187.724 59.0867 188.053C59.097 188.374 58.8562 188.651 58.5328 188.661C51.4902 188.979 50.1691 195.148 50.114 195.414ZM65.8609 185.384C65.5444 185.335 65.3311 185.038 65.3724 184.72C65.3896 184.59 65.8644 181.478 68.3724 179.649C69.986 178.47 72.0468 178.103 74.4964 178.554C74.8061 178.614 75.0194 178.921 74.9609 179.236C74.899 179.554 74.6065 179.761 74.29 179.708C72.1638 179.313 70.4023 179.614 69.0537 180.593C66.9447 182.128 66.518 184.863 66.5112 184.895C66.4699 185.185 66.2222 185.395 65.9435 185.395C65.9194 185.388 65.8884 185.388 65.8609 185.384ZM61.0443 158.837C61.0443 158.837 51.9168 176.897 47.5268 179.649C43.1299 182.401 43.8111 177.928 43.8111 177.928C43.8111 177.928 42.1184 183.261 32.3166 187.217C32.3166 187.217 37.7215 202.006 38.7365 206.308C39.7548 210.609 30.1181 206.654 24.8783 198.911C24.8783 198.911 21.3244 200.121 20.4815 205.276C14.3987 199.939 10.8482 192.032 10.6762 179.649C10.5076 167.265 20.1409 152.476 37.5529 147.66C54.9582 142.848 61.8907 153.507 61.8907 153.507C61.8907 153.507 68.4825 154.368 72.5388 161.764C76.5985 169.161 75.4116 175.008 75.4116 175.008C75.4116 175.008 71.5239 168.126 68.6477 163.999C65.7784 159.872 61.0443 158.837 61.0443 158.837ZM33.882 213.547C33.9646 213.858 33.7822 214.18 33.476 214.264C33.2317 214.33 32.984 214.365 32.7432 214.365C32.1686 214.365 31.6182 214.169 31.1193 213.788C30.156 213.04 29.5401 211.655 29.5401 210.263C29.5401 207.937 29.1445 206.451 27.1662 206.199C24.9781 205.92 24.4139 207.168 24.3898 207.221C24.2659 207.514 23.9253 207.658 23.6398 207.532C23.3508 207.406 23.2097 207.077 23.3233 206.78C23.3577 206.689 24.2006 204.643 27.3073 205.042C30.6824 205.472 30.6824 208.71 30.6824 210.27C30.6824 211.295 31.1365 212.337 31.8108 212.861C32.2203 213.183 32.6778 213.278 33.1664 213.141C33.476 213.054 33.796 213.232 33.882 213.547ZM75.9173 229.347L76.5401 236.432C66.7417 236.981 61.1406 229.872 66.4458 230.382C71.8611 230.896 75.9173 229.347 75.9173 229.347ZM76.1444 238.915C76.0859 239.234 75.7797 239.443 75.4701 239.384C75.3978 239.37 68.4137 238.034 63.9996 238.702C59.706 239.346 56.7678 242.608 56.7369 242.643C56.6268 242.769 56.4685 242.836 56.3068 242.836C56.1726 242.836 56.0316 242.787 55.9215 242.685C55.6875 242.472 55.6669 242.101 55.8802 241.864C56.0075 241.713 59.1142 238.261 63.8276 237.548C68.4378 236.856 75.3875 238.181 75.68 238.24C75.9999 238.296 76.2029 238.601 76.1444 238.915ZM66.5421 244.885L64.1751 242.304C63.9584 242.066 63.9687 241.696 64.2026 241.475C64.44 241.252 64.8047 241.266 65.0215 241.503L67.385 244.084C67.6018 244.322 67.5915 244.693 67.3575 244.913C67.244 245.021 67.1029 245.07 66.9619 245.07C66.8036 245.07 66.6522 245.011 66.5421 244.885ZM73.4402 256.307C73.3817 256.569 71.9367 262.756 63.6109 266.456C62.9021 267.183 61.8562 267.648 60.4938 267.799C60.1773 267.834 59.8436 267.851 59.4961 267.851C56.0866 267.851 51.7517 266.186 51.3526 264.578C50.9019 262.745 51.1909 256.289 52.7872 254.366C53.2792 253.771 53.809 253.684 54.1531 253.708C54.5935 253.743 54.9891 253.964 55.2884 254.341C56.613 256.031 55.9456 261.032 55.863 261.598C55.8148 261.92 55.5224 262.137 55.2093 262.095C54.8928 262.046 54.676 261.748 54.7242 261.43C54.9994 259.489 55.1577 256.048 54.387 255.076C54.2597 254.915 54.1497 254.883 54.0671 254.877C54.0258 254.873 53.8779 254.866 53.668 255.121C52.4294 256.615 52.0475 262.567 52.4742 264.298C52.6737 265.106 56.8676 267.029 60.37 266.641C62.4067 266.414 63.4629 265.438 63.5111 263.735C63.6694 257.87 57.4834 251.33 57.4181 251.264C57.1944 251.03 57.2013 250.662 57.4284 250.435C57.6589 250.208 58.0236 250.211 58.2472 250.446C58.5156 250.725 64.8391 257.405 64.6636 263.766C64.6499 264.102 64.6052 264.413 64.5398 264.711C66.4183 263.714 67.8495 262.577 68.947 261.472C68.9367 261.43 68.9229 261.395 68.9229 261.346C68.9229 254.621 61.3918 246.875 61.3161 246.795C61.0925 246.567 61.0925 246.2 61.3161 245.966C61.5397 245.731 61.9044 245.738 62.1315 245.966C62.4446 246.28 69.3427 253.383 70.017 260.283C71.8473 258.006 72.3118 256.09 72.3186 256.055C72.3874 255.737 72.6936 255.541 73.0033 255.614C73.3095 255.677 73.509 255.989 73.4402 256.307ZM39.2422 219.373L44.6506 225.735L35.1859 219.198C35.1859 219.205 36.7066 218.513 39.2422 219.373ZM127.424 205.608L123.368 191.679C123.279 191.368 123.451 191.039 123.757 190.952C124.059 190.854 124.379 191.036 124.472 191.343L128.529 205.276C128.615 205.584 128.446 205.909 128.14 206.004C128.088 206.021 128.03 206.028 127.975 206.028C127.73 206.028 127.5 205.867 127.424 205.608ZM134.14 203.272C134.112 203.279 134.088 203.279 134.057 203.279C133.775 203.279 133.531 203.069 133.49 202.772C132.826 197.88 130.655 189.511 130.631 189.427C130.548 189.116 130.731 188.794 131.04 188.71C131.353 188.626 131.663 188.811 131.745 189.13C131.77 189.214 133.958 197.645 134.632 202.611C134.673 202.933 134.457 203.227 134.14 203.272ZM138.726 200.754C139.049 196.935 137.071 188.297 137.047 188.21C136.975 187.892 137.164 187.58 137.474 187.503C137.787 187.434 138.097 187.622 138.169 187.941C138.251 188.304 140.212 196.848 139.872 200.849C139.848 201.153 139.593 201.387 139.294 201.387C139.277 201.387 139.259 201.387 139.242 201.387C138.936 201.356 138.702 201.069 138.726 200.754ZM148.328 222.793C148.342 223.119 148.088 223.384 147.771 223.398C105.522 224.748 92.7342 241.738 92.6104 241.905C92.5003 242.059 92.3248 242.143 92.1494 242.143C92.0324 242.143 91.912 242.108 91.8088 242.028C91.5507 241.839 91.4957 241.475 91.6849 241.21C92.201 240.493 104.851 223.594 147.737 222.227C148.046 222.234 148.318 222.472 148.328 222.793ZM142.789 120.302C106.844 112.667 84.835 115.441 84.6148 115.469C84.2983 115.511 84.0127 115.283 83.9714 114.962C83.9301 114.64 84.1538 114.346 84.4703 114.304C84.687 114.276 106.871 111.475 143.03 119.155C143.34 119.221 143.539 119.532 143.474 119.847C143.415 120.123 143.181 120.316 142.91 120.316C142.868 120.316 142.831 120.316 142.789 120.302ZM162.871 97.2799C162.73 97.2799 159.438 97.196 157.318 97.3709C156.038 97.4723 155.216 98.3011 154.71 99.0985C154.487 98.0808 154.229 96.8708 153.995 95.7447C154.105 95.6572 154.187 95.5383 154.218 95.388C154.225 95.353 154.384 94.5452 155.567 94.2304C157.084 93.8212 161.715 93.8177 161.76 93.8177C162.08 93.8177 162.338 93.5555 162.338 93.2302C162.338 92.9085 162.08 92.6462 161.76 92.6462C161.567 92.6462 156.936 92.6532 155.275 93.0938C154.476 93.3072 153.978 93.6918 153.647 94.066C153.431 93.0169 153.286 92.2685 153.279 92.251C153.262 92.1636 153.221 92.0831 153.166 92.0132C153.706 91.7789 153.984 91.5935 153.984 91.5935L152.732 89.831C157.594 87.0892 160.893 81.8224 160.893 75.7758C160.893 66.9175 153.812 59.7133 145.108 59.7133C136.4 59.7133 129.32 66.9175 129.32 75.7758C129.32 84.6342 136.4 91.8383 145.108 91.8383C146.698 91.8383 148.229 91.5935 149.674 91.1459L150.007 92.1146C150.007 92.1146 151.146 91.7614 152.185 92.1671C152.151 92.2685 152.127 92.3769 152.151 92.4888C152.164 92.5448 153.262 98.0353 153.847 100.508C154.053 101.372 153.843 102.089 153.272 102.424C152.708 102.76 151.944 102.599 151.335 102.005C149.763 100.49 148.617 97.4373 148.607 97.4058C148.494 97.1016 148.16 96.9512 147.867 97.0666C147.571 97.1785 147.42 97.5212 147.53 97.8185C147.585 97.9549 148.783 101.144 150.547 102.854C150.912 103.208 151.318 103.445 151.734 103.596C152.034 104.467 153.255 107.957 154.184 109.377C155.34 111.139 157.394 111.349 157.483 111.356C157.501 111.356 157.518 111.356 157.535 111.356C157.827 111.356 158.082 111.129 158.11 110.824C158.141 110.499 157.903 110.212 157.587 110.185C157.569 110.185 155.99 110.024 155.14 108.719C154.975 108.471 154.8 108.135 154.618 107.757C154.659 107.698 154.693 107.639 154.71 107.569C154.968 106.582 156.004 103.757 157.305 103.704C159.297 103.62 161.901 103.62 161.932 103.62C162.248 103.62 162.506 103.355 162.506 103.033C162.506 102.711 162.248 102.449 161.932 102.449C161.908 102.449 159.279 102.449 157.26 102.533C155.526 102.603 154.445 104.82 153.936 106.205C153.561 105.274 153.214 104.33 152.997 103.715C153.29 103.666 153.585 103.589 153.847 103.435C154.645 102.966 155.075 102.103 155.065 101.092C155.092 101.043 155.116 100.997 155.127 100.941C155.134 100.92 155.722 98.6788 157.404 98.5424C159.465 98.3746 162.806 98.4585 162.84 98.4585C163.164 98.4655 163.422 98.2067 163.428 97.8849C163.435 97.5632 163.188 97.2939 162.871 97.2799ZM130.472 75.7723C130.472 67.5575 137.033 60.8779 145.108 60.8779C153.179 60.8779 159.744 67.5575 159.744 75.7723C159.744 83.9837 153.179 90.6633 145.108 90.6633C137.033 90.6633 130.472 83.9767 130.472 75.7723ZM159.871 107.943C159.823 108.23 159.579 108.429 159.303 108.429C159.272 108.429 159.238 108.429 159.204 108.422L156.754 107.992C156.444 107.939 156.231 107.632 156.283 107.317C156.338 106.999 156.637 106.785 156.947 106.838L159.396 107.268C159.713 107.324 159.923 107.628 159.871 107.943ZM140.546 56.5064C141.196 56.5064 141.73 57.045 141.73 57.7129C141.73 58.3774 141.203 58.9195 140.546 58.9195C139.892 58.9195 139.359 58.3809 139.359 57.7129C139.359 57.045 139.889 56.5064 140.546 56.5064ZM124.49 51.4355C124.49 50.771 125.016 50.229 125.676 50.229C126.327 50.229 126.86 50.7676 126.86 51.4355C126.86 52.1 126.334 52.642 125.676 52.642C125.016 52.635 124.49 52.1 124.49 51.4355ZM129.691 65.7599C128.728 65.7599 127.837 65.5501 127.641 65.5011C127.331 65.4242 127.142 65.1095 127.218 64.7982C127.297 64.48 127.607 64.2911 127.913 64.3681C128.938 64.6233 130.964 64.7912 131.198 64.0638C131.687 62.5705 132.692 56.9785 132.702 56.9191C132.76 56.6008 133.06 56.3875 133.373 56.447C133.682 56.5064 133.892 56.8107 133.834 57.1289C133.793 57.3597 132.809 62.8608 132.292 64.4345C131.952 65.4906 130.775 65.7599 129.691 65.7599ZM120.784 68.806C120.784 70.03 121.765 71.0267 122.969 71.0267C124.173 71.0267 125.154 70.03 125.154 68.806C125.154 67.582 124.173 66.5853 122.969 66.5853C121.765 66.5853 120.784 67.582 120.784 68.806ZM123.998 68.806C123.998 69.3865 123.533 69.8516 122.969 69.8516C122.405 69.8516 121.94 69.3795 121.94 68.806C121.94 68.2254 122.405 67.7603 122.969 67.7603C123.533 67.7603 123.998 68.2254 123.998 68.806ZM112.572 82.6478C112.572 82.6478 111.309 85.2217 112.389 87.4774C108.639 84.6062 104.759 79.9235 105.134 78.5176C105.639 76.6326 108.344 78.7799 112.572 82.6478ZM63.8104 59.5175C61.9491 51.6069 60.5179 41.542 70.8255 35.3555C81.1365 29.1655 80.2901 24.1786 84.9382 18.6705C89.5897 13.1695 93.3054 14.974 102.264 9.47294C111.223 3.97189 116.628 -4.02964 134.797 3.79703C152.966 11.6237 158.209 21.4263 157.869 35.7857C157.528 50.1451 151.277 58.0522 151.277 58.0522C151.277 58.0522 149.856 56.4994 147.977 53.7541C148.046 53.9185 148.125 54.0689 148.187 54.2472C148.294 54.555 148.143 54.8872 147.843 54.9956C147.778 55.0201 147.713 55.0306 147.647 55.0306C147.413 55.0306 147.19 54.8802 147.107 54.6424C145.27 49.4176 139.958 50.4213 139.734 50.4598C139.431 50.5262 139.118 50.3164 139.06 50.0017C139.001 49.6834 139.201 49.3757 139.511 49.3162C139.566 49.3022 143.649 48.5434 146.415 51.3341C142.59 45.0916 138.045 35.0268 138.95 23.4022C138.95 23.4022 126.526 41.7169 107.26 42.9234L109.496 37.7965C110.353 35.8311 108.849 33.6524 106.744 33.7853C104.528 33.9217 101.924 34.8904 100.162 38.1078C96.529 44.7279 99.4878 49.547 101.428 53.9325C103.372 58.3179 103.878 73.2788 88.1619 74.4854C72.4287 75.6814 65.6648 67.4246 63.8104 59.5175ZM134.123 49.3547C133.892 49.3547 133.682 49.2183 133.59 48.991C131.154 42.9933 123.915 43.3291 123.843 43.3361C123.526 43.3396 123.258 43.1017 123.237 42.78C123.22 42.4583 123.461 42.182 123.784 42.1645C123.867 42.1575 131.914 41.7868 134.656 48.5434C134.78 48.8441 134.639 49.1833 134.346 49.3092C134.271 49.3372 134.195 49.3547 134.123 49.3547ZM54.7827 112.192C54.4662 108.219 57.3458 107.083 58.2679 106.82L58.2403 105.446C58.2335 105.124 58.4881 104.855 58.8046 104.848C59.1039 104.855 59.386 105.1 59.3894 105.421L59.472 109.807C59.4789 110.129 59.2277 110.398 58.9078 110.405C58.9043 110.405 58.9043 110.405 58.8975 110.405C58.5878 110.405 58.3263 110.15 58.3229 109.831L58.2851 108.034C57.4353 108.338 55.6978 109.3 55.9215 112.094C56.1554 115.028 58.2094 115.196 61.0821 115.102C61.2748 115.095 61.4572 115.095 61.6395 115.088C61.6636 115.004 61.698 114.92 61.7565 114.85C64.0272 112.22 63.8104 103.984 63.8104 103.9C63.8001 103.578 64.0513 103.309 64.3678 103.295C64.6636 103.292 64.9492 103.54 64.963 103.865C64.9733 104.197 65.166 111.706 63.0363 115.06C64.1338 115.021 65.4377 114.934 66.6866 114.818C66.6832 114.664 66.7417 114.507 66.8518 114.388C67.6259 113.601 67.7841 112.503 67.7841 112.489C67.8254 112.167 68.1213 111.947 68.4309 111.989C68.7475 112.031 68.9642 112.321 68.9229 112.647C68.9195 112.699 68.7715 113.713 68.1007 114.675C69.1878 114.556 70.1512 114.43 70.7842 114.311C72.2602 114.038 72.6111 113.098 72.6283 113.063C72.7418 112.765 73.0618 112.605 73.3611 112.709C73.6604 112.818 73.8187 113.14 73.7189 113.444C73.6983 113.51 73.1615 115.07 70.9975 115.469C69.1293 115.818 64.5329 116.252 62.0214 116.252C61.7393 116.252 61.4331 116.266 61.1166 116.27C60.7863 116.284 60.4285 116.294 60.0672 116.294C57.8 116.294 55.082 115.871 54.7827 112.192ZM68.83 109.401C69.7177 106.278 69.4872 103.022 69.4872 102.987C69.4631 102.662 69.7005 102.382 70.017 102.358C70.3266 102.333 70.6087 102.575 70.6328 102.896C70.6431 103.04 70.884 106.397 69.9344 109.723C69.8622 109.982 69.6282 110.15 69.3805 110.15C69.3289 110.15 69.2773 110.143 69.2222 110.125C68.9195 110.034 68.7406 109.712 68.83 109.401ZM124.782 207.997C124.796 207.675 125.054 207.402 125.381 207.437C125.418 207.444 127.077 207.479 128.054 206.343C128.195 206.182 128.415 206.112 128.622 206.157C128.646 206.164 131.281 206.797 133.476 205.217C133.734 205.031 134.099 205.091 134.281 205.353C134.463 205.615 134.405 205.979 134.147 206.171C131.986 207.724 129.568 207.507 128.687 207.36C127.49 208.525 125.845 208.602 125.436 208.602C125.381 208.602 125.346 208.602 125.339 208.602C125.012 208.595 124.765 208.322 124.782 207.997Z" fill="black"/>
</svg>
