<svg width="154" height="238" viewBox="0 0 154 238" fill="none" xmlns="http://www.w3.org/2000/svg">
<path d="M119.619 44.1583C119.619 44.1583 71.2258 40.1692 68.1191 91.1569C68.1191 91.1569 118.192 98.8992 119.619 44.1583Z" fill="#5E783C"/>
<path d="M116.325 46.5575C116.325 46.5575 69.0991 86.8792 68.1191 91.157C68.1191 91.157 94.5625 71.3946 116.325 46.5575Z" fill="#3E512A"/>
<path d="M79.5741 80.9057C79.5741 80.9057 80.9485 80.4177 83.0427 79.8728C84.0918 79.5923 85.3158 79.2995 86.6373 79.0108C87.2961 78.8766 87.9751 78.7139 88.6705 78.5879C89.3699 78.4577 90.0734 78.3236 90.785 78.1894C91.4925 78.0714 92.2041 77.9576 92.8995 77.8397C93.5989 77.7136 94.2901 77.6364 94.957 77.5388C96.2948 77.3517 97.5473 77.2094 98.6249 77.1118C100.78 76.9044 102.24 76.8922 102.24 76.8922C102.24 76.8922 100.865 77.3842 98.7712 77.9291C97.7221 78.2097 96.4982 78.5065 95.1766 78.7871C94.5179 78.9254 93.8388 79.088 93.1394 79.2141C92.4481 79.3442 91.7365 79.4743 91.033 79.6085C90.3214 79.7264 89.6139 79.8444 88.9145 79.9582C88.215 80.0802 87.5238 80.1615 86.8528 80.2591C85.5191 80.4462 84.2666 80.5885 83.1891 80.6861C81.0339 80.8935 79.5741 80.9057 79.5741 80.9057Z" fill="#3E512A"/>
<path d="M78.472 80.1006C78.472 80.1006 78.529 78.9905 78.7892 77.3761C78.9153 76.5669 79.0901 75.6317 79.3097 74.6395C79.5252 73.6432 79.7773 72.5901 80.066 71.545C80.3507 70.5 80.6679 69.459 80.985 68.4953C81.3063 67.5275 81.6316 66.6329 81.9325 65.8725C82.5262 64.3517 83.0467 63.3676 83.0467 63.3676C83.0467 63.3676 82.9938 64.4777 82.7295 66.0921C82.6034 66.9013 82.4286 67.8365 82.2131 68.8328C81.9976 69.8249 81.7414 70.8781 81.4527 71.9272C81.168 72.9723 80.8508 74.0051 80.5296 74.9729C80.2124 75.9407 79.8871 76.8353 79.5822 77.5916C78.9925 79.1165 78.472 80.1006 78.472 80.1006Z" fill="#3E512A"/>
<path d="M90.1301 72.1387C90.1301 72.1387 91.5045 71.6467 93.5987 71.1059C94.6478 70.8253 95.8718 70.5284 97.1893 70.2438C97.8521 70.1096 98.5312 69.947 99.2265 69.8209C99.9218 69.6908 100.633 69.5525 101.337 69.4224C102.049 69.3045 102.756 69.1866 103.455 69.0727C104.155 68.9466 104.846 68.8694 105.513 68.7677C106.851 68.5807 108.103 68.4424 109.181 68.3448C111.336 68.1374 112.796 68.1252 112.796 68.1252C112.796 68.1252 111.421 68.6173 109.327 69.1581C108.278 69.4387 107.054 69.7355 105.733 70.0202C105.07 70.1584 104.395 70.3211 103.695 70.4471C103 70.5772 102.293 70.7074 101.589 70.8416C100.877 70.9595 100.166 71.0774 99.4705 71.1913C98.7711 71.3132 98.0798 71.3946 97.4129 71.4922C96.071 71.6751 94.8227 71.8215 93.7451 71.9191C91.5859 72.1224 90.1301 72.1387 90.1301 72.1387Z" fill="#3E512A"/>
<path d="M89.0282 71.3296C89.0282 71.3296 89.0811 70.2235 89.3454 68.6092C89.4714 67.8 89.6463 66.8648 89.8618 65.8685C90.0814 64.8723 90.3335 63.8191 90.6181 62.7781C90.9068 61.729 91.22 60.6921 91.5412 59.7284C91.8584 58.7606 92.1837 57.866 92.4846 57.1056C93.0823 55.5807 93.5988 54.6007 93.5988 54.6007C93.5988 54.6007 93.55 55.7108 93.2856 57.3251C93.1596 58.1343 92.9847 59.0696 92.7652 60.0618C92.5496 61.058 92.2935 62.1112 92.0088 63.1563C91.7242 64.2013 91.4029 65.2382 91.0858 66.206C90.7645 67.1738 90.4433 68.0684 90.1383 68.8247C89.5487 70.3496 89.0282 71.3296 89.0282 71.3296Z" fill="#3E512A"/>
<path d="M99.4054 63.3676C99.4054 63.3676 100.406 63.0098 101.939 62.6153C102.707 62.412 103.602 62.1924 104.566 61.9851C105.529 61.7695 106.566 61.5784 107.599 61.3832C108.636 61.2125 109.673 61.0335 110.653 60.9075C111.629 60.7733 112.548 60.6676 113.333 60.5944C114.91 60.448 115.976 60.4358 115.976 60.4358C115.976 60.4358 114.971 60.7936 113.438 61.1921C112.674 61.3954 111.779 61.611 110.811 61.8224C109.852 62.0379 108.815 62.229 107.782 62.4242C106.741 62.595 105.704 62.7699 104.728 62.8959C103.748 63.0342 102.833 63.1399 102.044 63.209C100.467 63.3595 99.4054 63.3676 99.4054 63.3676Z" fill="#3E512A"/>
<path d="M98.5962 62.778C98.5962 62.778 98.6369 61.9648 98.832 60.7896C98.9215 60.1959 99.0476 59.5128 99.2102 58.789C99.3607 58.057 99.5599 57.2885 99.7632 56.524C99.9787 55.7595 100.198 54.9991 100.434 54.2957C100.67 53.5881 100.906 52.9334 101.125 52.3764C101.561 51.2622 101.943 50.5465 101.943 50.5465C101.943 50.5465 101.902 51.3557 101.711 52.5349C101.617 53.1286 101.491 53.8118 101.329 54.5396C101.178 55.2675 100.975 56.0361 100.776 56.8046C100.556 57.565 100.337 58.3254 100.101 59.0289C99.8649 59.7405 99.6331 60.3911 99.4095 60.9482C98.9744 62.0583 98.5962 62.778 98.5962 62.778Z" fill="#3E512A"/>
<path d="M16.2613 53.9907C16.2613 53.9907 12.2844 102.526 63.1257 105.645C63.1257 105.645 70.8436 55.4221 16.2613 53.9907Z" fill="#5E783C"/>
<path d="M18.6522 57.2966C18.6522 57.2966 58.8601 104.657 63.1257 105.645C63.1257 105.645 43.4202 79.1206 18.6522 57.2966Z" fill="#3E512A"/>
<path d="M52.903 94.1539C52.903 94.1539 52.415 92.7754 51.8742 90.6731C51.5936 89.624 51.3008 88.3919 51.0162 87.0703C50.8779 86.4075 50.7193 85.7284 50.5933 85.029C50.4632 84.3296 50.329 83.6221 50.1948 82.9145C50.0769 82.2029 49.963 81.4873 49.8451 80.7879C49.7231 80.0925 49.6418 79.3931 49.5442 78.7262C49.3612 77.3843 49.2189 76.1278 49.1213 75.0462C48.9139 72.887 48.9058 71.4231 48.9058 71.4231C48.9058 71.4231 49.3937 72.8016 49.9386 74.8998C50.2151 75.953 50.512 77.181 50.7925 78.5066C50.9267 79.1695 51.0934 79.8485 51.2154 80.5479C51.3456 81.2473 51.4797 81.9549 51.6099 82.6624C51.7278 83.374 51.8457 84.0897 51.9596 84.7891C52.0775 85.4845 52.1629 86.1839 52.2605 86.8508C52.4435 88.1926 52.5858 89.4491 52.6834 90.5308C52.8908 92.69 52.903 94.1539 52.903 94.1539Z" fill="#3E512A"/>
<path d="M52.0978 95.2599C52.0978 95.2599 50.9918 95.2071 49.3856 94.9427C48.5764 94.8126 47.6452 94.6378 46.653 94.4223C45.6608 94.2027 44.6117 93.9465 43.5707 93.6618C42.5257 93.3772 41.4928 93.06 40.5291 92.7347C39.5654 92.4176 38.6708 92.0922 37.9145 91.7913C36.3977 91.1936 35.4177 90.6731 35.4177 90.6731C35.4177 90.6731 36.5238 90.726 38.134 90.9903C38.9392 91.1163 39.8744 91.2912 40.8666 91.5108C41.8547 91.7263 42.9079 91.9825 43.9489 92.2712C44.9899 92.5558 46.0268 92.877 46.9864 93.1942C47.9542 93.5155 48.8447 93.8408 49.6011 94.1417C51.1178 94.7394 52.0978 95.2599 52.0978 95.2599Z" fill="#3E512A"/>
<path d="M44.1603 83.565C44.1603 83.565 43.6723 82.1865 43.1315 80.0883C42.8509 79.0392 42.5582 77.8071 42.2735 76.4856C42.1393 75.8227 41.9767 75.1437 41.8506 74.4443C41.7164 73.7449 41.5863 73.0373 41.4521 72.3298C41.3383 71.6141 41.2163 70.9025 41.1065 70.2031C40.9804 69.5037 40.9032 68.8083 40.8015 68.1374C40.6185 66.7996 40.4762 65.5431 40.3786 64.4614C40.1753 62.2981 40.1631 60.8383 40.1631 60.8383C40.1631 60.8383 40.651 62.2127 41.1919 64.315C41.4724 65.3682 41.7693 66.5962 42.0499 67.9178C42.1841 68.5806 42.3508 69.2638 42.4728 69.9591C42.6029 70.6585 42.7371 71.3701 42.8672 72.0777C42.9851 72.7852 43.103 73.5009 43.221 74.2003C43.3389 74.8997 43.4202 75.595 43.5178 76.266C43.7008 77.6038 43.8472 78.8603 43.9407 79.9419C44.1481 82.1052 44.1603 83.565 44.1603 83.565Z" fill="#3E512A"/>
<path d="M43.3591 84.6753C43.3591 84.6753 42.249 84.6184 40.6428 84.354C39.8336 84.228 38.9024 84.0491 37.9143 83.8336C36.918 83.618 35.8689 83.3619 34.8239 83.0731C33.7829 82.7885 32.75 82.4754 31.7863 82.1501C30.8226 81.8329 29.928 81.5076 29.1717 81.2026C27.6549 80.609 26.6749 80.0844 26.6749 80.0885C26.6749 80.0885 27.781 80.1373 29.3912 80.4056C30.1964 80.5276 31.1316 80.7065 32.1197 80.9261C33.1119 81.1416 34.1651 81.3938 35.2061 81.6825C36.2511 81.9712 37.284 82.2883 38.2436 82.6096C39.2114 82.9268 40.102 83.2521 40.8583 83.557C42.3791 84.1548 43.3591 84.6753 43.3591 84.6753Z" fill="#3E512A"/>
<path d="M35.4176 74.2654C35.4176 74.2654 35.0598 73.261 34.6653 71.7239C34.462 70.9554 34.2465 70.0567 34.035 69.0889C33.8236 68.1211 33.6325 67.0842 33.4373 66.0473C33.2665 65.0063 33.0876 63.9694 32.9615 62.9854C32.8273 62.0013 32.7216 61.0864 32.6525 60.2975C32.502 58.7117 32.4939 57.6422 32.4939 57.6422C32.4939 57.6422 32.8517 58.6507 33.2502 60.1877C33.4536 60.9563 33.6691 61.8549 33.8764 62.8227C34.092 63.7905 34.279 64.8274 34.4742 65.8643C34.645 66.9053 34.8198 67.9463 34.95 68.9263C35.0801 69.9063 35.1858 70.8293 35.2549 71.6182C35.4095 73.1959 35.4176 74.2654 35.4176 74.2654Z" fill="#3E512A"/>
<path d="M34.8322 75.0787C34.8322 75.0787 34.0189 75.0381 32.8478 74.8429C32.2541 74.7493 31.571 74.6192 30.8472 74.4606C30.1234 74.3102 29.3589 74.1069 28.5904 73.9076C27.834 73.688 27.0736 73.4725 26.3701 73.2326C25.6667 73.0008 25.012 72.7609 24.459 72.5373C23.3489 72.1022 22.6332 71.724 22.6332 71.724C22.6332 71.724 23.4424 71.7606 24.6175 71.9558C25.2072 72.0452 25.8903 72.1713 26.6141 72.3339C27.342 72.4885 28.1065 72.6918 28.8709 72.891C29.6313 73.1106 30.3917 73.3261 31.0911 73.566C31.7987 73.8019 32.4493 74.0377 33.0023 74.2614C34.1124 74.6965 34.8322 75.0787 34.8322 75.0787Z" fill="#3E512A"/>
<path d="M109.531 0.0507921C109.531 0.0507921 75.8166 -2.72651 73.6493 32.7929C73.6493 32.7929 108.534 38.1848 109.531 0.0507921Z" fill="#5E783C"/>
<path d="M107.233 1.72205C107.233 1.72205 74.3324 29.8163 73.6493 32.7929C73.6493 32.7929 92.0738 19.0243 107.233 1.72205Z" fill="#3E512A"/>
<path d="M81.6316 25.6525C81.6316 25.6525 82.5912 25.3109 84.047 24.9328C84.7789 24.7376 85.6329 24.5343 86.5478 24.335C87.4708 24.1276 88.4508 23.9446 89.4389 23.7576C90.4271 23.5949 91.4152 23.4282 92.3504 23.3062C93.2776 23.1761 94.1518 23.0785 94.9041 23.0094C96.4046 22.863 97.4212 22.8549 97.4212 22.8549C97.4212 22.8549 96.4615 23.2005 95.0017 23.5787C94.2738 23.7738 93.4199 23.9812 92.5009 24.1805C91.5819 24.3838 90.6019 24.5627 89.6138 24.7498C88.6257 24.9165 87.6376 25.0832 86.7023 25.2052C85.7711 25.3313 84.8969 25.4288 84.1487 25.498C82.6441 25.6403 81.6316 25.6525 81.6316 25.6525Z" fill="#3E512A"/>
<path d="M80.8629 25.0913C80.8629 25.0913 80.8995 24.3187 81.0866 23.1923C81.172 22.6311 81.298 21.9805 81.4485 21.2852C81.5949 20.5898 81.786 19.862 81.973 19.13C82.1845 18.4022 82.3878 17.6784 82.6155 17.0033C82.8392 16.3324 83.0628 15.7062 83.2742 15.1816C83.689 14.1203 84.0469 13.4331 84.0469 13.4331C84.0469 13.4331 84.0143 14.2098 83.8313 15.3361C83.7419 15.8932 83.624 16.5479 83.4654 17.2392C83.323 17.9345 83.1279 18.6624 82.9408 19.3943C82.7294 20.1222 82.526 20.846 82.2983 21.521C82.0747 22.192 81.851 22.8182 81.6396 23.3468C81.2248 24.4041 80.8629 25.0913 80.8629 25.0913Z" fill="#3E512A"/>
<path d="M88.9834 19.5448C88.9834 19.5448 89.9431 19.2032 91.4029 18.821C92.1307 18.6299 92.9847 18.4225 93.9037 18.2232C94.8226 18.0199 95.8067 17.8369 96.7948 17.6539C97.7789 17.4872 98.767 17.3205 99.7022 17.1985C100.633 17.0684 101.508 16.9667 102.256 16.9017C103.76 16.7594 104.773 16.7512 104.773 16.7512C104.773 16.7512 103.817 17.0887 102.358 17.471C101.63 17.6661 100.776 17.8695 99.8568 18.0687C98.9337 18.2761 97.9537 18.455 96.9656 18.6421C95.9775 18.8047 94.9894 18.9714 94.0582 19.0934C93.127 19.2235 92.2527 19.3252 91.5045 19.3903C90 19.5367 88.9834 19.5448 88.9834 19.5448Z" fill="#3E512A"/>
<path d="M88.2189 18.9837C88.2189 18.9837 88.2555 18.207 88.4425 17.0847C88.5238 16.5195 88.6499 15.8689 88.8004 15.1776C88.9467 14.4823 89.1379 13.7503 89.3249 13.0225C89.5364 12.2986 89.7437 11.5708 89.9715 10.8998C90.191 10.2248 90.4147 9.60267 90.6261 9.07405C91.0409 8.00867 91.4028 7.32959 91.4028 7.32959C91.4028 7.32959 91.3662 8.10219 91.1832 9.2245C91.0978 9.78972 90.9718 10.4403 90.8213 11.1316C90.6749 11.827 90.4838 12.5589 90.2927 13.2868C90.0853 14.0106 89.8779 14.7384 89.6502 15.4094C89.4266 16.0844 89.2029 16.7065 88.9915 17.2352C88.5808 18.2965 88.2189 18.9837 88.2189 18.9837Z" fill="#3E512A"/>
<path d="M95.4448 13.4331C95.4448 13.4331 95.6197 13.3721 95.9287 13.2786C96.2378 13.1932 96.6769 13.0468 97.2137 12.9086C98.2791 12.6239 99.7104 12.3108 101.154 12.0547C102.597 11.7985 104.049 11.6033 105.151 11.5057C105.7 11.4488 106.16 11.4366 106.481 11.4122C106.806 11.3918 106.989 11.3918 106.989 11.3918C106.989 11.3918 106.814 11.4569 106.509 11.5504C106.196 11.6358 105.757 11.7863 105.22 11.9205C104.159 12.2051 102.724 12.5182 101.28 12.7744C99.8365 13.0265 98.3807 13.2217 97.2869 13.3234C96.7379 13.3762 96.2744 13.3925 95.9531 13.4169C95.6319 13.4331 95.4448 13.4331 95.4448 13.4331Z" fill="#3E512A"/>
<path d="M94.8838 13.0224C94.8838 13.0224 94.9123 12.4612 95.0464 11.6358C95.1766 10.8144 95.4083 9.73272 95.693 8.66734C95.9898 7.60196 96.3395 6.55285 96.6445 5.77618C96.9495 4.99951 97.2138 4.50342 97.2138 4.50342C97.2138 4.50342 97.1853 5.06864 97.0511 5.89004C96.9251 6.7155 96.6933 7.79715 96.4005 8.85846C96.1118 9.92384 95.758 10.9729 95.449 11.7456C95.1481 12.5263 94.8838 13.0224 94.8838 13.0224Z" fill="#3E512A"/>
<mask id="mask0_167_868" style="mask-type:luminance" maskUnits="userSpaceOnUse" x="0" y="209" width="122" height="29">
<path d="M0 209.113H121.795V237.712H0V209.113Z" fill="white"/>
</mask>
<g mask="url(#mask0_167_868)">
<path d="M0.288574 237.744C0.288574 237.744 68.7371 174.423 121.242 237.744H0.288574Z" fill="#724F42"/>
</g>
<mask id="mask1_167_868" style="mask-type:luminance" maskUnits="userSpaceOnUse" x="0" y="212" width="122" height="26">
<path d="M0 212.236H121.795V237.711H0V212.236Z" fill="white"/>
</mask>
<g mask="url(#mask1_167_868)">
<path d="M0.288574 237.744H121.242C110.555 224.866 99.2183 217.225 87.9302 213.228C90.8335 219.832 87.6577 223.675 87.6577 223.675C73.82 231.787 43.9691 224.28 28.0738 219.348C11.3897 227.477 0.288574 237.744 0.288574 237.744Z" fill="#4A332B"/>
</g>
<path d="M60.995 209.825C60.995 209.825 67.5377 216.575 73.7226 209.987C73.7226 209.987 87.8612 187.647 82.6238 168.865C77.3904 150.078 54.7654 41.194 78.3664 29.548C78.3664 29.548 68.0907 25.2783 63.3657 60.9807C58.6365 96.6831 68.7332 140.534 72.3929 166.539C76.0445 192.535 60.995 209.825 60.995 209.825Z" fill="#07402B"/>
<mask id="mask2_167_868" style="mask-type:luminance" maskUnits="userSpaceOnUse" x="75" y="84" width="79" height="73">
<path d="M75.9915 84.1954H154V156.023H75.9915V84.1954Z" fill="white"/>
</mask>
<g mask="url(#mask2_167_868)">
<path d="M153.955 84.5817C153.955 84.5817 81.0866 78.5757 76.4022 155.356C76.4022 155.356 151.804 167.014 153.955 84.5817Z" fill="#5E783C"/>
</g>
<path d="M148.994 88.1967C148.994 88.1967 77.8824 148.919 76.4022 155.356C76.4022 155.356 116.228 125.595 148.994 88.1967Z" fill="#3E512A"/>
<path d="M93.6555 139.92C93.6555 139.92 94.1719 139.733 95.0869 139.449C95.9977 139.164 97.2989 138.774 98.8808 138.363C99.6696 138.156 100.519 137.932 101.43 137.725C102.337 137.509 103.293 137.269 104.285 137.07C105.285 136.863 106.306 136.619 107.355 136.432C108.404 136.232 109.465 136.029 110.531 135.83C111.6 135.651 112.666 135.472 113.719 135.297C114.772 135.122 115.813 134.996 116.817 134.846C118.83 134.569 120.721 134.354 122.343 134.211C123.966 134.053 125.328 133.971 126.28 133.927C127.235 133.882 127.784 133.878 127.784 133.878C127.784 133.878 127.268 134.069 126.353 134.354C125.442 134.638 124.137 135.029 122.559 135.439C120.985 135.862 119.135 136.305 117.151 136.732C116.155 136.94 115.13 137.18 114.085 137.375C113.036 137.57 111.974 137.773 110.905 137.969C109.84 138.148 108.77 138.322 107.717 138.497C106.668 138.676 105.623 138.798 104.618 138.949C103.614 139.099 102.634 139.205 101.711 139.315C100.788 139.432 99.9055 139.514 99.0963 139.591C97.4738 139.746 96.1116 139.827 95.1601 139.872C94.2045 139.916 93.6555 139.92 93.6555 139.92Z" fill="#3E512A"/>
<path d="M91.9926 138.705C91.9926 138.705 92.0129 138.286 92.0861 137.57C92.1552 136.846 92.2731 135.822 92.4724 134.606C92.6594 133.386 92.9319 131.979 93.249 130.482C93.5744 128.986 93.9647 127.4 94.3917 125.822C94.8268 124.249 95.2944 122.687 95.7742 121.232C96.2663 119.776 96.7461 118.426 97.2056 117.283C97.6529 116.136 98.0717 115.193 98.3767 114.538C98.6817 113.88 98.8809 113.514 98.8809 113.514C98.8809 113.514 98.8647 113.933 98.7955 114.652C98.7223 115.372 98.6044 116.401 98.4052 117.617C98.2222 118.832 97.9457 120.239 97.6285 121.74C97.2991 123.236 96.9087 124.822 96.4818 126.396C96.0508 127.969 95.5791 129.535 95.0992 130.991C94.6072 132.442 94.1274 133.792 93.6679 134.931C93.2206 136.082 92.8018 137.025 92.4968 137.68C92.1918 138.339 91.9926 138.705 91.9926 138.705Z" fill="#3E512A"/>
<path d="M109.551 126.717C109.551 126.717 110.067 126.53 110.978 126.245C111.893 125.961 113.199 125.57 114.776 125.16C115.565 124.952 116.415 124.729 117.326 124.521C118.233 124.306 119.188 124.066 120.184 123.867C121.177 123.659 122.201 123.415 123.25 123.228C124.296 123.029 125.361 122.826 126.426 122.626C127.496 122.447 128.561 122.269 129.614 122.094C130.667 121.919 131.708 121.793 132.713 121.642C134.726 121.366 136.617 121.15 138.239 121.008C139.861 120.849 141.22 120.768 142.175 120.723C143.131 120.679 143.68 120.674 143.68 120.674C143.68 120.674 143.163 120.866 142.248 121.15C141.338 121.435 140.032 121.825 138.455 122.236C136.881 122.659 135.035 123.102 133.046 123.533C132.05 123.736 131.029 123.976 129.98 124.172C128.931 124.367 127.866 124.57 126.804 124.765C125.735 124.94 124.666 125.119 123.612 125.294C122.563 125.473 121.518 125.595 120.514 125.745C119.509 125.896 118.529 126.005 117.606 126.111C116.679 126.229 115.801 126.31 114.992 126.388C113.369 126.542 112.007 126.624 111.052 126.668C110.1 126.713 109.551 126.717 109.551 126.717Z" fill="#3E512A"/>
<path d="M107.888 125.501C107.888 125.501 107.904 125.082 107.977 124.363C108.05 123.643 108.168 122.618 108.368 121.402C108.551 120.182 108.827 118.775 109.144 117.279C109.47 115.783 109.86 114.197 110.287 112.619C110.718 111.045 111.19 109.48 111.67 108.028C112.157 106.572 112.637 105.222 113.101 104.08C113.544 102.933 113.967 101.99 114.272 101.335C114.577 100.676 114.776 100.31 114.776 100.31C114.776 100.31 114.76 100.729 114.687 101.449C114.614 102.168 114.5 103.197 114.3 104.413C114.113 105.629 113.841 107.036 113.524 108.536C113.198 110.033 112.804 111.619 112.377 113.192C111.946 114.766 111.474 116.332 110.994 117.783C110.502 119.239 110.023 120.589 109.563 121.732C109.116 122.878 108.697 123.822 108.392 124.476C108.087 125.135 107.888 125.501 107.888 125.501Z" fill="#3E512A"/>
<path d="M123.511 113.514C123.511 113.514 125.023 112.977 127.333 112.375C128.484 112.066 129.834 111.745 131.29 111.428C132.013 111.281 132.766 111.102 133.53 110.964C134.299 110.818 135.075 110.671 135.852 110.525C136.633 110.395 137.417 110.265 138.186 110.135C138.955 110.004 139.715 109.915 140.451 109.805C141.923 109.602 143.301 109.443 144.489 109.338C146.864 109.11 148.47 109.098 148.47 109.098C148.47 109.098 146.953 109.638 144.647 110.236C143.497 110.545 142.147 110.871 140.695 111.184C139.967 111.334 139.219 111.513 138.45 111.647C137.686 111.794 136.909 111.94 136.128 112.086C135.348 112.217 134.567 112.343 133.794 112.473C133.026 112.603 132.265 112.696 131.529 112.802C130.057 113.005 128.679 113.164 127.492 113.27C125.117 113.497 123.511 113.514 123.511 113.514Z" fill="#3E512A"/>
<path d="M122.299 112.627C122.299 112.627 122.356 111.403 122.649 109.626C122.787 108.736 122.978 107.707 123.218 106.613C123.348 106.068 123.458 105.499 123.612 104.93C123.755 104.36 123.905 103.783 124.056 103.205C124.218 102.632 124.385 102.059 124.548 101.494C124.702 100.928 124.901 100.379 125.068 99.8467C125.418 98.7854 125.772 97.7973 126.109 96.9596C126.764 95.2843 127.333 94.2026 127.333 94.2026C127.333 94.2026 127.276 95.4266 126.987 97.2036C126.849 98.0941 126.654 99.1229 126.414 100.221C126.288 100.762 126.178 101.331 126.024 101.9C125.877 102.469 125.727 103.047 125.576 103.624C125.414 104.198 125.247 104.771 125.084 105.336C124.926 105.901 124.727 106.446 124.564 106.983C124.21 108.048 123.856 109.033 123.519 109.866C122.868 111.546 122.299 112.627 122.299 112.627Z" fill="#3E512A"/>
<path d="M1.11819 114.506C1.11819 114.506 74.2268 113.249 73.934 190.172C73.934 190.172 -2.06574 196.906 1.11819 114.506Z" fill="#5E783C"/>
<path d="M5.83508 118.434C5.83508 118.434 72.8726 183.65 73.9339 190.172C73.9339 190.172 36.1211 157.886 5.83508 118.434Z" fill="#3E512A"/>
<path d="M57.7174 173.647C57.7174 173.647 57.1685 173.61 56.221 173.5C55.2695 173.394 53.9154 173.224 52.3092 172.963C51.5041 172.833 50.6298 172.699 49.7149 172.52C48.8 172.349 47.8281 172.183 46.8359 171.963C45.8437 171.752 44.8109 171.565 43.774 171.312C42.7371 171.068 41.6798 170.824 40.6266 170.58C39.5775 170.312 38.5244 170.044 37.4956 169.779C36.4587 169.515 35.4543 169.21 34.4743 168.942C32.5225 168.385 30.7048 167.819 29.1637 167.295C27.6144 166.787 26.3376 166.307 25.443 165.965C24.5524 165.624 24.0482 165.404 24.0482 165.404C24.0482 165.404 24.5972 165.441 25.5446 165.546C26.4961 165.656 27.8462 165.823 29.4605 166.083C31.0667 166.335 32.9372 166.669 34.9297 167.079C35.9219 167.295 36.9548 167.486 37.9917 167.73C39.0286 167.974 40.0858 168.222 41.139 168.47C42.1881 168.738 43.2372 169.011 44.2701 169.275C45.307 169.531 46.3114 169.84 47.2914 170.109C48.2713 170.377 49.2107 170.678 50.0971 170.946C50.9917 171.219 51.8294 171.495 52.6061 171.756C54.1513 172.268 55.4281 172.74 56.3186 173.081C57.2132 173.427 57.7174 173.647 57.7174 173.647Z" fill="#3E512A"/>
<path d="M59.4537 172.545C59.4537 172.545 59.2789 172.162 59.0187 171.487C58.7543 170.812 58.3965 169.845 58.0265 168.673C57.6402 167.498 57.2498 166.12 56.8554 164.64C56.4691 163.155 56.1031 161.566 55.7697 159.972C55.4443 158.369 55.1556 156.763 54.9279 155.246C54.7083 153.73 54.5254 152.311 54.4196 151.078C54.2976 149.854 54.2488 148.826 54.2204 148.098C54.2 147.374 54.2122 146.955 54.2122 146.955C54.2122 146.955 54.3871 147.337 54.6433 148.012C54.9076 148.687 55.2654 149.655 55.6395 150.83C56.0218 152.002 56.4162 153.376 56.8106 154.856C57.1929 156.34 57.5629 157.93 57.8923 159.532C58.2176 161.13 58.5022 162.737 58.734 164.257C58.9495 165.774 59.1325 167.193 59.2423 168.421C59.3602 169.645 59.4131 170.678 59.4375 171.402C59.4619 172.126 59.4537 172.545 59.4537 172.545Z" fill="#3E512A"/>
<path d="M42.7085 159.439C42.7085 159.439 42.1595 159.402 41.208 159.292C40.2606 159.187 38.9105 159.016 37.3003 158.752C36.4951 158.626 35.6249 158.487 34.71 158.312C33.791 158.142 32.8232 157.975 31.8311 157.755C30.8348 157.544 29.802 157.353 28.7691 157.101C27.7281 156.861 26.6709 156.617 25.6177 156.373C24.5686 156.104 23.5195 155.832 22.4826 155.572C21.4538 155.307 20.4453 155.002 19.4653 154.734C17.5135 154.173 15.6999 153.612 14.1547 153.087C12.6054 152.579 11.3286 152.099 10.4381 151.757C9.54349 151.416 9.04333 151.192 9.04333 151.192C9.04333 151.192 9.58822 151.229 10.5397 151.339C11.4872 151.444 12.8413 151.611 14.4475 151.871C16.0618 152.123 17.9323 152.461 19.9167 152.872C20.913 153.083 21.9458 153.278 22.9827 153.522C24.0237 153.762 25.0769 154.014 26.1301 154.258C27.1792 154.527 28.2283 154.799 29.2611 155.067C30.298 155.324 31.3024 155.633 32.2824 155.901C33.2624 156.169 34.1977 156.466 35.0922 156.739C35.9828 157.007 36.8204 157.288 37.593 157.548C39.1423 158.056 40.4232 158.532 41.3137 158.874C42.2043 159.215 42.7085 159.439 42.7085 159.439Z" fill="#3E512A"/>
<path d="M44.4448 158.337C44.4448 158.337 44.27 157.955 44.0097 157.275C43.7454 156.605 43.3876 155.637 43.0175 154.462C42.6312 153.29 42.2409 151.912 41.8464 150.432C41.4601 148.948 41.0901 147.358 40.7607 145.76C40.4354 144.162 40.1467 142.555 39.9149 141.039C39.6994 139.518 39.5164 138.099 39.4107 136.871C39.2887 135.647 39.2399 134.614 39.2155 133.89C39.1871 133.166 39.1993 132.747 39.1993 132.747C39.1993 132.747 39.3741 133.13 39.6384 133.805C39.8987 134.48 40.2606 135.443 40.6306 136.619C41.0169 137.794 41.4073 139.168 41.8017 140.648C42.188 142.132 42.554 143.722 42.8833 145.32C43.2087 146.923 43.4974 148.529 43.7251 150.046C43.9447 151.562 44.1236 152.981 44.2334 154.209C44.3554 155.438 44.4042 156.466 44.4286 157.194C44.457 157.918 44.4448 158.337 44.4448 158.337Z" fill="#3E512A"/>
<path d="M29.6272 145.353C29.6272 145.353 28.0291 145.239 25.6747 144.857C24.4955 144.67 23.1292 144.426 21.6735 144.125C20.9497 143.971 20.1933 143.832 19.437 143.645C18.6766 143.47 17.904 143.291 17.1314 143.113C16.3628 142.917 15.5984 142.718 14.842 142.523C14.0857 142.34 13.3497 142.108 12.634 141.913C11.2067 141.506 9.87704 141.092 8.75067 140.709C6.48572 139.961 5.00964 139.327 5.00964 139.327C5.00964 139.327 6.61178 139.441 8.96212 139.823C10.1454 140.006 11.5076 140.254 12.9634 140.551C13.6913 140.709 14.4476 140.848 15.2039 141.035C15.9643 141.209 16.7329 141.388 17.5095 141.567C18.274 141.767 19.0426 141.962 19.7989 142.157C20.5552 142.348 21.2872 142.572 22.0028 142.767C23.4342 143.178 24.7598 143.588 25.8862 143.971C28.1552 144.719 29.6272 145.357 29.6272 145.353Z" fill="#3E512A"/>
<path d="M30.9 144.548C30.9 144.548 30.3998 143.434 29.855 141.714C29.5744 140.86 29.2816 139.851 29.0051 138.77C28.8668 138.225 28.7123 137.668 28.5903 137.094C28.4643 136.517 28.3342 135.935 28.204 135.35C28.0942 134.764 27.9844 134.179 27.8706 133.601C27.7567 133.028 27.6876 132.451 27.5941 131.898C27.4192 130.792 27.2972 129.751 27.2159 128.852C27.0411 127.059 27.0614 125.835 27.0614 125.835C27.0614 125.835 27.5656 126.953 28.1064 128.669C28.387 129.527 28.6798 130.531 28.9604 131.617C29.0905 132.162 29.2531 132.719 29.3711 133.292C29.4971 133.87 29.6272 134.447 29.7574 135.033C29.8672 135.622 29.977 136.208 30.0867 136.785C30.2006 137.359 30.2738 137.936 30.3633 138.489C30.5381 139.595 30.6642 140.632 30.7414 141.535C30.9163 143.328 30.9 144.548 30.9 144.548Z" fill="#3E512A"/>
</svg>
