<svg width="322" height="113" viewBox="0 0 322 113" fill="none" xmlns="http://www.w3.org/2000/svg">
<g clip-path="url(#clip0_123_492)">
<ellipse cx="25.5" cy="84" rx="25.5" ry="23" fill="#0CBC8B"/>
<ellipse cx="257.824" cy="28.132" rx="25.5" ry="23" transform="rotate(94.2436 257.824 28.132)" fill="#0CBC8B"/>
<ellipse cx="50.5" cy="46" rx="25.5" ry="23" fill="#16573F"/>
<ellipse cx="296.824" cy="83.132" rx="25.5" ry="23" transform="rotate(94.2436 296.824 83.132)" fill="#16573F"/>
<ellipse cx="50.5" cy="65" rx="25.5" ry="23" fill="#5E783C"/>
<ellipse cx="263.824" cy="73.132" rx="25.5" ry="23" transform="rotate(94.2436 263.824 73.132)" fill="#5E783C"/>
<path d="M201.778 -0.856491H123.588C120.996 -0.856491 118.894 1.1915 118.894 3.71782V63.6711C118.894 66.1974 120.996 68.2454 123.588 68.2454H201.778C204.371 68.2454 206.473 66.1974 206.473 63.6711V3.71782C206.473 1.1915 204.371 -0.856491 201.778 -0.856491Z" fill="white"/>
<path d="M201.778 68.389H123.588C122.305 68.3877 121.074 67.8902 120.166 67.0056C119.258 66.1211 118.748 64.9218 118.746 63.6709V3.71809C118.748 2.46719 119.258 1.26791 120.166 0.38339C121.074 -0.50113 122.305 -0.998647 123.588 -1L201.778 -1C203.062 -0.998612 204.293 -0.501084 205.201 0.383428C206.108 1.26794 206.619 2.4672 206.62 3.71809V63.6711C206.619 64.9219 206.108 66.1212 205.2 67.0057C204.293 67.8901 203.062 68.3876 201.778 68.389ZM123.588 -0.712852C122.383 -0.711499 121.227 -0.244231 120.374 0.586442C119.522 1.41711 119.042 2.54336 119.041 3.71809V63.6711C119.042 64.8458 119.522 65.972 120.374 66.8026C121.227 67.6333 122.383 68.1005 123.588 68.1019H201.778C202.984 68.1006 204.14 67.6333 204.992 66.8027C205.845 65.972 206.324 64.8458 206.326 63.6711V3.71809C206.324 2.54335 205.845 1.41708 204.992 0.586404C204.14 -0.244277 202.984 -0.711534 201.778 -0.712852H123.588Z" fill="#292A2E"/>
<path opacity="0.2" d="M199.609 11.5661H194.808C193.796 11.5661 192.976 12.3654 192.976 13.3514V18.0292C192.976 19.0152 193.796 19.8145 194.808 19.8145H199.609C200.621 19.8145 201.441 19.0152 201.441 18.0292V13.3514C201.441 12.3654 200.621 11.5661 199.609 11.5661Z" fill="#5E783C"/>
<path opacity="0.2" d="M199.758 21.9848H194.994C193.972 21.9848 193.143 22.7921 193.143 23.788V28.43C193.143 29.4259 193.972 30.2332 194.994 30.2332H199.758C200.78 30.2332 201.608 29.4259 201.608 28.43V23.788C201.608 22.7921 200.78 21.9848 199.758 21.9848Z" fill="#5E783C"/>
<path opacity="0.2" d="M199.758 33.5887H194.994C193.972 33.5887 193.143 34.396 193.143 35.3919V40.0338C193.143 41.0297 193.972 41.8371 194.994 41.8371H199.758C200.78 41.8371 201.608 41.0297 201.608 40.0338V35.3919C201.608 34.396 200.78 33.5887 199.758 33.5887Z" fill="#5E783C"/>
<path opacity="0.2" d="M199.59 44.5989H194.826C193.804 44.5989 192.976 45.4062 192.976 46.4021V51.044C192.976 52.0399 193.804 52.8473 194.826 52.8473H199.59C200.612 52.8473 201.441 52.0399 201.441 51.044V46.4021C201.441 45.4062 200.612 44.5989 199.59 44.5989Z" fill="#5E783C"/>
<g opacity="0.15">
<path d="M165.089 11.5661H160.288C159.276 11.5661 158.456 12.3654 158.456 13.3514V18.0292C158.456 19.0152 159.276 19.8145 160.288 19.8145H165.089C166.101 19.8145 166.921 19.0152 166.921 18.0292V13.3514C166.921 12.3654 166.101 11.5661 165.089 11.5661Z" fill="#5E783C"/>
<path d="M153.583 11.5661H148.782C147.77 11.5661 146.949 12.3654 146.949 13.3514V18.0292C146.949 19.0152 147.77 19.8145 148.782 19.8145H153.583C154.594 19.8145 155.415 19.0152 155.415 18.0292V13.3514C155.415 12.3654 154.594 11.5661 153.583 11.5661Z" fill="#5E783C"/>
<path d="M142.243 11.5661H137.442C136.43 11.5661 135.61 12.3654 135.61 13.3514V18.0292C135.61 19.0152 136.43 19.8145 137.442 19.8145H142.243C143.255 19.8145 144.076 19.0152 144.076 18.0292V13.3514C144.076 12.3654 143.255 11.5661 142.243 11.5661Z" fill="#5E783C"/>
<path d="M130.737 11.5661H125.936C124.924 11.5661 124.104 12.3654 124.104 13.3514V18.0292C124.104 19.0152 124.924 19.8145 125.936 19.8145H130.737C131.749 19.8145 132.569 19.0152 132.569 18.0292V13.3514C132.569 12.3654 131.749 11.5661 130.737 11.5661Z" fill="#5E783C"/>
<path d="M176.596 11.5661H171.795C170.783 11.5661 169.962 12.3654 169.962 13.3514V18.0292C169.962 19.0152 170.783 19.8145 171.795 19.8145H176.596C177.608 19.8145 178.428 19.0152 178.428 18.0292V13.3514C178.428 12.3654 177.608 11.5661 176.596 11.5661Z" fill="#5E783C"/>
<path d="M188.102 11.5661H183.301C182.289 11.5661 181.469 12.3654 181.469 13.3514V18.0292C181.469 19.0152 182.289 19.8145 183.301 19.8145H188.102C189.114 19.8145 189.934 19.0152 189.934 18.0292V13.3514C189.934 12.3654 189.114 11.5661 188.102 11.5661Z" fill="#5E783C"/>
<path d="M165.238 21.9848H160.474C159.452 21.9848 158.623 22.7921 158.623 23.788V28.43C158.623 29.4259 159.452 30.2332 160.474 30.2332H165.238C166.26 30.2332 167.089 29.4259 167.089 28.43V23.788C167.089 22.7921 166.26 21.9848 165.238 21.9848Z" fill="#5E783C"/>
<path d="M176.745 21.9848H171.981C170.958 21.9848 170.13 22.7921 170.13 23.788V28.43C170.13 29.4259 170.958 30.2332 171.981 30.2332H176.745C177.767 30.2332 178.595 29.4259 178.595 28.43V23.788C178.595 22.7921 177.767 21.9848 176.745 21.9848Z" fill="#5E783C"/>
<path d="M188.251 21.9848H183.487C182.465 21.9848 181.636 22.7921 181.636 23.788V28.43C181.636 29.4259 182.465 30.2332 183.487 30.2332H188.251C189.273 30.2332 190.102 29.4259 190.102 28.43V23.788C190.102 22.7921 189.273 21.9848 188.251 21.9848Z" fill="#5E783C"/>
<path d="M130.718 21.9848H125.954C124.932 21.9848 124.104 22.7921 124.104 23.788V28.43C124.104 29.4259 124.932 30.2332 125.954 30.2332H130.718C131.74 30.2332 132.569 29.4259 132.569 28.43V23.788C132.569 22.7921 131.74 21.9848 130.718 21.9848Z" fill="#5E783C"/>
<path d="M142.225 21.9848H137.461C136.439 21.9848 135.61 22.7921 135.61 23.788V28.43C135.61 29.4259 136.439 30.2332 137.461 30.2332H142.225C143.247 30.2332 144.076 29.4259 144.076 28.43V23.788C144.076 22.7921 143.247 21.9848 142.225 21.9848Z" fill="#5E783C"/>
<path d="M153.731 21.9848H148.967C147.945 21.9848 147.117 22.7921 147.117 23.788V28.43C147.117 29.4259 147.945 30.2332 148.967 30.2332H153.731C154.753 30.2332 155.582 29.4259 155.582 28.43V23.788C155.582 22.7921 154.753 21.9848 153.731 21.9848Z" fill="#5E783C"/>
<path d="M165.238 33.5887H160.474C159.452 33.5887 158.623 34.396 158.623 35.3919V40.0338C158.623 41.0297 159.452 41.8371 160.474 41.8371H165.238C166.26 41.8371 167.089 41.0297 167.089 40.0338V35.3919C167.089 34.396 166.26 33.5887 165.238 33.5887Z" fill="#5E783C"/>
<path d="M176.745 33.5887H171.981C170.958 33.5887 170.13 34.396 170.13 35.3919V40.0338C170.13 41.0297 170.958 41.8371 171.981 41.8371H176.745C177.767 41.8371 178.595 41.0297 178.595 40.0338V35.3919C178.595 34.396 177.767 33.5887 176.745 33.5887Z" fill="#5E783C"/>
<path d="M188.251 33.5887H183.487C182.465 33.5887 181.636 34.396 181.636 35.3919V40.0338C181.636 41.0297 182.465 41.8371 183.487 41.8371H188.251C189.273 41.8371 190.102 41.0297 190.102 40.0338V35.3919C190.102 34.396 189.273 33.5887 188.251 33.5887Z" fill="#5E783C"/>
<path d="M130.718 33.5887H125.954C124.932 33.5887 124.104 34.396 124.104 35.3919V40.0338C124.104 41.0297 124.932 41.8371 125.954 41.8371H130.718C131.74 41.8371 132.569 41.0297 132.569 40.0338V35.3919C132.569 34.396 131.74 33.5887 130.718 33.5887Z" fill="#5E783C"/>
<path d="M142.225 33.5887H137.461C136.439 33.5887 135.61 34.396 135.61 35.3919V40.0338C135.61 41.0297 136.439 41.8371 137.461 41.8371H142.225C143.247 41.8371 144.076 41.0297 144.076 40.0338V35.3919C144.076 34.396 143.247 33.5887 142.225 33.5887Z" fill="#5E783C"/>
<path d="M153.731 33.5887H148.967C147.945 33.5887 147.117 34.396 147.117 35.3919V40.0338C147.117 41.0297 147.945 41.8371 148.967 41.8371H153.731C154.753 41.8371 155.582 41.0297 155.582 40.0338V35.3919C155.582 34.396 154.753 33.5887 153.731 33.5887Z" fill="#5E783C"/>
<path d="M165.238 44.7619H160.474C159.452 44.7619 158.623 45.5692 158.623 46.5651V51.2071C158.623 52.203 159.452 53.0103 160.474 53.0103H165.238C166.26 53.0103 167.089 52.203 167.089 51.2071V46.5651C167.089 45.5692 166.26 44.7619 165.238 44.7619Z" fill="#5E783C"/>
<path d="M176.577 44.5989H171.813C170.791 44.5989 169.962 45.4062 169.962 46.4021V51.044C169.962 52.0399 170.791 52.8473 171.813 52.8473H176.577C177.599 52.8473 178.428 52.0399 178.428 51.044V46.4021C178.428 45.4062 177.599 44.5989 176.577 44.5989Z" fill="#5E783C"/>
<path d="M188.084 44.5989H183.32C182.298 44.5989 181.469 45.4062 181.469 46.4021V51.044C181.469 52.0399 182.298 52.8473 183.32 52.8473H188.084C189.106 52.8473 189.934 52.0399 189.934 51.044V46.4021C189.934 45.4062 189.106 44.5989 188.084 44.5989Z" fill="#5E783C"/>
<path d="M130.718 44.7619H125.954C124.932 44.7619 124.104 45.5692 124.104 46.5651V51.2071C124.104 52.203 124.932 53.0103 125.954 53.0103H130.718C131.74 53.0103 132.569 52.203 132.569 51.2071V46.5651C132.569 45.5692 131.74 44.7619 130.718 44.7619Z" fill="#5E783C"/>
<path d="M142.225 44.7619H137.461C136.439 44.7619 135.61 45.5692 135.61 46.5651V51.2071C135.61 52.203 136.439 53.0103 137.461 53.0103H142.225C143.247 53.0103 144.076 52.203 144.076 51.2071V46.5651C144.076 45.5692 143.247 44.7619 142.225 44.7619Z" fill="#5E783C"/>
<path d="M153.731 44.7619H148.967C147.945 44.7619 147.117 45.5692 147.117 46.5651V51.2071C147.117 52.203 147.945 53.0103 148.967 53.0103H153.731C154.753 53.0103 155.582 52.203 155.582 51.2071V46.5651C155.582 45.5692 154.753 44.7619 153.731 44.7619Z" fill="#5E783C"/>
<path d="M165.071 54.8823H160.307C159.285 54.8823 158.456 55.6897 158.456 56.6856V61.3275C158.456 62.3234 159.285 63.1307 160.307 63.1307H165.071C166.093 63.1307 166.921 62.3234 166.921 61.3275V56.6856C166.921 55.6897 166.093 54.8823 165.071 54.8823Z" fill="#5E783C"/>
<path d="M130.551 54.8823H125.787C124.765 54.8823 123.936 55.6897 123.936 56.6856V61.3275C123.936 62.3234 124.765 63.1307 125.787 63.1307H130.551C131.573 63.1307 132.402 62.3234 132.402 61.3275V56.6856C132.402 55.6897 131.573 54.8823 130.551 54.8823Z" fill="#5E783C"/>
<path d="M142.057 54.8823H137.293C136.271 54.8823 135.443 55.6897 135.443 56.6856V61.3275C135.443 62.3234 136.271 63.1307 137.293 63.1307H142.057C143.08 63.1307 143.908 62.3234 143.908 61.3275V56.6856C143.908 55.6897 143.08 54.8823 142.057 54.8823Z" fill="#5E783C"/>
<path d="M153.564 54.8823H148.8C147.778 54.8823 146.949 55.6897 146.949 56.6856V61.3275C146.949 62.3234 147.778 63.1307 148.8 63.1307H153.564C154.586 63.1307 155.415 62.3234 155.415 61.3275V56.6856C155.415 55.6897 154.586 54.8823 153.564 54.8823Z" fill="#5E783C"/>
</g>
<path d="M206.473 3.71809V6.65077H118.894V3.71809C118.894 3.11732 119.015 2.5224 119.251 1.96732C119.487 1.41223 119.833 0.907854 120.269 0.482987C120.704 0.0581202 121.222 -0.27891 121.792 -0.508853C122.361 -0.738796 122.972 -0.857147 123.588 -0.857147H201.778C202.395 -0.857078 203.005 -0.738682 203.575 -0.508718C204.145 -0.278753 204.662 0.0582749 205.098 0.483125C205.534 0.907974 205.88 1.41233 206.116 1.96738C206.351 2.52244 206.473 3.11733 206.473 3.71809Z" fill="#292A2E"/>
<path d="M153.457 55.7948H148.907C148.343 55.7948 147.886 56.2402 147.886 56.7896V61.2234C147.886 61.7729 148.343 62.2183 148.907 62.2183H153.457C154.021 62.2183 154.478 61.7729 154.478 61.2234V56.7896C154.478 56.2402 154.021 55.7948 153.457 55.7948Z" fill="white"/>
<path d="M130.22 42.2415L124.602 41.251C124.442 41.2229 124.301 41.1343 124.209 41.0047C124.117 40.8752 124.081 40.7152 124.11 40.5601L124.979 35.8825L126.708 34.7606L131.454 35.5975C131.613 35.6256 131.754 35.7142 131.846 35.8437C131.939 35.9733 131.974 36.1332 131.945 36.2883L130.929 41.7624C130.914 41.8392 130.885 41.9125 130.841 41.9782C130.798 42.0439 130.742 42.1006 130.676 42.1451C130.61 42.1896 130.536 42.221 130.458 42.2375C130.379 42.2541 130.299 42.2554 130.22 42.2415Z" fill="#5E783C"/>
<path opacity="0.29" d="M126.708 34.7606L124.979 35.8825L126.455 36.1678L126.708 34.7606Z" fill="#FFFFFA"/>
<g opacity="0.88">
<path d="M130.659 39.0499C130.653 39.05 130.647 39.0496 130.642 39.0486L125.385 38.1013C125.363 38.0973 125.343 38.0848 125.33 38.0667C125.317 38.0486 125.313 38.0263 125.317 38.0046C125.321 37.983 125.333 37.9638 125.352 37.9513C125.371 37.9389 125.394 37.9341 125.416 37.9381L130.673 38.8854C130.694 38.8892 130.712 38.9002 130.725 38.9165C130.738 38.9328 130.744 38.9531 130.742 38.9735C130.74 38.994 130.731 39.0131 130.716 39.0271C130.7 39.0412 130.68 39.0493 130.659 39.0499H130.659Z" fill="white"/>
<path d="M130.47 40.1243C130.465 40.1244 130.459 40.1239 130.453 40.123L125.196 39.1757C125.185 39.1741 125.174 39.1703 125.164 39.1645C125.155 39.1586 125.146 39.151 125.139 39.1419C125.133 39.1328 125.128 39.1225 125.125 39.1116C125.123 39.1007 125.123 39.0894 125.125 39.0784C125.127 39.0674 125.131 39.0569 125.138 39.0476C125.144 39.0383 125.152 39.0303 125.162 39.0241C125.171 39.0179 125.182 39.0137 125.193 39.0117C125.205 39.0097 125.216 39.0099 125.227 39.0124L130.484 39.9597C130.505 39.9633 130.524 39.9743 130.537 39.9907C130.55 40.007 130.556 40.0274 130.554 40.0479C130.552 40.0685 130.543 40.0877 130.528 40.1018C130.512 40.1159 130.492 40.1239 130.471 40.1243H130.47Z" fill="white"/>
<path d="M127.386 40.5614C127.38 40.5615 127.375 40.5611 127.369 40.56L125.037 40.1399C125.026 40.1383 125.015 40.1345 125.005 40.1286C124.995 40.1228 124.987 40.1152 124.98 40.1061C124.974 40.097 124.969 40.0867 124.966 40.0758C124.964 40.0648 124.964 40.0536 124.966 40.0426C124.968 40.0316 124.972 40.0211 124.978 40.0118C124.985 40.0024 124.993 39.9945 125.003 39.9883C125.012 39.9821 125.023 39.9779 125.034 39.9759C125.045 39.9739 125.057 39.9741 125.068 39.9766L127.4 40.3969C127.421 40.4006 127.439 40.4117 127.452 40.428C127.465 40.4443 127.471 40.4646 127.469 40.485C127.468 40.5054 127.458 40.5245 127.443 40.5386C127.428 40.5527 127.408 40.5608 127.387 40.5614H127.386Z" fill="white"/>
</g>
<path d="M130.684 38.1768C130.663 38.1767 130.642 38.1749 130.622 38.1713L129.484 37.9692C129.439 37.9612 129.397 37.9447 129.358 37.9206C129.32 37.8964 129.287 37.8652 129.261 37.8285C129.235 37.7919 129.217 37.7507 129.208 37.7072C129.198 37.6638 129.198 37.6189 129.206 37.5752L129.397 36.3983C129.414 36.311 129.465 36.2336 129.54 36.1827C129.614 36.1317 129.706 36.1114 129.796 36.1261L130.937 36.3161C130.982 36.3236 131.026 36.3398 131.065 36.3637C131.103 36.3876 131.137 36.4188 131.163 36.4555C131.189 36.4921 131.208 36.5335 131.218 36.5772C131.227 36.621 131.228 36.6661 131.22 36.7101L131.025 37.9C131.01 37.9776 130.968 38.0478 130.906 38.0983C130.843 38.1488 130.765 38.1766 130.684 38.1768ZM129.738 36.2523C129.689 36.2525 129.641 36.2693 129.603 36.3C129.565 36.3307 129.539 36.3733 129.53 36.4206L129.339 37.5975C129.333 37.6243 129.333 37.6519 129.339 37.6787C129.345 37.7055 129.356 37.7309 129.371 37.7535C129.387 37.7761 129.408 37.7954 129.431 37.8103C129.455 37.8252 129.481 37.8354 129.509 37.8403L130.646 38.0424C130.701 38.0519 130.758 38.0398 130.804 38.009C130.85 37.9782 130.881 37.931 130.892 37.8776L131.087 36.6868C131.092 36.6599 131.092 36.6322 131.086 36.6054C131.08 36.5787 131.069 36.5533 131.053 36.5308C131.037 36.5083 131.016 36.4892 130.992 36.4745C130.969 36.4598 130.942 36.4499 130.914 36.4452L129.773 36.2552C129.762 36.2533 129.75 36.2523 129.738 36.2523Z" fill="white"/>
<path d="M149.829 61.1267C149.817 61.1267 149.805 61.1267 149.793 61.125C149.738 61.1202 149.685 61.1043 149.637 61.0783C149.589 61.0524 149.547 61.0169 149.514 60.9743L148.319 59.4428C148.255 59.3613 148.227 59.2586 148.241 59.1573C148.256 59.0559 148.311 58.9642 148.394 58.9023C148.478 58.8404 148.583 58.8133 148.687 58.8272C148.791 58.841 148.885 58.8945 148.949 58.9759L149.882 60.1716L153.462 56.9869C153.501 56.9527 153.546 56.9263 153.595 56.909C153.643 56.8918 153.695 56.8841 153.747 56.8864C153.799 56.8888 153.85 56.901 153.897 56.9225C153.944 56.944 153.987 56.9743 154.022 57.0118C154.057 57.0492 154.084 57.093 154.102 57.1406C154.119 57.1882 154.127 57.2388 154.125 57.2894C154.122 57.34 154.11 57.3896 154.088 57.4355C154.066 57.4814 154.034 57.5226 153.996 57.5567L150.095 61.0254C150.023 61.0904 149.928 61.1265 149.829 61.1267Z" fill="#5E783C"/>
<path d="M201.882 16.937L197.146 20.0442C197.08 20.088 197.005 20.1185 196.927 20.134C196.848 20.1496 196.767 20.1499 196.688 20.135C196.61 20.12 196.535 20.0901 196.468 20.0468C196.401 20.0036 196.344 19.948 196.299 19.8832L193.574 15.9404L194.01 13.9614L198.011 11.3365C198.078 11.2928 198.152 11.2623 198.231 11.2468C198.309 11.2313 198.39 11.231 198.469 11.2459C198.548 11.2609 198.623 11.2908 198.69 11.334C198.756 11.3772 198.814 11.4327 198.859 11.4976L202.048 16.1117C202.092 16.1765 202.124 16.2492 202.139 16.3258C202.155 16.4023 202.156 16.4811 202.14 16.5578C202.125 16.6344 202.094 16.7073 202.05 16.7724C202.006 16.8375 201.948 16.8934 201.882 16.937Z" fill="#0CBC8B"/>
<path opacity="0.29" d="M194.011 13.9613L193.574 15.9404L194.837 15.1415L194.011 13.9613Z" fill="#FFFFFA"/>
<g opacity="0.88">
<path d="M199.913 14.3509C199.908 14.3549 199.904 14.3585 199.899 14.3616L195.453 17.2545C195.435 17.2654 195.412 17.2689 195.391 17.2641C195.37 17.2594 195.351 17.2469 195.339 17.2292C195.327 17.2114 195.322 17.1899 195.326 17.1689C195.33 17.1479 195.342 17.1292 195.359 17.1165L199.805 14.2236C199.823 14.2123 199.844 14.2077 199.865 14.2108C199.885 14.2139 199.904 14.2243 199.918 14.2401C199.931 14.2559 199.938 14.276 199.937 14.2965C199.936 14.3169 199.927 14.3363 199.913 14.3509H199.913Z" fill="white"/>
<path d="M200.546 15.2491C200.542 15.2531 200.538 15.2566 200.533 15.2597L196.087 18.1527C196.068 18.1636 196.046 18.167 196.025 18.1623C196.003 18.1576 195.985 18.1451 195.973 18.1273C195.961 18.1096 195.956 18.088 195.96 18.067C195.963 18.0461 195.975 18.0273 195.993 18.0147L200.439 15.1217C200.456 15.1104 200.478 15.1059 200.498 15.1089C200.519 15.112 200.538 15.1224 200.551 15.1383C200.565 15.1541 200.572 15.1741 200.571 15.1946C200.57 15.2151 200.561 15.2345 200.546 15.2491Z" fill="white"/>
<path d="M198.649 17.6581C198.644 17.662 198.64 17.6656 198.635 17.6687L196.664 18.9519C196.655 18.9585 196.644 18.9633 196.633 18.9659C196.622 18.9685 196.61 18.9688 196.599 18.9668C196.587 18.9649 196.576 18.9607 196.567 18.9546C196.557 18.9484 196.549 18.9404 196.542 18.9311C196.536 18.9217 196.532 18.9112 196.53 18.9001C196.528 18.8891 196.528 18.8777 196.53 18.8667C196.533 18.8558 196.538 18.8454 196.544 18.8364C196.551 18.8273 196.56 18.8196 196.57 18.8139L198.542 17.5307C198.559 17.5194 198.581 17.5149 198.601 17.5179C198.622 17.521 198.641 17.5314 198.654 17.5472C198.668 17.563 198.675 17.5831 198.674 17.6036C198.673 17.624 198.664 17.6434 198.649 17.6581H198.649Z" fill="white"/>
</g>
<path d="M202.967 112H115.481C115.456 112 115.432 111.99 115.415 111.973C115.397 111.956 115.387 111.933 115.387 111.908C115.387 111.884 115.397 111.861 115.415 111.843C115.432 111.826 115.456 111.817 115.481 111.817H202.967C202.992 111.817 203.016 111.826 203.033 111.843C203.051 111.861 203.061 111.884 203.061 111.908C203.061 111.933 203.051 111.956 203.033 111.973C203.016 111.99 202.992 112 202.967 112Z" fill="#292A2E"/>
<path d="M187.028 106.211C187.028 106.211 186.42 109.278 183.473 109.449C180.525 109.621 181.164 111.908 181.164 111.908H192.428V106.425L187.028 106.211Z" fill="#5E783C"/>
<path d="M190.502 50.2583C190.502 50.2583 190.466 49.3363 190.474 51.4279C190.502 59.2296 190.91 68.1411 191.249 73.3559C191.795 81.7389 192.925 108.169 192.925 108.169L184.985 108.108L178.35 49.9414L190.502 50.2583Z" fill="#16573F"/>
<path d="M181.986 59.561C181.986 59.561 181.679 65.2227 181.622 66.5519C181.491 69.6258 181.373 72.8285 181.373 76.4369L180.279 66.9572C180.279 66.9572 181.132 63.9926 181.986 59.561Z" fill="#16573F"/>
<path d="M172.507 106.211C172.507 106.211 171.899 109.278 168.952 109.449C166.004 109.621 166.644 111.908 166.644 111.908H177.907V106.425L172.507 106.211Z" fill="#5E783C"/>
<path d="M170.267 50.8642C170.267 50.8642 169.477 77.7909 169.574 79.0941L170.712 107.966L178.798 108.097L179.434 77.7789C179.434 77.7789 179.531 69.4153 181.604 61.6491C182.666 57.6633 183.304 53.5818 183.51 49.469L170.267 50.8642Z" fill="#16573F"/>
<path d="M190.582 50.2575L190.606 50.2589C190.606 50.2589 190.589 49.8041 190.582 50.2575Z" fill="#333333"/>
<path d="M175.216 27.3202C175.24 27.3172 175.506 31.622 180.639 31.2467C184.192 30.9873 185.46 27.314 185.54 27.314C185.157 27.2354 184.512 27.1194 184.342 27.0309C183.782 26.738 182.985 26.4332 182.805 25.3745C182.701 24.7643 182.878 21.6426 182.823 21.0252L177.474 22.2114C177.55 23.5153 178.083 26.538 176.214 27.0737C175.903 27.1615 175.568 27.243 175.216 27.3202Z" fill="#E98862"/>
<path d="M177.624 24.245C179.778 24.407 182.543 23.5165 183.064 20.7158L183.534 18.1887C184.054 15.3881 182.967 12.8514 180.26 12.3738C177.554 11.8961 175.109 13.8096 174.588 16.6101L174.381 17.7288C174.316 18.1142 174.278 18.5034 174.268 18.8937C174.233 19.9251 174.185 21.4939 174.708 22.6461C175.203 23.734 176.248 24.1416 177.624 24.245Z" fill="#E98862"/>
<path d="M182.455 12.2303C181.6 11.9704 180.713 11.8234 179.818 11.7931C179.788 11.6407 179.721 11.4976 179.623 11.3757C179.525 11.2539 179.398 11.157 179.253 11.0932C178.779 10.9132 178.201 11.2032 177.817 11.7623C177.616 11.428 177.302 11.1721 176.929 11.0387C175.87 10.7174 175.817 12.2003 175.817 12.2003C175.817 12.2003 174.137 10.5851 174.085 12.6451C174.021 15.1376 174.491 15.8691 174.834 16.0526C175.511 16.4171 176.016 16.3553 176.284 16.8914C177.095 18.5149 176.3 23.0881 177.239 23.6606C178.678 24.5378 181.625 24.5681 182.582 24.5015C182.95 24.4753 183.295 24.06 183.449 23.7338C183.95 22.6802 185.067 20.2918 185.377 19.304C185.952 17.4819 185.909 13.3292 182.455 12.2303Z" fill="#0C0C0C"/>
<path d="M176.597 22.0275C177.428 21.9397 178.005 21.0023 177.915 20.1927C177.825 19.3832 177.101 19.0078 176.27 19.0958L175.903 19.6836L175.883 22.1033L176.597 22.0275Z" fill="#E98862"/>
<path d="M169.226 36.0632C169.378 37.8105 170.121 48.7115 170.267 50.8637H190.494C190.608 48.9226 191.121 40.4346 191.554 36.6388C191.968 33.0166 192.779 31.2032 192.184 30.1323C191.212 28.3821 188.557 27.3709 186.746 27.132C185.64 26.9861 183.976 26.8815 183.976 26.8815H176.188C175.449 26.8815 171.136 27.2207 170.182 27.936C168.516 29.1875 168.902 32.3608 169.226 36.0632Z" fill="#5E783C"/>
<path d="M168.946 33.8745C168.929 33.8746 168.913 33.8682 168.9 33.8567C168.888 33.8451 168.88 33.8294 168.879 33.8127L168.716 31.0382C168.715 31.0208 168.721 31.0038 168.733 30.9908C168.745 30.9778 168.761 30.97 168.779 30.969C168.797 30.9682 168.814 30.9742 168.828 30.9857C168.841 30.9972 168.849 31.0133 168.85 31.0306L169.013 33.8052C169.014 33.8138 169.013 33.8224 169.01 33.8305C169.007 33.8387 169.002 33.8462 168.996 33.8526C168.99 33.859 168.983 33.8643 168.975 33.868C168.967 33.8717 168.959 33.8739 168.95 33.8744L168.946 33.8745Z" fill="#0C0C0C"/>
<path d="M194.866 50.7499C195.461 50.7498 196.047 50.6097 196.575 50.3415C197.102 50.0732 197.555 49.6848 197.895 49.2093C198.235 48.7338 198.452 48.1852 198.528 47.6103C198.604 47.0354 198.536 46.4512 198.33 45.9073C198.122 45.3552 193.223 32.7156 192.29 30.3736L185.385 33.0996C185.909 34.4163 187.809 39.4075 189.335 43.4284L186.8 43.1598L186.001 50.3136L194.467 50.7287C194.599 50.7428 194.733 50.7499 194.866 50.7499Z" fill="#5E783C"/>
<path d="M190.925 36.7128L190.428 50.8624L190.563 50.8669L191.06 36.7173L190.925 36.7128Z" fill="#0C0C0C"/>
<path d="M154.444 21.6206L148.32 24.2522C148.188 24.3092 148.037 24.3125 147.902 24.2614C147.767 24.2104 147.658 24.1091 147.6 23.9799L145.332 18.9694L146.217 16.8652L151.302 14.6798C151.368 14.6516 151.438 14.6362 151.51 14.6346C151.582 14.6331 151.653 14.6453 151.72 14.6706C151.787 14.6958 151.848 14.7337 151.9 14.782C151.952 14.8303 151.994 14.8881 152.022 14.9521L154.723 20.9187C154.782 21.0479 154.785 21.1944 154.733 21.326C154.68 21.4577 154.576 21.5636 154.444 21.6206Z" fill="#0CBC8B"/>
<path opacity="0.29" d="M146.217 16.8654L145.332 18.9697L146.89 18.33L146.217 16.8654Z" fill="#FFFFFA"/>
<g opacity="0.88">
<path d="M152.199 17.4214C152.194 17.425 152.188 17.4281 152.182 17.4306L146.677 19.7718C146.654 19.7795 146.63 19.7785 146.607 19.7691C146.585 19.7597 146.568 19.7426 146.558 19.7211C146.548 19.6996 146.547 19.6753 146.555 19.6532C146.563 19.631 146.579 19.6125 146.6 19.6014L152.105 17.2602C152.127 17.2511 152.152 17.2502 152.174 17.2576C152.196 17.265 152.215 17.2802 152.227 17.3002C152.238 17.3203 152.242 17.3438 152.237 17.3663C152.231 17.3887 152.218 17.4085 152.199 17.4219V17.4214Z" fill="white"/>
<path d="M152.664 18.4359C152.659 18.4395 152.653 18.4426 152.648 18.4451L147.143 20.7863C147.12 20.7944 147.095 20.7937 147.072 20.7843C147.05 20.775 147.032 20.7578 147.022 20.7361C147.013 20.7144 147.012 20.6899 147.02 20.6676C147.028 20.6452 147.044 20.6268 147.066 20.6159L152.571 18.2747C152.593 18.2653 152.617 18.2641 152.64 18.2714C152.662 18.2787 152.681 18.2939 152.693 18.3142C152.705 18.3344 152.708 18.3581 152.703 18.3807C152.698 18.4033 152.684 18.4232 152.664 18.4364V18.4359Z" fill="white"/>
<path d="M153.182 19.5511C153.177 19.5547 153.172 19.5578 153.166 19.5602L147.661 21.9015C147.638 21.9095 147.613 21.9089 147.59 21.8995C147.568 21.8902 147.55 21.8729 147.541 21.8512C147.531 21.8295 147.53 21.8051 147.538 21.7827C147.546 21.7604 147.563 21.742 147.584 21.7311L153.089 19.3899C153.111 19.3804 153.135 19.3793 153.158 19.3865C153.181 19.3938 153.2 19.4091 153.211 19.4293C153.223 19.4496 153.227 19.4733 153.221 19.4959C153.216 19.5185 153.202 19.5384 153.182 19.5516V19.5511Z" fill="white"/>
<path d="M150.594 21.8489C150.589 21.8525 150.583 21.8556 150.577 21.8581L148.135 22.8965C148.113 22.9041 148.088 22.9032 148.066 22.8938C148.044 22.8844 148.026 22.8672 148.016 22.8458C148.007 22.8243 148.006 22.8 148.014 22.7778C148.021 22.7557 148.038 22.7372 148.059 22.7261L150.501 21.6877C150.522 21.6787 150.547 21.6777 150.569 21.6851C150.591 21.6925 150.61 21.7077 150.622 21.7277C150.633 21.7478 150.637 21.7713 150.632 21.7938C150.627 21.8163 150.613 21.8361 150.594 21.8494V21.8489Z" fill="white"/>
</g>
<path d="M149.383 21.1633C149.355 21.0911 149.312 21.0252 149.257 20.9696C149.202 20.9141 149.136 20.87 149.063 20.8401C148.99 20.8101 148.911 20.795 148.832 20.7957C148.753 20.7963 148.675 20.8126 148.602 20.8437C148.464 20.9086 148.357 21.0221 148.301 21.1613C148.246 21.3005 148.246 21.455 148.303 21.5937L148.497 22.3761C148.538 22.5416 148.516 22.716 148.434 22.8664C148.352 23.0168 148.216 23.1328 148.053 23.1925C147.892 23.2511 147.715 23.2516 147.555 23.194C147.394 23.1364 147.26 23.0245 147.176 22.8786C147.176 22.8786 145.969 20.3928 145.946 20.2917C145.748 20.48 145.402 20.9433 145.331 21.2926C145.329 21.2944 145.681 24.0841 145.878 24.2807L147.921 27.3514C148.757 28.1853 151.56 26.7978 151.56 26.7978L149.383 21.1633Z" fill="#E98862"/>
<path d="M157.778 44.0915C157.094 44.0915 156.421 43.9191 155.826 43.591C155.23 43.2629 154.732 42.7903 154.379 42.2191L145.583 27.9824L152.382 23.9947L159.068 34.8181L170.183 27.9376L174.892 34.0895L159.926 43.4771C159.285 43.8785 158.54 44.0918 157.778 44.0915Z" fill="#5E783C"/>
<path d="M169.338 37.6342C169.323 37.6342 169.309 37.6293 169.297 37.6202C169.285 37.6111 169.276 37.5984 169.273 37.5842C169.269 37.5699 169.271 37.5549 169.277 37.5415C169.283 37.5281 169.294 37.5172 169.307 37.5105L171.228 36.5448C171.244 36.5369 171.262 36.5353 171.279 36.5406C171.296 36.5459 171.31 36.5576 171.318 36.573C171.327 36.5885 171.328 36.6064 171.323 36.623C171.317 36.6396 171.305 36.6534 171.29 36.6613L169.369 37.6268C169.36 37.6316 169.349 37.6342 169.338 37.6342Z" fill="#0C0C0C"/>
<path d="M175.116 27.2904L176.069 25.8382C176.111 25.7745 176.169 25.7222 176.237 25.6859C176.305 25.6496 176.381 25.6306 176.458 25.6306H183.645C183.71 25.6306 183.774 25.6438 183.833 25.6695C183.892 25.6952 183.945 25.7327 183.989 25.7796L185.385 27.2904H175.116Z" fill="#5E783C"/>
<path d="M119.603 85.4565L119.37 85.4812L122.238 111.013L122.47 110.988L119.603 85.4565Z" fill="#292A2E"/>
<path d="M127.03 96.6029L125.619 110.201L125.851 110.224L127.262 96.6258L127.03 96.6029Z" fill="#292A2E"/>
<path d="M129.455 108.557H118.988V111.867H129.455V108.557Z" fill="#292A2E"/>
<path opacity="0.2" d="M129.455 108.557H118.988V111.867H129.455V108.557Z" fill="white"/>
<path d="M135.766 102.463C137.749 99.8947 136.803 95.9416 133.654 93.6331C130.505 91.3245 126.345 91.5348 124.362 94.1026C122.379 96.6704 123.325 100.624 126.474 102.932C129.623 105.241 133.783 105.03 135.766 102.463Z" fill="#0CBC8B"/>
<path opacity="0.2" d="M135.766 102.463C137.749 99.8947 136.803 95.9416 133.654 93.6331C130.505 91.3245 126.345 91.5348 124.362 94.1026C122.379 96.6704 123.325 100.624 126.474 102.932C129.623 105.241 133.783 105.03 135.766 102.463Z" fill="white"/>
<path opacity="0.5" d="M135.765 102.463C135.632 102.636 135.487 102.8 135.33 102.954C133.148 104.313 129.926 104.099 127.37 102.225C124.221 99.9166 123.276 95.9635 125.259 93.3957C125.393 93.2229 125.538 93.0589 125.693 92.9047C127.877 91.545 131.098 91.7599 133.655 93.633C136.803 95.9421 137.748 99.8952 135.765 102.463Z" fill="white"/>
<path d="M121.157 92.7203C124.277 90.3741 125.125 86.3502 123.051 83.7328C120.978 81.1154 116.768 80.8955 113.648 83.2417C110.529 85.5879 109.681 89.6117 111.755 92.2292C113.828 94.8466 118.038 95.0665 121.157 92.7203Z" fill="#0CBC8B"/>
<path opacity="0.2" d="M120.17 92.0471C117.754 93.8652 114.684 94.1423 112.459 92.9587C112.201 92.7377 111.966 92.4932 111.756 92.2285C109.681 89.6118 110.529 85.5874 113.648 83.2417C116.064 81.4246 119.135 81.1465 121.359 82.329C121.617 82.5501 121.853 82.795 122.063 83.0603C124.137 85.677 123.289 89.7014 120.17 92.0471Z" fill="white"/>
</g>
<defs>
<clipPath id="clip0_123_492">
<rect width="322" height="113" fill="white"/>
</clipPath>
</defs>
</svg>
