<svg width="63" height="65" viewBox="0 0 63 65" fill="none" xmlns="http://www.w3.org/2000/svg">
<mask id="mask0_99_2029" style="mask-type:luminance" maskUnits="userSpaceOnUse" x="0" y="0" width="63" height="65">
<path d="M0 0H62.096V64.63H0V0Z" fill="white"/>
</mask>
<g mask="url(#mask0_99_2029)">
<path d="M60.09 35.1515C60.2203 35.1381 60.3492 35.1139 60.4754 35.0763C60.603 35.0387 60.7252 34.9904 60.842 34.93C60.9588 34.8709 61.0703 34.7997 61.1737 34.7191C61.2785 34.6385 61.3738 34.5486 61.4611 34.4492C61.5484 34.3512 61.6249 34.2451 61.6921 34.1323C61.7592 34.0181 61.8156 33.9 61.8613 33.7764C61.9056 33.6529 61.9391 33.5253 61.9593 33.395C61.9808 33.2661 61.9888 33.1345 61.9861 33.0029C62.0399 31.1162 62.0788 28.6372 61.9647 27.5468C61.9378 27.3118 61.8666 27.0902 61.7498 26.8848C61.633 26.6793 61.4799 26.5047 61.2905 26.3611C60.18 25.4801 57.6164 25.5244 56.0641 25.6466C56.0654 25.3056 56.0681 24.9739 56.0694 24.6395L59.9423 24.4501C60.0725 24.4367 60.2015 24.4125 60.3277 24.3749C60.4553 24.3387 60.5761 24.289 60.6943 24.2299C60.8111 24.1695 60.9226 24.0996 61.026 24.0191C61.1294 23.9385 61.2261 23.8485 61.3134 23.7492C61.3993 23.6511 61.4772 23.545 61.5443 23.4322C61.6115 23.3181 61.6679 23.1999 61.7122 23.0764C61.7565 22.9528 61.7901 22.8253 61.8116 22.6963C61.8317 22.5661 61.8411 22.4358 61.8371 22.3042C61.8921 20.4202 61.9324 17.9452 61.8156 16.8454C61.7901 16.6104 61.7176 16.3902 61.6007 16.1847C61.4839 15.9779 61.3308 15.8034 61.1415 15.661C60.0658 14.8083 57.6245 14.8231 56.0614 14.9359C56.0587 14.5746 56.0547 14.2201 56.0506 13.8736L59.9423 13.6843C60.0725 13.6709 60.2015 13.6467 60.3277 13.6091C60.4553 13.5715 60.5761 13.5232 60.6943 13.4627C60.8111 13.4036 60.9226 13.3325 61.026 13.2519C61.1307 13.1713 61.2261 13.0813 61.3134 12.9833C61.3993 12.8839 61.4772 12.7779 61.5443 12.6651C61.6115 12.5523 61.6679 12.4341 61.7122 12.3105C61.7579 12.1856 61.7901 12.0594 61.8116 11.9292C61.8317 11.8002 61.8411 11.6686 61.8371 11.537C61.8921 9.65432 61.9324 7.1794 61.8156 6.07958C61.7901 5.84458 61.7176 5.62435 61.6007 5.41755C61.4839 5.21209 61.3308 5.03751 61.1415 4.89382C59.9785 3.97127 57.2256 4.06124 55.7069 4.19553C55.6733 3.38577 55.5403 2.59347 55.312 1.81595C54.9307 0.89205 54.5318 -0.0707929 30.5386 0.0567802C19.0127 0.111838 7.43713 0.413985 7.3485 0.416671C7.12021 0.411299 6.89192 0.416671 6.66498 0.434129C6.43669 0.451586 6.20974 0.481129 5.98548 0.520073C5.75988 0.560359 5.53696 0.611388 5.31807 0.674504C5.09784 0.736276 4.88164 0.810134 4.66946 0.894736C4.45729 0.977994 4.24914 1.07334 4.04637 1.17808C3.84359 1.28283 3.64619 1.39831 3.4555 1.5232C3.26347 1.64809 3.07949 1.78103 2.90089 1.92472C2.72363 2.06841 2.55309 2.22016 2.3906 2.3813C2.22811 2.5411 2.07368 2.70896 1.92865 2.88488C1.78362 3.0608 1.64664 3.24343 1.51907 3.43277C1.39284 3.62346 1.27601 3.81818 1.16858 4.01961C1.06115 4.22104 0.96312 4.42785 0.877176 4.63868C0.789889 4.84951 0.714688 5.06437 0.65023 5.28326C0.584429 5.50215 0.530714 5.72372 0.489084 5.94798C0.446112 6.17224 0.415226 6.39785 0.395083 6.62479C0.37494 6.85174 0.366882 7.08003 0.369568 7.30832C0.232595 12.2085 -0.304556 55.7244 0.385683 59.7651C1.28407 65.0373 6.86507 64.5753 8.95995 64.4074C11.5141 64.1993 41.2118 64.4356 50.9692 64.5135C52.8667 64.5283 54.0685 64.5377 54.2659 64.5377C54.6285 64.535 54.9334 64.4021 55.1791 64.1375C55.9204 63.3654 56.2185 61.2409 55.7941 51.7777C55.7619 51.0552 55.7377 50.5543 55.7404 50.4053C55.7418 50.3529 55.7404 50.3005 55.7351 50.2482H55.7418C55.7418 49.9124 55.7619 48.7307 55.7928 46.9433C55.7982 46.6264 55.8035 46.3216 55.8089 46.0073L59.9423 45.8046C60.0725 45.7925 60.2015 45.767 60.329 45.7294C60.4553 45.6931 60.5775 45.6448 60.6943 45.5843C60.8111 45.5239 60.9226 45.4541 61.026 45.3735C61.1307 45.2916 61.2261 45.203 61.3134 45.1036C61.4007 45.0056 61.4772 44.8995 61.5443 44.7853C61.6115 44.6725 61.6679 44.5544 61.7122 44.4308C61.7579 44.3073 61.7901 44.1797 61.8116 44.0494C61.8317 43.9205 61.8411 43.7889 61.8371 43.6573C61.8921 41.7759 61.9324 39.2997 61.8156 38.1999C61.7901 37.9649 61.7176 37.7446 61.6007 37.5392C61.4839 37.3324 61.3308 37.1591 61.1415 37.0154C60.0403 36.1412 57.5117 36.1761 55.9566 36.297C55.9607 35.9787 55.9647 35.6672 55.9687 35.353L60.09 35.1515ZM2.45371 7.3674C2.44028 7.08406 2.45237 6.80205 2.49131 6.52005C2.52891 6.23939 2.59337 5.9641 2.68335 5.69552C2.77198 5.4256 2.88612 5.16777 3.02444 4.91934C3.16141 4.67091 3.32121 4.43724 3.5025 4.2197C3.68379 4.00081 3.88254 3.80072 4.10142 3.61943C4.31897 3.4368 4.55263 3.277 4.80106 3.13868C5.0495 3.00037 5.30733 2.88622 5.57725 2.79625C5.84716 2.70493 6.12245 2.64048 6.40312 2.60153C7.21153 12.7886 7.51233 42.6112 7.3767 48.814C6.84492 48.9523 6.33194 49.1376 5.83508 49.3713C5.33821 49.6049 4.86686 49.8829 4.42237 50.2025C3.97788 50.5234 3.56562 50.8833 3.18827 51.2808C2.80958 51.677 2.47117 52.1067 2.17305 52.566C1.99579 39.4246 2.31808 12.2259 2.45371 7.3674ZM53.7019 62.4536C53.1433 62.4495 52.21 62.4415 50.9866 62.4334C39.7065 62.3421 25.8386 62.2441 17.1032 62.2441C12.6905 62.2441 9.58574 62.2696 8.78941 62.3327C4.74332 62.6657 2.89552 61.8439 2.45506 59.5019C2.53429 51.1653 8.43758 50.6846 8.65378 50.6712C9.22853 50.6564 9.8194 50.643 10.417 50.6282C10.4022 51.5897 10.378 53.3113 10.3753 54.8582L7.35924 54.8287H7.3485C7.21019 54.8274 7.07724 54.8542 6.94967 54.9053C6.82209 54.9576 6.70929 55.0328 6.60992 55.1295C6.51189 55.2262 6.43669 55.339 6.38297 55.4666C6.32926 55.5928 6.3024 55.7257 6.30106 55.8641C6.30106 56.001 6.32657 56.134 6.37894 56.2616C6.43132 56.3905 6.50652 56.5033 6.6032 56.6013C6.70123 56.6993 6.81269 56.7745 6.94027 56.8283C7.06784 56.8806 7.20078 56.9088 7.3391 56.9088L10.3928 56.9384C10.4022 57.3305 10.4156 57.6461 10.4358 57.8247C10.4586 58.0516 10.5351 58.2571 10.6694 58.441C10.8024 58.6264 10.9729 58.7647 11.1824 58.856C12.1009 59.2508 13.1752 58.5122 14.9881 57.1693C15.1318 57.0633 15.2956 56.9411 15.4487 56.8296L15.6878 57.0659C16.4613 57.9845 17.3905 58.6975 18.4783 59.2078C18.5884 59.2401 18.7012 59.2562 18.8153 59.2562C19.1416 59.2548 19.4223 59.142 19.66 58.9178C20.0709 58.3564 20.3032 57.7293 20.357 57.0351C35.1555 57.1747 44.1044 57.2459 47.0265 57.2459C47.6053 57.2459 47.9477 57.2432 48.0538 57.2378C48.1921 57.2311 48.3237 57.1975 48.4473 57.1385C48.5721 57.0794 48.6809 56.9975 48.7736 56.8954C48.8662 56.7933 48.9347 56.6765 48.9817 56.5462C49.0274 56.416 49.0475 56.283 49.0395 56.1447C49.0301 56.0091 48.9952 55.8788 48.9347 55.7553C48.8743 55.6331 48.7924 55.5257 48.6903 55.433C48.5896 55.3417 48.4741 55.2719 48.3452 55.2249C48.2163 55.1779 48.0833 55.1564 47.9464 55.1591C47.3595 55.194 37.3954 55.1161 20.5826 54.9563C20.6886 53.2804 20.6658 51.5051 20.6336 50.4362C34.8949 50.2294 50.6429 50.2535 53.6737 50.9773C53.6831 51.2217 53.6966 51.5225 53.7113 51.869C54.0215 58.7996 53.902 61.4961 53.7019 62.4536ZM18.5682 50.4684C18.6139 52.5485 18.5347 54.6232 18.3279 56.694C17.9008 56.3233 17.4214 55.8506 17.1542 55.5861C16.4519 54.8932 16.19 54.634 15.7912 54.5427C15.2151 54.407 14.874 54.6595 13.7446 55.4988C13.4277 55.7351 12.9174 56.1125 12.4649 56.416C12.4461 54.9455 12.4716 52.4975 12.5025 50.5825C14.4483 50.5409 16.4828 50.502 18.5682 50.4684ZM53.7087 46.9071C53.6939 47.7329 53.6818 48.4312 53.6737 48.9778C47.1326 47.8672 24.2526 48.211 9.47025 48.5696C9.61931 41.3382 9.23524 12.1937 8.48189 2.46993C16.1014 2.2779 25.6546 2.12615 34.0436 2.12615C43.6465 2.12615 51.693 2.3249 53.4669 2.88488C53.9087 4.83877 54.27 14.3678 53.7087 46.9071ZM59.9074 27.9349C59.9718 28.7769 59.9691 30.5763 59.9007 32.9438C59.9007 32.9908 59.8926 33.0365 59.8751 33.0795L55.9942 33.2688C56.0171 31.3324 56.0359 29.4832 56.0493 27.7362C57.3478 27.5589 58.6343 27.6247 59.9074 27.9349ZM59.7583 17.2349C59.8241 18.0795 59.8228 19.8803 59.7529 22.2451C59.7516 22.2908 59.7435 22.3351 59.7274 22.3781L56.0788 22.5567C56.0842 20.5639 56.0842 18.7201 56.0761 17.024C57.317 16.8629 58.5444 16.9327 59.7583 17.2349ZM59.7583 6.46768C59.8241 7.31234 59.8228 9.11449 59.7529 11.4793C59.7516 11.525 59.7435 11.5693 59.7274 11.6122L56.0211 11.7922C55.9821 9.58449 55.9244 7.75012 55.8465 6.2743C57.1639 6.09033 58.4678 6.15478 59.7583 6.46768ZM59.7583 38.588C59.8241 39.4353 59.8228 41.2348 59.7529 43.5996C59.7529 43.6452 59.7435 43.6895 59.7274 43.7325L55.8438 43.9219C55.8747 42.0056 55.9029 40.1645 55.9284 38.3879C57.2176 38.2133 58.4947 38.2804 59.7583 38.588Z" fill="white"/>
</g>
<path d="M18.4457 23.331C19.0258 21.7786 19.6502 20.1685 20.2532 18.6698C22.3723 18.7679 24.0226 18.8189 25.1372 18.8189C25.4072 18.8189 25.6381 18.8149 25.849 18.8095C26.4895 20.6049 26.9891 22.0391 27.075 22.3762C27.0938 22.5064 27.1368 22.6286 27.2012 22.7428C27.267 22.8569 27.3503 22.955 27.4537 23.0382C27.5558 23.1201 27.6699 23.1806 27.7961 23.2195C27.9224 23.2598 28.0499 23.2746 28.1815 23.2652C28.3131 23.2558 28.438 23.2222 28.5575 23.1658C28.6757 23.108 28.7805 23.0315 28.8704 22.9362C28.9591 22.8395 29.0289 22.7307 29.0772 22.6085C29.1256 22.4849 29.1498 22.3587 29.1498 22.2271C29.1498 22.0633 29.1457 21.8296 27.5947 17.4921C27.5893 17.4666 27.596 17.4411 27.5893 17.4169C27.5692 17.3713 27.5477 17.3283 27.5222 17.2867C26.9944 15.8162 26.2988 13.8986 25.3749 11.378C25.3508 11.3109 25.3199 11.2477 25.2823 11.1873C25.0969 10.8879 24.8579 10.6394 24.5652 10.442C24.2738 10.2446 23.9542 10.1157 23.6064 10.0553C23.2626 10.0177 22.9295 10.0593 22.6059 10.1788C22.2823 10.297 22.0016 10.481 21.7639 10.7321C20.5997 11.8292 17.691 19.4004 16.4931 22.6045C16.4448 22.7334 16.422 22.8677 16.426 23.006C16.43 23.1443 16.4609 23.2759 16.5186 23.4021C16.5751 23.5284 16.6543 23.6385 16.7563 23.7338C16.8571 23.8278 16.9725 23.9003 17.1028 23.9487C17.2331 23.997 17.3673 24.0185 17.5057 24.0131C17.6453 24.0078 17.7769 23.9769 17.9032 23.9191C18.0294 23.8601 18.1395 23.7808 18.2335 23.6788C18.3275 23.5767 18.3987 23.4612 18.4457 23.331ZM23.1954 12.2442C23.2787 12.1663 23.3338 12.134 23.3405 12.122C23.3888 12.1528 23.4304 12.1891 23.468 12.2307C23.9555 13.5615 24.5464 15.1837 25.1077 16.7401C24.0978 16.7321 22.614 16.6877 21.0938 16.6246C21.6592 15.1005 22.3588 13.6394 23.1954 12.2442Z" fill="white"/>
<path d="M30.9506 17.5887H34.1668C34.3051 17.5887 34.438 17.5632 34.5656 17.5095C34.6932 17.4571 34.806 17.3819 34.904 17.2839C35.002 17.1872 35.0772 17.0744 35.1296 16.9468C35.1833 16.8193 35.2088 16.6863 35.2088 16.5493C35.2088 16.411 35.1833 16.2781 35.1296 16.1505C35.0772 16.0229 35.002 15.9115 34.904 15.8134C34.806 15.7154 34.6932 15.6402 34.5656 15.5878C34.438 15.5355 34.3051 15.5086 34.1668 15.5086H30.9506C30.8123 15.5086 30.6793 15.5355 30.5517 15.5878C30.4242 15.6402 30.3114 15.7154 30.2133 15.8134C30.1167 15.9115 30.0415 16.0229 29.9877 16.1505C29.9354 16.2781 29.9085 16.411 29.9085 16.5493C29.9085 16.6863 29.9354 16.8193 29.9877 16.9468C30.0415 17.0744 30.1167 17.1872 30.2133 17.2839C30.3114 17.3819 30.4242 17.4571 30.5517 17.5095C30.6793 17.5632 30.8123 17.5887 30.9506 17.5887Z" fill="white"/>
<path d="M44.9969 21.4335C42.5179 21.4161 39.6751 21.3181 38.1187 21.1757C38.8411 20.178 39.6254 19.2312 40.47 18.3342C41.0072 17.797 45.7288 13.0392 45.4575 11.5486C45.3125 10.7496 45.1741 9.99626 37.1693 10.2017C37.0309 10.2057 36.8993 10.2353 36.7731 10.2917C36.6469 10.3481 36.5354 10.426 36.4414 10.5254C36.3461 10.6261 36.2736 10.7402 36.2239 10.8691C36.1742 10.998 36.1514 11.131 36.1554 11.2693C36.1608 11.4063 36.1916 11.5379 36.248 11.6628C36.3044 11.7877 36.3837 11.8978 36.483 11.9931C36.5838 12.0871 36.6979 12.1596 36.8255 12.2093C36.9544 12.2604 37.0873 12.2832 37.2243 12.2818C39.2467 12.2281 41.6008 12.2604 42.9101 12.3799C41.688 13.947 40.3828 15.4403 38.9956 16.8624C38.7122 17.1457 35.6129 20.5714 35.4813 21.7424C35.4544 22.066 35.5457 22.3521 35.7566 22.5992C36.0775 22.9604 36.5166 23.4519 44.9821 23.515H44.9902C45.1271 23.515 45.2601 23.4895 45.389 23.4371C45.5166 23.3847 45.6294 23.3095 45.7274 23.2129C45.8254 23.1148 45.9006 23.0034 45.9544 22.8758C46.0081 22.7482 46.0349 22.6153 46.0349 22.4783C46.0363 22.34 46.0094 22.207 45.957 22.0795C45.9047 21.9519 45.8295 21.8391 45.7328 21.7411C45.6348 21.643 45.5233 21.5678 45.3957 21.5141C45.2681 21.4617 45.1352 21.4349 44.9969 21.4335Z" fill="white"/>
<path d="M43.3336 31.1801C41.6416 31.5601 27.3681 31.8381 18.6341 31.9253C18.4971 31.9267 18.3641 31.9535 18.2366 32.0073C18.109 32.061 17.9962 32.1362 17.8995 32.2342C17.8015 32.3322 17.7276 32.445 17.6752 32.5726C17.6229 32.7002 17.5974 32.8331 17.5974 32.9715C17.5987 33.1098 17.6256 33.2414 17.6793 33.3689C17.7316 33.4965 17.8082 33.608 17.9062 33.7047C18.0042 33.8027 18.117 33.8765 18.246 33.9289C18.3735 33.9813 18.5065 34.0068 18.6448 34.0068H18.6555C43.8251 33.7543 44.2508 33.2226 44.6281 32.7526C44.702 32.6599 44.7597 32.5565 44.7987 32.4437C44.8376 32.3309 44.8578 32.2154 44.8564 32.0959C44.8551 31.9764 44.8349 31.8609 44.7946 31.7494C44.753 31.6366 44.6953 31.5346 44.6201 31.4419C44.5435 31.3506 44.4549 31.2741 44.3515 31.2123C44.2494 31.1505 44.1393 31.1075 44.0225 31.0834C43.9057 31.0605 43.7875 31.0565 43.6693 31.0726C43.5511 31.0901 43.4397 31.125 43.3336 31.1801Z" fill="white"/>
<path d="M36.9967 37.7188C36.0835 37.8397 29.8552 37.8746 24.34 37.8517H24.3347C24.1964 37.8517 24.0634 37.8773 23.9358 37.9296C23.8083 37.982 23.6955 38.0572 23.5974 38.1552C23.4994 38.2519 23.4242 38.3647 23.3718 38.491C23.3181 38.6185 23.2913 38.7515 23.2913 38.8884C23.2913 39.0268 23.3168 39.1597 23.3691 39.2873C23.4215 39.4149 23.4967 39.5277 23.5948 39.6243C23.6914 39.7224 23.8042 39.7976 23.9318 39.8513C24.058 39.9037 24.191 39.9305 24.3293 39.9319C26.0415 39.9399 27.5321 39.9439 28.8306 39.9439C37.4385 39.9439 37.66 39.768 37.9729 39.5196C38.0683 39.4431 38.1475 39.3531 38.2106 39.2497C38.2751 39.1449 38.3194 39.0335 38.3436 38.914C38.3677 38.7944 38.3704 38.6749 38.353 38.5541C38.3342 38.4332 38.2966 38.3191 38.2388 38.2116C38.1811 38.1055 38.1059 38.0102 38.0146 37.9296C37.9233 37.8491 37.8212 37.7859 37.7084 37.7403C37.5942 37.696 37.4761 37.6705 37.3539 37.6664C37.233 37.6637 37.1135 37.6799 36.9967 37.7188Z" fill="white"/>
</svg>
