<svg width="40" height="38" viewBox="0 0 40 38" fill="none" xmlns="http://www.w3.org/2000/svg">
<path fill-rule="evenodd" clip-rule="evenodd" d="M34.5455 0C37.558 0 40 2.31999 40 5.18182V32.8182C40 35.6801 37.558 38 34.5455 38H5.45455C2.44209 38 0 35.6801 0 32.8182V5.18182C0 2.31999 2.44209 0 5.45455 0H34.5455ZM34.5455 3.45455C35.5496 3.45455 36.3636 4.22788 36.3636 5.18182V32.8182C36.3636 33.7722 35.5496 34.5455 34.5455 34.5455H25.4545V22.4544H29.2295C30.012 22.4544 30.7067 21.9787 30.9544 21.2733L31.7598 18.9777C32.0542 18.1388 31.3969 17.2726 30.4662 17.2726H25.4545V13.818C25.4545 12.9544 26.3636 12.0908 27.2727 12.0908H30.9091C31.9133 12.0908 32.7273 11.3174 32.7273 10.3635V9.17861C32.7273 8.62066 32.3522 8.12043 31.7842 7.97805C29.4009 7.38055 27.2727 7.38055 27.2727 7.38055C22.7273 7.38055 20 10.3635 20 12.9544V17.2726H16.3636C15.3595 17.2726 14.5455 18.0459 14.5455 18.9998V20.7271C14.5455 21.6811 15.3595 22.4544 16.3636 22.4544H20V34.5455H5.45455C4.4504 34.5455 3.63636 33.7722 3.63636 32.8182V5.18182C3.63636 4.22788 4.4504 3.45455 5.45455 3.45455H34.5455Z" fill="#16573F"/>
</svg>
