<svg width="39" height="40" viewBox="0 0 39 40" fill="none" xmlns="http://www.w3.org/2000/svg">
<path d="M2 34.0001V8.40007C2 6.15987 2 5.03975 2.54498 4.18411C3.02433 3.43145 3.78922 2.81953 4.73005 2.43605C5.7996 2.00007 7.19975 2.00007 10 2.00007H29C31.8003 2.00007 33.2005 2.00007 34.27 2.43605C35.2108 2.81953 35.9757 3.43145 36.455 4.18411C37 5.03975 37 6.15987 37 8.40007V30.0001H7C4.23857 30.0001 2 31.7909 2 34.0001ZM2 34.0001C2 36.2093 4.23857 38.0001 7 38.0001H37M34.5 30.0001V38.0001" stroke="#07402B" stroke-width="3" stroke-linecap="round" stroke-linejoin="round"/>
</svg>
