<svg width="72" height="70" viewBox="0 0 72 70" fill="none" xmlns="http://www.w3.org/2000/svg">
<mask id="mask0_99_2198" style="mask-type:luminance" maskUnits="userSpaceOnUse" x="0" y="0" width="28" height="26">
<path d="M0 0H27.2307V25.6532H0V0Z" fill="white"/>
</mask>
<g mask="url(#mask0_99_2198)">
<path fill-rule="evenodd" clip-rule="evenodd" d="M17.3053 4.45518C16.8194 2.84326 16.1884 1.62789 15.5174 0.957924C14.9234 0.363834 14.2601 0.098999 13.606 0.098999C12.9504 0.098999 12.2886 0.363834 11.6932 0.957924C11.0221 1.62789 10.3912 2.84326 9.90523 4.45518C8.33327 3.63347 6.96186 3.18827 5.97611 3.15534C5.10298 3.12528 4.43347 3.37293 3.97068 3.8024C3.50788 4.23186 3.24101 4.85315 3.2734 5.66483C3.30888 6.57816 3.78865 7.8508 4.67412 9.30954C2.93556 9.76047 1.6274 10.346 0.903902 10.9687C0.265247 11.5213 -0.0201416 12.1354 -0.0201416 12.7424C-0.0201416 13.3493 0.265247 13.9635 0.903902 14.5161C1.6274 15.1388 2.93556 15.7243 4.67412 16.1752C3.78865 17.6339 3.30888 18.9066 3.2734 19.8213C3.24101 20.6316 3.50788 21.2529 3.97068 21.6823C4.43347 22.1118 5.10298 22.3595 5.97611 22.3294C6.96186 22.2965 8.33327 21.8513 9.90523 21.0296C10.3912 22.6415 11.0221 23.8569 11.6932 24.5268C12.2886 25.1209 12.9504 25.3857 13.606 25.3857C14.2601 25.3857 14.9234 25.1209 15.5174 24.5268C16.1884 23.8569 16.8194 22.6415 17.3053 21.0296C18.8772 21.8513 20.2502 22.2965 21.2344 22.3294C22.1075 22.3595 22.7786 22.1118 23.2414 21.6823C23.7026 21.2529 23.9711 20.6316 23.9387 19.8213C23.9016 18.9066 23.4234 17.6339 22.5379 16.1752C24.275 15.7243 25.5847 15.1388 26.3066 14.5161C26.9468 13.9635 27.2307 13.3493 27.2307 12.7424C27.2307 12.1354 26.9468 11.5213 26.3066 10.9687C25.5847 10.346 24.275 9.76047 22.5379 9.30954C23.4234 7.8508 23.9016 6.57816 23.9387 5.66483C23.9711 4.85315 23.7026 4.23186 23.2414 3.8024C22.7786 3.37293 22.1075 3.12528 21.2344 3.15534C20.2502 3.18827 18.8772 3.63347 17.3053 4.45518ZM13.606 2.31216C13.6508 2.34222 13.7341 2.40092 13.785 2.45102C13.9454 2.61135 14.095 2.82322 14.2401 3.07661C14.6967 3.87397 15.0793 5.01921 15.3724 6.39921C15.4495 6.75853 15.7148 7.05915 16.0804 7.19944C16.4445 7.33974 16.861 7.30108 17.1911 7.09781C18.4499 6.31475 19.5915 5.75502 20.5232 5.49162C20.8194 5.40859 21.0863 5.35562 21.3208 5.34703C21.3948 5.3456 21.4982 5.35848 21.5553 5.36707C21.5645 5.41861 21.5784 5.51452 21.5753 5.58323C21.5661 5.80226 21.5105 6.04992 21.4195 6.32334C21.1357 7.18799 20.5325 8.24733 19.6887 9.41547C19.4696 9.72039 19.428 10.1083 19.5791 10.4462C19.7303 10.7855 20.0543 11.0317 20.4415 11.1033C21.9286 11.3753 23.1627 11.7303 24.022 12.154C24.295 12.29 24.5249 12.4274 24.6976 12.5763C24.7516 12.6221 24.8149 12.6994 24.8473 12.7424C24.8149 12.7853 24.7516 12.8626 24.6976 12.9084C24.5249 13.0573 24.295 13.1962 24.022 13.3307C23.1627 13.7545 21.9286 14.1095 20.4415 14.3815C20.0543 14.4531 19.7303 14.6993 19.5791 15.0386C19.428 15.3764 19.4696 15.7644 19.6887 16.0693C20.5325 17.2374 21.1357 18.2968 21.4195 19.1614C21.5105 19.4348 21.5661 19.6825 21.5753 19.9015C21.5784 19.9702 21.5645 20.0661 21.5553 20.1177C21.4982 20.1263 21.3948 20.1391 21.3208 20.1377C21.0863 20.1291 20.8194 20.0762 20.5232 19.9931C19.5915 19.7297 18.4499 19.17 17.1911 18.3869C16.861 18.1837 16.4445 18.145 16.0804 18.2853C15.7148 18.4256 15.4495 18.7262 15.3724 19.0855C15.0793 20.4655 14.6967 21.6108 14.2401 22.4081C14.095 22.6615 13.9454 22.8734 13.785 23.0337C13.7341 23.0838 13.6508 23.1425 13.606 23.1726C13.5598 23.1425 13.4764 23.0838 13.4255 23.0337C13.2666 22.8734 13.117 22.6615 12.972 22.4081C12.5138 21.6108 12.1328 20.4655 11.8382 19.0855C11.7626 18.7262 11.4972 18.4256 11.1316 18.2853C10.766 18.145 10.3495 18.1837 10.0209 18.3869C8.76213 19.17 7.61903 19.7297 6.68727 19.9931C6.39263 20.0762 6.12421 20.1291 5.88973 20.1377C5.81568 20.1391 5.71232 20.1263 5.65679 20.1177C5.64753 20.0661 5.63365 19.9702 5.63673 19.9015C5.64445 19.6825 5.70152 19.4348 5.791 19.1614C6.07484 18.2968 6.67802 17.2374 7.52184 16.0693C7.74244 15.7644 7.78255 15.3764 7.63137 15.0386C7.48019 14.6993 7.15624 14.4531 6.76903 14.3815C5.28193 14.1095 4.04781 13.7545 3.18856 13.3307C2.91551 13.1962 2.6872 13.0573 2.51442 12.9084C2.46043 12.8626 2.39718 12.7853 2.36324 12.7424C2.39718 12.6994 2.46043 12.6221 2.51442 12.5763C2.6872 12.4274 2.91551 12.29 3.18856 12.154C4.04781 11.7303 5.28193 11.3753 6.76903 11.1033C7.15624 11.0317 7.48019 10.7855 7.63137 10.4462C7.78255 10.1083 7.74244 9.72039 7.52184 9.41547C6.67802 8.24733 6.07484 7.18799 5.791 6.32334C5.70152 6.04992 5.64445 5.80226 5.63673 5.58323C5.63365 5.51452 5.64753 5.41861 5.65679 5.36707C5.71232 5.35848 5.81568 5.3456 5.88973 5.34703C6.12421 5.35562 6.39263 5.40859 6.68727 5.49162C7.61903 5.75502 8.76213 6.31475 10.0209 7.09781C10.3495 7.30108 10.766 7.33974 11.1316 7.19944C11.4972 7.05915 11.7626 6.75853 11.8382 6.39921C12.1328 5.01921 12.5138 3.87397 12.972 3.07661C13.117 2.82322 13.2666 2.61135 13.4255 2.45102C13.4764 2.40092 13.5598 2.34222 13.606 2.31216Z" fill="#F4FFFB"/>
</g>
<path fill-rule="evenodd" clip-rule="evenodd" d="M9.74158 12.7423C9.74158 14.7221 11.4724 16.3283 13.6059 16.3283C15.7378 16.3283 17.4702 14.7221 17.4702 12.7423C17.4702 10.7624 15.7378 9.15625 13.6059 9.15625C12.9534 9.15625 12.4227 9.6487 12.4227 10.2528C12.4227 10.8584 12.9534 11.3508 13.6059 11.3508C14.4328 11.3508 15.1054 11.9735 15.1054 12.7423C15.1054 13.511 14.4328 14.1337 13.6059 14.1337C12.7775 14.1337 12.1049 13.511 12.1049 12.7423C12.1049 12.1367 11.5758 11.6457 10.9232 11.6457C10.2707 11.6457 9.74158 12.1367 9.74158 12.7423Z" fill="#F4FFFB"/>
<path fill-rule="evenodd" clip-rule="evenodd" d="M28.0857 43.951C26.7513 34.5472 23.3236 26.0667 17.4878 18.6513C17.1021 18.1617 16.3632 18.0544 15.8356 18.4123C15.308 18.7687 15.1923 19.4559 15.578 19.9454C21.1808 27.0645 24.459 35.21 25.7409 44.2387C25.8257 44.8385 26.4212 45.2608 27.0676 45.1821C27.7155 45.1034 28.1706 44.5522 28.0857 43.951Z" fill="#F4FFFB"/>
<path fill-rule="evenodd" clip-rule="evenodd" d="M20.0509 30.3699C18.8384 29.8502 17.4839 29.4393 16.0323 29.2719C12.6524 28.881 9.46682 29.906 7.49378 30.7821C7.48761 30.7864 7.48298 30.7879 7.47681 30.7907C6.66075 31.1687 6.10386 31.8987 5.99124 32.7391C5.87863 33.5779 6.22573 34.4125 6.91683 34.9637C6.92146 34.968 6.92609 34.9723 6.93226 34.9751C8.6122 36.275 11.4291 37.9928 14.8105 38.3836C20.361 39.0249 25.498 35.8269 25.498 35.8269C26.0394 35.489 26.1829 34.8076 25.8173 34.3052C25.4532 33.8027 24.7189 33.6696 24.1775 34.0088C24.1775 34.0088 19.8195 36.7517 15.1021 36.2062C12.2451 35.877 9.88025 34.3968 8.45485 33.2974C8.36692 33.2258 8.32372 33.117 8.33761 33.0096C8.35149 32.9051 8.41782 32.8135 8.51655 32.762C10.1996 32.0147 12.8838 31.1185 15.7408 31.4478C16.9378 31.5867 18.0563 31.9317 19.0559 32.3611C19.6483 32.6159 20.3517 32.3769 20.6263 31.8272C20.9009 31.2774 20.6417 30.6261 20.0509 30.3699Z" fill="#F4FFFB"/>
<path fill-rule="evenodd" clip-rule="evenodd" d="M29.3644 35.3293C30.5692 34.9528 31.845 34.3716 32.9804 33.4898C34.8146 32.0654 35.879 30.1285 36.4621 28.6268C36.4637 28.6254 36.4637 28.624 36.4637 28.6225C36.7861 27.7822 36.6056 26.8474 35.987 26.1646C35.3715 25.4817 34.4104 25.1511 33.4632 25.2971C33.4617 25.2971 33.4601 25.2985 33.4571 25.2985C31.7632 25.5676 29.5218 26.2004 27.686 27.6262C24.2459 30.3003 23.6644 34.791 23.6644 34.791C23.5872 35.3923 24.0531 35.9377 24.701 36.0079C25.3489 36.0794 25.9367 35.6485 26.0123 35.0459C26.0123 35.0459 26.455 31.4455 29.2055 29.3082C30.6788 28.163 32.4898 27.6777 33.852 27.4616C33.9738 27.4429 34.0957 27.4859 34.1744 27.5732C34.2531 27.6605 34.2762 27.7794 34.2361 27.8867C33.7671 29.0935 32.9356 30.6639 31.4624 31.8077C30.5677 32.5034 29.5588 32.953 28.6101 33.2507C27.9899 33.444 27.6583 34.0653 27.8665 34.6393C28.0748 35.2134 28.7458 35.5226 29.3644 35.3293Z" fill="#F4FFFB"/>
<path fill-rule="evenodd" clip-rule="evenodd" d="M41.7656 23.0765C41.7656 23.0779 41.7656 23.0779 41.7671 23.0794C42.3471 24.5782 43.4116 26.5065 45.2396 27.928C48.6643 30.5892 53.4048 30.4461 53.4048 30.4461C53.7349 30.4361 54.045 30.2986 54.261 30.0653C54.4754 29.8334 54.5757 29.527 54.5371 29.2236C54.5371 29.2236 53.9571 24.7414 50.5231 22.073C48.6951 20.6515 46.4614 20.0202 44.7706 19.751C44.7691 19.7496 44.7675 19.7496 44.766 19.7496C43.8188 19.6036 42.8578 19.9328 42.2407 20.6171C41.6236 21.3014 41.4431 22.2362 41.7656 23.0765ZM43.9916 22.3393C43.9515 22.2319 43.9746 22.1131 44.0533 22.0243C44.132 21.937 44.2554 21.8955 44.3757 21.9141C45.7348 22.1303 47.5381 22.6141 49.0052 23.7551C50.6944 25.0678 51.5104 26.9331 51.8884 28.1742C50.5262 28.0139 48.4437 27.5544 46.7576 26.2459C45.2905 25.105 44.4606 23.5418 43.9916 22.3393Z" fill="#F4FFFB"/>
<path fill-rule="evenodd" clip-rule="evenodd" d="M53.8232 30.4461C53.8232 30.4461 58.5622 30.5892 61.9869 27.928C63.8165 26.5065 64.8793 24.5782 65.4609 23.0794C65.4609 23.0779 65.4625 23.0779 65.4625 23.0765C65.7849 22.2362 65.6044 21.3014 64.9858 20.6171C64.3687 19.9328 63.4092 19.6036 62.4605 19.7496C62.4589 19.7496 62.4574 19.7496 62.4559 19.751C61.1755 19.9543 59.5804 20.3652 58.0902 21.1726C57.5256 21.4775 57.3358 22.1489 57.6644 22.6714C57.993 23.1953 58.718 23.3714 59.2811 23.0665C60.4998 22.408 61.8049 22.0816 62.8508 21.9141C62.9726 21.8955 63.0945 21.937 63.1732 22.0243C63.2519 22.1131 63.275 22.2319 63.2349 22.3393C62.7675 23.5418 61.9375 25.105 60.4689 26.2459C57.7169 28.3847 53.9034 28.2544 53.9034 28.2544C53.2509 28.2344 52.7033 28.7082 52.6817 29.3137C52.6585 29.9178 53.1707 30.426 53.8232 30.4461Z" fill="#F4FFFB"/>
<path fill-rule="evenodd" clip-rule="evenodd" d="M43.9854 7.37564C43.987 7.37564 43.987 7.3785 43.9885 7.37994C44.5701 8.8759 45.6314 10.8056 47.461 12.2271C50.8857 14.8884 55.6262 14.7466 55.6262 14.7466C55.9563 14.7352 56.2664 14.5963 56.4808 14.3644C56.6968 14.1311 56.7971 13.8262 56.7585 13.5212C56.7585 13.5212 56.1785 9.04052 52.7446 6.37213C50.9165 4.95061 48.6843 4.3193 46.992 4.05017C46.9905 4.05017 46.989 4.05017 46.9874 4.04874C46.0387 3.90129 45.0792 4.23198 44.4621 4.91482C43.8451 5.5991 43.6646 6.53533 43.9854 7.37564ZM46.213 6.6384C46.1729 6.53103 46.196 6.41078 46.2747 6.32346C46.3534 6.23757 46.4768 6.19462 46.5971 6.21323C47.9562 6.42939 49.7595 6.91325 51.2266 8.05419C52.9158 9.36692 53.7319 11.2322 54.1098 12.4719C52.7476 12.313 50.6651 11.8549 48.979 10.5451C47.5104 9.40414 46.6804 7.84089 46.213 6.6384Z" fill="#F4FFFB"/>
<path fill-rule="evenodd" clip-rule="evenodd" d="M55.4796 14.7466C55.4796 14.7466 60.2186 14.8884 63.6448 12.2271C65.4728 10.8056 66.5357 8.8759 67.1173 7.37994C67.1188 7.3785 67.1188 7.37564 67.1188 7.37564C67.4412 6.53533 67.2607 5.5991 66.6437 4.91482C66.0266 4.23198 65.0655 3.90129 64.1168 4.04874C64.1153 4.05017 64.1137 4.05017 64.1122 4.05017C62.4215 4.3193 60.1877 4.95061 58.3612 6.37213C57.8568 6.76294 57.414 7.19097 57.0237 7.63905C56.6149 8.11145 56.6936 8.80289 57.2027 9.18225C57.7102 9.56161 58.4553 9.4886 58.8657 9.01619C59.1603 8.67691 59.4966 8.35052 59.8792 8.05419C61.3462 6.91325 63.1496 6.42939 64.5071 6.21323C64.629 6.19462 64.7524 6.23757 64.8311 6.32346C64.9097 6.41078 64.9329 6.53103 64.8912 6.6384C64.4238 7.84089 63.5939 9.40414 62.1268 10.5451C59.3747 12.6824 55.5613 12.5535 55.5613 12.5535C54.9088 12.5321 54.3596 13.0073 54.338 13.6114C54.3164 14.217 54.827 14.7252 55.4796 14.7466Z" fill="#F4FFFB"/>
<path fill-rule="evenodd" clip-rule="evenodd" d="M50.4673 42.2122C54.0709 34.5548 56.9325 24.8118 56.7598 13.3308C56.7505 12.7267 56.2137 12.2414 55.5611 12.25C54.9086 12.2586 54.3856 12.7568 54.3949 13.3609C54.563 24.4811 51.7909 33.9178 48.2999 41.3346C48.0392 41.8901 48.3138 42.5371 48.9108 42.7791C49.5093 43.021 50.2066 42.7676 50.4673 42.2122Z" fill="#F4FFFB"/>
<mask id="mask1_99_2198" style="mask-type:luminance" maskUnits="userSpaceOnUse" x="0" y="40" width="17" height="30">
<path d="M0 40.6785H16.568V69.63H0V40.6785Z" fill="white"/>
</mask>
<g mask="url(#mask1_99_2198)">
<path fill-rule="evenodd" clip-rule="evenodd" d="M16.2563 46.9789C16.2563 45.8652 15.65 44.8273 14.6427 44.2204C13.4055 43.4731 11.3738 42.2463 10.0518 41.4503C8.87629 40.7403 7.35987 40.7403 6.18437 41.4503C4.86233 42.2463 2.83066 43.4731 1.59346 44.2204C0.58766 44.8273 -0.0201416 45.8652 -0.0201416 46.9789V66.2847C-0.0201416 67.1579 0.353178 67.9954 1.01806 68.6124C1.68294 69.2294 2.58538 69.5758 3.5264 69.5758C7.49716 69.5758 15.0746 69.5758 15.0746 69.5758C15.7272 69.5758 16.2563 69.0848 16.2563 68.4792V46.9789ZM13.8914 46.9789V67.3827H3.5264C3.21324 67.3827 2.91242 67.2667 2.69028 67.0606C2.46814 66.8545 2.34319 66.5767 2.34319 66.2847V46.9789C2.34319 46.6082 2.54682 46.2617 2.88157 46.0599C4.12031 45.3126 6.15198 44.0858 7.47402 43.2884C7.86585 43.0522 8.3703 43.0522 8.76213 43.2884C10.0842 44.0858 12.1158 45.3126 13.3546 46.0599C13.6893 46.2617 13.8914 46.6082 13.8914 46.9789Z" fill="#F4FFFB"/>
</g>
<path fill-rule="evenodd" clip-rule="evenodd" d="M28.9858 69.5758H42.8974C43.5514 69.5758 44.0806 69.0847 44.0806 68.4792V46.9789C44.0806 45.8651 43.4728 44.8273 42.467 44.2203C41.2298 43.473 39.1981 42.2462 37.8761 41.4503C36.7006 40.7402 35.1841 40.7402 34.0087 41.4503C32.6866 42.2462 30.6549 43.473 29.4177 44.2203C28.8701 44.5495 28.7143 45.2295 29.0706 45.7377C29.4255 46.2445 30.1598 46.3891 30.7059 46.0598C31.9446 45.3126 33.9763 44.0857 35.2968 43.2884C35.6886 43.0522 36.1946 43.0522 36.5864 43.2884C37.9085 44.0857 39.9401 45.3126 41.1789 46.0598C41.5136 46.2617 41.7157 46.6081 41.7157 46.9789V67.3826H28.9858C28.3333 67.3826 27.8041 67.8736 27.8041 68.4792C27.8041 69.0847 28.3333 69.5758 28.9858 69.5758Z" fill="#F4FFFB"/>
<path fill-rule="evenodd" clip-rule="evenodd" d="M15.0752 69.5758H28.9868C29.6393 69.5758 30.17 69.0847 30.17 68.4792V46.9789C30.17 45.8651 29.5622 44.8273 28.5564 44.2203C27.3177 43.473 25.286 42.2462 23.964 41.4503C22.7885 40.7402 21.2736 40.7402 20.0965 41.4503C19.552 41.7781 18.7452 42.2662 17.8983 42.7759C17.3522 43.1066 17.1964 43.7865 17.5527 44.2933C17.9091 44.8015 18.6403 44.9461 19.1879 44.6154C20.0348 44.1058 20.8416 43.6176 21.3862 43.2884C21.778 43.0522 22.284 43.0522 22.6758 43.2884C23.9979 44.0857 26.0296 45.3126 27.2668 46.0598C27.603 46.2617 27.8051 46.6081 27.8051 46.9789V67.3826H15.0752C14.4227 67.3826 13.892 67.8736 13.892 68.4792C13.892 69.0847 14.4227 69.5758 15.0752 69.5758Z" fill="#F4FFFB"/>
<path fill-rule="evenodd" clip-rule="evenodd" d="M42.8979 69.5758H56.811C57.4635 69.5758 57.9926 69.0847 57.9926 68.4792V46.9789C57.9926 45.8651 57.3864 44.8273 56.3806 44.2203C55.1418 43.473 53.1102 42.2462 51.7881 41.4503C50.6126 40.7402 49.0962 40.7402 47.9222 41.4503C46.6002 42.2462 44.5685 43.473 43.3298 44.2203C42.324 44.8273 41.7162 45.8651 41.7162 46.9789C41.7162 47.5844 42.2453 48.0769 42.8979 48.0769C43.5504 48.0769 44.0811 47.5844 44.0811 46.9789C44.0811 46.6081 44.2831 46.2617 44.6194 46.0598C45.8566 45.3126 47.8883 44.0857 49.2104 43.2884C49.6022 43.0522 50.1066 43.0522 50.4985 43.2884C51.8205 44.0857 53.8522 45.3126 55.0909 46.0598C55.4257 46.2617 55.6293 46.6081 55.6293 46.9789V67.3826H42.8979C42.2453 67.3826 41.7162 67.8736 41.7162 68.4792C41.7162 69.0847 42.2453 69.5758 42.8979 69.5758Z" fill="#F4FFFB"/>
<mask id="mask2_99_2198" style="mask-type:luminance" maskUnits="userSpaceOnUse" x="55" y="40" width="17" height="30">
<path d="M55.27 40.6785H71.9629V69.63H55.27V40.6785Z" fill="white"/>
</mask>
<g mask="url(#mask2_99_2198)">
<path fill-rule="evenodd" clip-rule="evenodd" d="M56.8111 69.5758H68.3594C69.2988 69.5758 70.2013 69.2294 70.8677 68.6124C71.5326 67.9954 71.9059 67.1579 71.9059 66.2847C71.9059 61.5706 71.9059 50.6079 71.9059 46.9789C71.9059 45.8652 71.2981 44.8273 70.2923 44.2204C69.0535 43.4731 67.0219 42.2463 65.6998 41.4503C64.5259 40.7403 63.0095 40.7403 61.834 41.4503C61.1922 41.8368 60.3839 42.325 59.5786 42.8103C59.031 43.141 58.8767 43.821 59.2315 44.3277C59.5879 44.8359 60.3206 44.9805 60.8683 44.6498C61.672 44.1645 62.4819 43.6764 63.1236 43.2884C63.5155 43.0522 64.0199 43.0522 64.4117 43.2884C65.7338 44.0858 67.7654 45.3126 69.0026 46.0599C69.3389 46.2617 69.541 46.6082 69.541 46.9789V66.2847C69.541 66.5767 69.4161 66.8545 69.1939 67.0606C68.9733 67.2667 68.6725 67.3827 68.3594 67.3827H56.8111C56.1586 67.3827 55.6295 67.8737 55.6295 68.4792C55.6295 69.0848 56.1586 69.5758 56.8111 69.5758Z" fill="#F4FFFB"/>
</g>
<path fill-rule="evenodd" clip-rule="evenodd" d="M6.93573 52.2774V53.5945C6.93573 54.2 7.4664 54.691 8.11894 54.691C8.77148 54.691 9.3006 54.2 9.3006 53.5945V52.2774C9.3006 51.6719 8.77148 51.1794 8.11894 51.1794C7.4664 51.1794 6.93573 51.6719 6.93573 52.2774Z" fill="#F4FFFB"/>
<path fill-rule="evenodd" clip-rule="evenodd" d="M34.7604 52.2774V53.5945C34.7604 54.2 35.2895 54.691 35.942 54.691C36.5946 54.691 37.1252 54.2 37.1252 53.5945V52.2774C37.1252 51.6719 36.5946 51.1794 35.942 51.1794C35.2895 51.1794 34.7604 51.6719 34.7604 52.2774Z" fill="#F4FFFB"/>
<path fill-rule="evenodd" clip-rule="evenodd" d="M20.8472 52.2774V53.5945C20.8472 54.2 21.3779 54.691 22.0304 54.691C22.683 54.691 23.2121 54.2 23.2121 53.5945V52.2774C23.2121 51.6719 22.683 51.1794 22.0304 51.1794C21.3779 51.1794 20.8472 51.6719 20.8472 52.2774Z" fill="#F4FFFB"/>
<path fill-rule="evenodd" clip-rule="evenodd" d="M48.6738 52.2774V53.5945C48.6738 54.2 49.2029 54.691 49.8554 54.691C50.508 54.691 51.0371 54.2 51.0371 53.5945V52.2774C51.0371 51.6719 50.508 51.1794 49.8554 51.1794C49.2029 51.1794 48.6738 51.6719 48.6738 52.2774Z" fill="#F4FFFB"/>
<path fill-rule="evenodd" clip-rule="evenodd" d="M62.5855 52.2776V53.5946C62.5855 54.2002 63.1146 54.6912 63.7672 54.6912C64.4197 54.6912 64.9488 54.2002 64.9488 53.5946V52.2776C64.9488 51.6721 64.4197 51.1796 63.7672 51.1796C63.1146 51.1796 62.5855 51.6721 62.5855 52.2776Z" fill="#F4FFFB"/>
</svg>
