<svg width="42" height="42" viewBox="0 0 42 42" fill="none" xmlns="http://www.w3.org/2000/svg">
<path fill-rule="evenodd" clip-rule="evenodd" d="M12.3263 0.25773C8.90772 0.411975 5.94471 1.24777 3.55214 3.63023C1.15121 6.02521 0.325797 8.99995 0.171168 12.3829C0.0750464 14.4944 -0.48702 30.4463 1.14285 34.6297C2.24197 37.452 4.40673 39.622 7.25482 40.7246C8.5838 41.2416 10.1009 41.5915 12.3263 41.6936C30.934 42.5357 37.8317 42.0773 40.7404 34.6297C41.2565 33.304 41.6117 31.7883 41.7099 29.5684C42.5604 10.913 41.5721 6.86938 38.329 3.63023C35.7568 1.06433 32.731 -0.682331 12.3263 0.25773ZM12.4976 37.9417C10.4602 37.85 9.35487 37.5105 8.61725 37.225C6.7617 36.5038 5.36795 35.1158 4.65123 33.2711C3.41002 30.0924 3.82168 14.995 3.93243 12.5521C4.04109 10.1592 4.52586 7.97228 6.21424 6.28393C8.30382 4.19952 11.0035 3.17797 29.3856 4.00757C31.7844 4.11595 33.9764 4.59974 35.669 6.28393C37.7586 8.36832 38.795 11.0888 37.9508 29.4003C37.8589 31.4325 37.5183 32.5353 37.232 33.2711C35.3409 38.1173 30.9904 38.7901 12.4976 37.9417ZM29.5883 9.84818C29.5883 11.2281 30.7104 12.3501 32.0958 12.3501C33.4812 12.3501 34.6054 11.2281 34.6054 9.84818C34.6054 8.46831 33.4812 7.34726 32.0958 7.34726C30.7104 7.34726 29.5883 8.46831 29.5883 9.84818ZM10.2116 20.9746C10.2116 26.886 15.0156 31.6787 20.9416 31.6787C26.8677 31.6787 31.6716 26.886 31.6716 20.9746C31.6716 15.0633 26.8677 10.2737 20.9416 10.2737C15.0156 10.2737 10.2116 15.0633 10.2116 20.9746ZM13.977 20.9746C13.977 17.1394 17.0947 14.0277 20.9416 14.0277C24.7885 14.0277 27.9062 17.1394 27.9062 20.9746C27.9062 24.812 24.7885 27.9247 20.9416 27.9247C17.0947 27.9247 13.977 24.812 13.977 20.9746Z" fill="#16573F"/>
</svg>
