<svg width="34" height="42" viewBox="0 0 34 42" fill="none" xmlns="http://www.w3.org/2000/svg">
<path d="M17.2 15.3001L24.8 7.7001M17.2 25.7502L22.9 20.0502M29.55 13.4001L26.4625 16.4876M17.2 35.2502L20.7625 31.6877M31.45 21.0002L24.325 28.1252" stroke="#E1EAD6" stroke-width="3" stroke-linecap="round"/>
<path d="M17.2 40C25.5948 40 32.4 33.0728 32.4 24.5277C32.4 16.0496 27.5487 6.15642 19.9795 2.61855C19.0973 2.20619 18.1487 2 17.2 2M17.2 40C8.80527 40 2 33.0728 2 24.5277C2 21.5143 2.6129 18.3221 3.74289 15.3M17.2 40V2M17.2 2C16.2513 2 15.3027 2.20619 14.4205 2.61855C11.3785 4.04037 8.77551 6.48867 6.75 9.45908" stroke="#E1EAD6" stroke-width="3" stroke-linecap="round"/>
</svg>
