<svg width="63" height="79" viewBox="0 0 63 79" fill="none" xmlns="http://www.w3.org/2000/svg">
<mask id="mask0_99_2165" style="mask-type:luminance" maskUnits="userSpaceOnUse" x="0" y="0" width="63" height="79">
<path d="M0 0H62.4211V79H0V0Z" fill="white"/>
</mask>
<g mask="url(#mask0_99_2165)">
<path d="M62.1563 70.0294C62.1206 69.4736 62.0247 68.9274 61.8703 68.3911C61.7159 67.8563 61.5046 67.3427 61.2396 66.8535C60.9731 66.3642 60.6577 65.9075 60.292 65.4865C59.9263 65.0639 59.52 64.6868 59.073 64.3536C59.5736 63.8953 60.0141 63.3849 60.3912 62.8209C60.7699 62.2569 61.0755 61.6555 61.3079 61.0167C61.5387 60.3796 61.6915 59.7229 61.7646 59.0484C61.8394 58.3738 61.8296 57.7009 61.7402 57.028C61.3762 53.4424 59.242 50.8483 56.3342 50.4469C56.7763 49.826 57.0965 49.1482 57.2932 48.4119C57.472 47.7325 57.5809 47.0417 57.6199 46.3411C57.6605 45.639 57.6297 44.9401 57.5305 44.2444C57.4297 43.5487 57.2623 42.871 57.0266 42.2078C56.791 41.5463 56.4919 40.914 56.1294 40.311C55.7751 39.7925 55.3281 39.3715 54.7885 39.0497C54.2489 38.7262 53.667 38.5328 53.0412 38.4662C51.7328 38.3443 47.5978 38.2289 42.3364 38.1249C44.6867 36.2264 47.3345 32.4523 48.6055 24.9365C49.4491 20.4391 49.2606 11.9676 43.3734 9.33286C44.0138 8.5738 44.5063 7.72861 44.8509 6.79726C45.1955 5.86592 45.371 4.90369 45.3775 3.91059C45.0785 2.49651 43.5262 2.03815 42.2633 2.09666C38.0357 1.7342 34.9182 2.55014 32.958 4.51685C32.7711 3.3157 32.5094 2.12917 32.1729 0.960522C32.1225 0.799609 32.0429 0.65495 31.9356 0.52492C31.8284 0.394889 31.6999 0.29249 31.5504 0.212847C31.4009 0.134829 31.2432 0.0876927 31.0742 0.0714387C30.9068 0.0568104 30.7426 0.073064 30.5817 0.123451C30.4208 0.172212 30.2745 0.25023 30.1445 0.357506C30.0144 0.464781 29.9104 0.593186 29.8308 0.742721C29.7527 0.890631 29.704 1.04829 29.6877 1.21571C29.6731 1.38312 29.6894 1.54728 29.7381 1.7082C30.3623 3.99836 30.7361 6.3259 30.858 8.69571C27.695 8.08294 20.9692 7.57257 17.4389 13.211C17.4063 13.2663 17.3755 13.3232 17.3495 13.3817C16.2426 15.9693 15.5843 18.6658 15.3746 21.4712C14.9748 26.0596 15.8639 33.868 20.7953 37.8112C14.0158 37.7331 8.71056 37.686 8.1238 37.6811C7.95639 37.6827 7.79547 37.7169 7.64106 37.7819C7.48665 37.8469 7.34849 37.9379 7.22984 38.055C7.10956 38.172 7.01692 38.3069 6.94865 38.4597C6.88201 38.6141 6.84463 38.7734 6.83975 38.9408C6.83813 39.1098 6.86901 39.2724 6.9324 39.4284C6.99416 39.5844 7.08518 39.7226 7.20384 39.8429C7.32249 39.9632 7.45902 40.0558 7.61506 40.1224C7.77109 40.1875 7.93201 40.2216 8.10105 40.2232C8.13193 40.2232 8.40499 40.2265 8.84385 40.2297C9.40785 41.4325 10.5521 44.8556 8.80321 50.099C6.86413 50.0633 4.92018 50.0243 2.9746 49.9836C2.70803 49.9706 2.4431 49.9771 2.17816 50.0015C2.10014 50.0048 1.94735 49.9999 1.62715 49.9918H1.59627C1.42886 49.9918 1.26632 50.0243 1.11191 50.0877C0.957498 50.151 0.81934 50.2421 0.700688 50.3591C0.582034 50.4761 0.489388 50.6126 0.422747 50.7654C0.357732 50.9198 0.3236 51.0808 0.321974 51.2482C0.320349 51.4156 0.349606 51.5765 0.41137 51.7325C0.473134 51.8869 0.56253 52.0251 0.679558 52.1454C0.794959 52.2657 0.929866 52.3599 1.08265 52.4266C1.23706 52.4948 1.39798 52.5306 1.56539 52.5338C1.80757 52.5387 2.04813 52.5387 2.27893 52.5208C2.62676 53.3303 2.88195 54.1674 3.04449 55.0321C3.20702 55.8984 3.27366 56.7712 3.24441 57.6505C3.21515 58.5299 3.09 59.3962 2.86895 60.2495C2.64789 61.1012 2.33745 61.9204 1.9376 62.7039C1.77831 62.7006 1.61903 62.6974 1.45161 62.6925C1.28257 62.6909 1.12004 62.7201 0.963999 62.7819C0.807963 62.8436 0.66818 62.933 0.546276 63.0484C0.424373 63.1638 0.328476 63.2987 0.260209 63.4515C0.190318 63.6043 0.152934 63.7652 0.146433 63.9326C0.143182 64.1017 0.170813 64.2642 0.232578 64.4219C0.292717 64.5795 0.382113 64.7193 0.497515 64.8412C0.614542 64.9631 0.749449 65.059 0.90386 65.1273C1.05827 65.1956 1.22081 65.2313 1.38985 65.2362C2.03675 65.2508 2.54387 65.2638 3.48984 65.2768C3.81817 66.1562 4.04897 67.0615 4.18225 67.9912C4.31391 68.9209 4.34479 69.8539 4.2749 70.7901C4.20501 71.7263 4.03434 72.6447 3.76453 73.5451C3.49472 74.444 3.13063 75.3038 2.6739 76.1246C2.65114 76.1815 2.63327 76.24 2.62026 76.2985C2.1294 76.2888 1.68567 76.2758 1.2842 76.2612C1.11679 76.2563 0.954247 76.2839 0.796585 76.344C0.640548 76.4026 0.500766 76.4903 0.377237 76.6041C0.255333 76.7195 0.159436 76.8528 0.0895444 77.0056C0.0196529 77.1584 -0.0177308 77.3193 -0.0242323 77.4867C-0.0307338 77.6541 -0.00472772 77.8166 0.053786 77.9743C0.1123 78.1303 0.198445 78.2718 0.312222 78.3937C0.425998 78.5172 0.55928 78.6147 0.712065 78.6846C0.864851 78.7561 1.02576 78.7951 1.19318 78.8016C2.82343 78.8618 5.1266 78.8878 8.51227 78.8878C14.4075 78.8878 23.5877 78.8081 38.2063 78.6797L56.253 78.5269C56.3619 78.5253 56.4675 78.5107 56.5732 78.4814C57.0185 78.3579 57.4509 78.197 57.867 77.9954C58.2831 77.7955 58.678 77.5598 59.0519 77.2884C59.4257 77.017 59.7735 76.713 60.0921 76.3798C60.4123 76.0466 60.6984 75.6858 60.9536 75.3006C61.2087 74.9153 61.4265 74.5106 61.6086 74.0864C61.789 73.6622 61.932 73.2233 62.0344 72.7747C62.1368 72.3245 62.1986 71.8678 62.2197 71.4078C62.2392 70.9462 62.2197 70.4862 62.1563 70.0294ZM59.2046 57.2832C59.4436 59.6173 58.5691 62.304 56.1034 63.1508C19.8282 62.8794 8.99175 62.7981 4.74626 62.7494C4.73651 62.7461 4.72676 62.738 4.717 62.7331C5.04533 61.9302 5.30052 61.1029 5.48093 60.2544C5.66135 59.4043 5.76537 58.5461 5.79138 57.6782C5.81739 56.8119 5.767 55.9471 5.63697 55.0889C5.50856 54.2307 5.30377 53.3904 5.02257 52.568C15.8167 52.789 26.5296 52.9174 35.583 52.9353L35.4643 58.5981C35.4611 58.707 35.4725 58.8127 35.4985 58.9183C35.5228 59.024 35.5602 59.1248 35.6106 59.2207C35.6626 59.3149 35.7244 59.4027 35.7975 59.484C35.8707 59.5636 35.9519 59.6319 36.043 59.692C36.134 59.7505 36.2299 59.7977 36.3339 59.8318C36.4363 59.8659 36.542 59.8871 36.6492 59.8936C36.7581 59.9017 36.8654 59.8952 36.9711 59.8757C37.0783 59.8562 37.1807 59.8221 37.2783 59.7765L41.6392 57.7318L46.2959 60.1276C46.3918 60.1764 46.4925 60.2138 46.5982 60.2382C46.7022 60.2609 46.8095 60.2723 46.9168 60.269C47.0257 60.2658 47.1313 60.2479 47.2353 60.2186C47.3377 60.1878 47.4369 60.1455 47.5295 60.0902C47.6222 60.0366 47.7067 59.97 47.7831 59.8936C47.8595 59.8172 47.9245 59.7327 47.9781 59.64C48.0334 59.5474 48.0757 59.4482 48.1049 59.3442C48.1342 59.2418 48.1504 59.1361 48.1537 59.0272C48.1748 58.0943 48.2333 55.4807 48.2821 52.7874C48.6039 52.7858 48.8997 52.7874 49.1712 52.7858C49.8424 52.7907 50.3853 52.7907 50.8762 52.7663H50.8876C50.9136 52.7679 50.9363 52.7825 50.964 52.7842L55.9149 52.9337C57.9011 53.1109 58.9982 55.2466 59.2046 57.2832ZM45.8148 46.3672C45.8229 48.16 45.7351 52.9987 45.6522 56.9354L42.2487 55.1848C42.0731 55.0938 41.8878 55.0467 41.6895 55.0434C41.4912 55.0402 41.3043 55.0808 41.1255 55.1637L38.0552 56.6038L38.2697 46.398L45.8148 46.3672ZM34.7037 6.37304C36.1047 4.90532 38.5997 4.32181 42.1219 4.63713C42.1837 4.64201 42.2454 4.64363 42.3072 4.63876C42.4795 4.63388 42.6518 4.64688 42.8224 4.67452C42.642 5.50509 42.3316 6.28364 41.8927 7.01181C41.4522 7.73836 40.9061 8.37551 40.2527 8.92164C39.7716 9.27759 39.258 9.57666 38.7118 9.8221C38.1657 10.0659 37.5985 10.2496 37.0117 10.3715C36.4266 10.4934 35.8333 10.5503 35.2351 10.5438C34.6354 10.5373 34.0454 10.4657 33.4619 10.3308V10.3113C33.4586 10.0139 33.4521 9.72132 33.4424 9.43201C33.4667 8.86475 33.587 8.31862 33.8048 7.792C34.021 7.267 34.3217 6.79401 34.7037 6.37304ZM17.9167 21.5964C18.1118 19.129 18.6904 16.7543 19.6543 14.4739C22.5279 10.0106 28.5272 10.7924 30.8531 11.2947C30.7962 12.3171 30.728 13.7848 30.7361 14.8348C30.2127 15.0314 29.6796 15.0704 29.1335 14.9502C28.7596 14.8234 28.4996 14.5763 28.3549 14.209C28.2801 14.0578 28.1794 13.9246 28.0526 13.814C27.9258 13.7019 27.7828 13.619 27.6219 13.5637C27.4626 13.5085 27.2984 13.4873 27.1294 13.4987C26.9603 13.5085 26.7994 13.5507 26.6483 13.6255C26.4955 13.7003 26.3638 13.801 26.2533 13.9278C26.1411 14.0546 26.0583 14.1992 26.003 14.3585C25.9494 14.5178 25.9282 14.6836 25.9396 14.851C25.951 15.0201 25.9932 15.1794 26.068 15.3305C26.2923 15.8181 26.6044 16.2391 27.0058 16.5951C27.4057 16.9494 27.8608 17.2111 28.3712 17.3769C28.7938 17.5069 29.2261 17.5703 29.6666 17.567C30.3931 17.5557 31.0953 17.424 31.7747 17.1688C32.2981 17.4403 32.854 17.5882 33.444 17.6093C35.3213 17.741 37.6212 16.9656 38.156 15.0087C38.1982 14.8461 38.2096 14.682 38.1868 14.5162C38.1641 14.3488 38.1121 14.1944 38.0276 14.0481C37.943 13.9034 37.8341 13.7799 37.7009 13.6775C37.5692 13.5751 37.4213 13.502 37.2588 13.4581C37.0962 13.4126 36.932 13.4012 36.7663 13.4223C36.5988 13.4434 36.4428 13.4955 36.2965 13.5784C36.1502 13.6612 36.0251 13.7685 35.9211 13.9002C35.817 14.0318 35.7439 14.1797 35.6984 14.3407C35.6334 14.5763 35.3457 14.7421 35.1165 14.8396C34.5216 15.0688 33.9105 15.1338 33.2814 15.0363C33.2717 14.5227 33.2928 13.7214 33.3286 12.8648C34.0161 12.9688 34.7069 13.0257 35.4026 13.0355C36.4526 13.0615 37.4831 12.9266 38.4908 12.6308C39.4985 12.3349 40.438 11.8928 41.3076 11.3044C48.1277 13.0127 46.122 24.3562 46.0976 24.4912C43.9618 37.1025 37.8796 37.5023 37.839 37.504C37.7626 37.5056 37.6862 37.5121 37.6115 37.5267C35.7325 37.8957 33.8227 34.9131 33.3188 33.8387C33.2132 33.616 33.0571 33.4389 32.8507 33.3056C32.6427 33.1739 32.4151 33.1073 32.1681 33.1073H32.1632C31.9177 33.1073 31.6918 33.1723 31.4838 33.3023C31.2773 33.4324 31.1197 33.6079 31.014 33.829C29.2407 37.543 27.0644 37.6437 27.0871 37.6519C16.7448 36.7351 17.8598 22.3034 17.9167 21.5964ZM32.1843 36.8668C32.4655 37.252 32.7694 37.621 33.0961 37.9704C32.5013 37.9607 31.9047 37.9526 31.3066 37.9444C31.6236 37.6047 31.9161 37.2455 32.1843 36.8668ZM11.5794 40.2557C21.434 40.3532 49.1387 40.6556 52.8023 40.9985C53.064 41.0327 53.3061 41.1188 53.5272 41.2618C53.7499 41.4032 53.9303 41.5853 54.0684 41.808C54.5772 42.7328 54.8941 43.7178 55.0225 44.7645C55.1493 45.8097 55.0762 46.8434 54.8047 47.8609C54.6162 48.711 53.5532 50.0421 53.0249 50.0828C52.4577 50.1299 51.7149 50.1787 50.7494 50.2258C50.3008 50.2486 49.8018 50.2469 49.1809 50.2437C48.9192 50.2437 48.6332 50.2437 48.326 50.2437C48.3617 47.8999 48.378 45.9055 48.339 45.4732C48.3357 45.4391 48.3146 45.4114 48.3097 45.3773C48.3406 45.283 48.3601 45.1855 48.3666 45.0864C48.3666 44.9189 48.3341 44.7564 48.2691 44.602C48.2041 44.446 48.1114 44.3094 47.9928 44.1908C47.8725 44.0721 47.736 43.9811 47.5799 43.9161C47.4239 43.8527 47.2613 43.8202 47.0939 43.8202H47.0891L29.5284 43.8901C29.361 43.8917 29.1985 43.9242 29.0424 43.9892C28.8864 44.0526 28.7483 44.1453 28.6296 44.2655C28.5093 44.3842 28.4183 44.5223 28.3533 44.6784C28.2899 44.8344 28.2574 44.9953 28.2574 45.1644C28.259 45.3334 28.2915 45.496 28.3565 45.6504C28.4216 45.8064 28.5126 45.9446 28.6329 46.0632C28.7531 46.1819 28.8897 46.2729 29.0473 46.3379C29.2034 46.4013 29.3659 46.4338 29.5349 46.4338H29.5398L35.7211 46.4078L35.6366 50.3916C28.3793 50.3786 20.0557 50.2957 11.4656 50.1478C11.9987 48.5452 12.275 46.8987 12.2945 45.2115C12.3124 43.5227 12.0751 41.8714 11.5794 40.2557ZM56.0579 75.9848L38.1836 76.1376C20.6636 76.2904 10.9763 76.3749 5.40454 76.3359C5.80276 75.4777 6.11971 74.5919 6.35701 73.6784C6.59269 72.7633 6.74385 71.8352 6.81049 70.8925C6.87713 69.9514 6.85763 69.0103 6.75198 68.0725C6.64633 67.133 6.45616 66.2114 6.1831 65.3077C11.3339 65.3581 23.2837 65.4475 55.58 65.6897C55.6646 65.7238 55.7507 65.7498 55.8401 65.7645C58.1823 65.9546 59.4273 68.1603 59.6207 70.2619C59.6663 70.5642 59.6858 70.8681 59.6776 71.1753C59.6711 71.4809 59.6354 71.7849 59.5736 72.0856C59.5118 72.3846 59.4257 72.6772 59.3119 72.9616C59.1981 73.2461 59.06 73.5191 58.8974 73.7792C58.7365 74.0393 58.5529 74.2831 58.3464 74.5122C58.1416 74.7398 57.9173 74.9478 57.6752 75.1348C57.433 75.3233 57.1762 75.4891 56.9047 75.6321C56.6333 75.7752 56.3505 75.8922 56.0579 75.9848Z" fill="white"/>
</g>
<path d="M29.577 70.2262C27.5014 70.5074 15.064 70.262 10.443 70.1433H10.4105C10.2431 70.1433 10.0822 70.1758 9.9278 70.2392C9.77177 70.3026 9.63523 70.392 9.51658 70.5106C9.3963 70.6277 9.30366 70.7626 9.23864 70.917C9.17363 71.0714 9.13949 71.2323 9.13787 71.3997C9.13462 71.5655 9.1655 71.7281 9.22726 71.8825C9.2874 72.0385 9.3768 72.1767 9.49383 72.2969C9.60923 72.4172 9.74413 72.5115 9.89692 72.5781C10.0513 72.6464 10.2122 72.6822 10.3797 72.687C10.8543 72.6968 18.7487 72.8967 24.4538 72.8967C26.9845 72.8967 29.0878 72.8577 29.9167 72.7455C30.0841 72.7244 30.2418 72.6708 30.3881 72.5863C30.5344 72.5001 30.6595 72.3912 30.7619 72.2579C30.8643 72.123 30.9375 71.9751 30.9814 71.811C31.0236 71.6484 31.035 71.4826 31.0122 71.3152C30.9895 71.1478 30.9358 70.9918 30.8497 70.8455C30.7652 70.6992 30.6547 70.5757 30.5214 70.4733C30.3865 70.3709 30.2369 70.2977 30.0728 70.2555C29.9102 70.2132 29.7444 70.2018 29.577 70.2262Z" fill="white"/>
<path d="M31.0009 57.4361C30.7685 57.3581 30.5328 57.3499 30.2955 57.4085C29.1106 57.4686 21.0731 57.1663 16.1547 56.9468C15.9873 56.9452 15.8248 56.9729 15.6687 57.033C15.5127 57.0915 15.3713 57.1776 15.2478 57.2898C15.1242 57.4036 15.0267 57.5352 14.9536 57.6848C14.8804 57.8359 14.8382 57.9952 14.8268 58.161C14.8186 58.33 14.843 58.4926 14.9015 58.6519C14.9584 58.8095 15.0446 58.9509 15.1584 59.0761C15.2738 59.1996 15.407 59.2971 15.5598 59.3687C15.7126 59.4402 15.8735 59.4792 16.0426 59.4873C22.7781 59.7848 26.5669 59.9538 28.7287 59.9538C31.5064 59.9538 31.5991 59.6759 31.8088 59.0436C31.8624 58.8827 31.8835 58.7185 31.8705 58.5511C31.8575 58.3821 31.8136 58.2228 31.7389 58.0716C31.6625 57.9221 31.5601 57.792 31.4333 57.6815C31.3049 57.571 31.1602 57.4897 31.0009 57.4361Z" fill="white"/>
</svg>
