<svg width="81" height="77" viewBox="0 0 81 77" fill="none" xmlns="http://www.w3.org/2000/svg">
<path d="M53.0234 29.9469L53.1898 31.8047C53.7218 31.7448 54.2729 31.7132 54.8281 31.7132C55.285 31.7132 55.7584 31.7353 56.2303 31.7763L56.3599 29.9153C55.8443 29.8696 55.3287 29.8475 54.8281 29.8475C54.2183 29.8475 53.6113 29.8806 53.0234 29.9469Z" fill="white"/>
<path d="M46.6558 32.2579L47.492 33.8695C48.3596 33.2965 49.2831 32.8324 50.2352 32.4883L49.7318 30.711C48.6624 31.0961 47.6284 31.617 46.6558 32.2579Z" fill="white"/>
<path d="M24.522 57.748C25.6133 57.497 26.6882 57.1466 27.7153 56.703L27.1233 54.9589C26.1808 55.3661 25.1945 55.6881 24.1906 55.9186L24.522 57.748Z" fill="white"/>
<path d="M41.6849 37.2505L42.9876 38.4027C43.6383 37.4715 44.3354 36.6238 45.061 35.8867L43.952 34.4993C43.1568 35.309 42.3943 36.234 41.6849 37.2505Z" fill="white"/>
<path d="M18.0715 56.2642L17.9242 58.1236C18.6635 58.1977 19.4042 58.2356 20.1258 58.2356C20.4941 58.2356 20.8652 58.2262 21.228 58.2072L21.1503 56.3415C20.8133 56.3604 20.4682 56.3683 20.1258 56.3683C19.4533 56.3683 18.7617 56.3336 18.0715 56.2642Z" fill="white"/>
<path d="M32.3834 51.4895C31.5827 52.2298 30.7383 52.8959 29.8735 53.4673L30.7138 55.0773C31.6509 54.4554 32.5662 53.7356 33.4337 52.9354L32.3834 51.4895Z" fill="white"/>
<path d="M36.5806 46.4133C35.9572 47.3762 35.2983 48.2838 34.6204 49.1093L35.8358 50.3784C36.5574 49.4992 37.2585 48.5348 37.9201 47.5119L36.5806 46.4133Z" fill="white"/>
<path d="M11.4992 56.6083C12.5536 56.995 13.6204 57.3186 14.668 57.568L15.0117 55.7418C14.02 55.505 13.0106 55.2004 12.0107 54.8326L11.4992 56.6083Z" fill="white"/>
<path d="M65.1486 34.5703C66.0694 35.0391 67.012 35.571 67.9518 36.1503L68.7471 34.5135C67.7704 33.9105 66.7896 33.358 65.8307 32.8703L65.1486 34.5703Z" fill="white"/>
<path d="M59.2695 32.2989C60.2367 32.5435 61.2393 32.8671 62.2528 33.2633L62.7943 31.4986C61.7235 31.0803 60.6595 30.7378 59.631 30.4774L59.2695 32.2989Z" fill="white"/>
<mask id="mask0_99_2002" style="mask-type:luminance" maskUnits="userSpaceOnUse" x="0" y="13" width="81" height="64">
<path d="M0 13.6306H80.8889V76.9986H0V13.6306Z" fill="white"/>
</mask>
<g mask="url(#mask0_99_2002)">
<path d="M60.1616 50.4319L59.2763 50.495L58.6229 51.1911L47.6011 62.93L37.3609 27.3535L48.2572 16.6217L63.5773 17.2831L71.6404 36.4453C71.609 36.4217 71.5776 36.3996 71.5463 36.3775L70.6596 37.9543C71.459 38.5257 72.257 39.1318 73.0345 39.7585L77.0067 49.1991L60.1616 50.4319ZM65.1705 14.4593L47.3747 13.6921L35.4826 25.4057L32.5443 24.8075C32.161 25.6709 31.7395 26.5643 31.2853 27.4861L34.9792 28.2375L38.9692 42.0993C38.7441 42.5697 38.5149 43.0306 38.283 43.4773L39.6199 44.3644L45.274 64.0049L28.1684 63.102L27.429 63.0626L26.7893 63.4951L13.2084 72.6689L8.49143 55.1498L9.10118 53.584C8.65239 53.3615 8.24999 53.1484 7.90214 52.9558L2.95461 34.5796L12.2086 27.6803C11.7748 26.8074 11.3724 25.9613 11.0013 25.1406L0 33.3437L11.7543 76.9986L28.0538 65.989L47.4579 67.0134L60.3198 53.3141L80.8889 51.8099L65.1705 14.4593Z" fill="white"/>
</g>
<mask id="mask1_99_2002" style="mask-type:luminance" maskUnits="userSpaceOnUse" x="9" y="0" width="25" height="40">
<path d="M9.91266 0.368591H33.3094V39.1919H9.91266V0.368591Z" fill="white"/>
</mask>
<g mask="url(#mask1_99_2002)">
<path d="M15.4333 12.8114C15.4333 8.8164 18.2392 5.57744 21.6986 5.57744C25.1592 5.57744 27.9638 8.8164 27.9638 12.8114C27.9638 16.8065 25.1592 20.0454 21.6986 20.0454C18.2392 20.0454 15.4333 16.8065 15.4333 12.8114ZM33.1951 13.6417C33.1951 6.31142 28.0484 0.368591 21.6986 0.368591C15.3487 0.368591 10.2007 6.31142 10.2007 13.6417C10.2007 22.2047 21.6986 38.9441 21.6986 38.9441C21.6986 38.9441 33.1951 22.2047 33.1951 13.6417Z" fill="white"/>
</g>
</svg>
