<svg width="42" height="35" viewBox="0 0 42 35" fill="none" xmlns="http://www.w3.org/2000/svg">
<path d="M15.3 15.5625C17.3987 15.5625 19.1 13.8276 19.1 11.6875C19.1 9.5474 17.3987 7.8125 15.3 7.8125C13.2013 7.8125 11.5 9.5474 11.5 11.6875C11.5 13.8276 13.2013 15.5625 15.3 15.5625Z" stroke="#07402B" stroke-width="3"/>
<path d="M22.9 23.3125C22.9 25.4527 22.9 27.1875 15.3 27.1875C7.69995 27.1875 7.69995 25.4527 7.69995 23.3125C7.69995 21.1723 11.1026 19.4375 15.3 19.4375C19.4972 19.4375 22.9 21.1723 22.9 23.3125Z" stroke="#07402B" stroke-width="3"/>
<path d="M2 17.5C2 10.1932 2 6.53985 4.22598 4.26992C6.45198 2 10.0346 2 17.2 2H24.8C31.9653 2 35.5481 2 37.774 4.26992C40 6.53985 40 10.1932 40 17.5C40 24.8067 40 28.4602 37.774 30.73C35.5481 33 31.9653 33 24.8 33H17.2C10.0346 33 6.45198 33 4.22598 30.73C2 28.4602 2 24.8067 2 17.5Z" stroke="#07402B" stroke-width="3"/>
<path d="M34.3 17.5H26.7" stroke="#07402B" stroke-width="3" stroke-linecap="round"/>
<path d="M34.3 11.6875H24.8" stroke="#07402B" stroke-width="3" stroke-linecap="round"/>
<path d="M34.3 23.3125H28.6" stroke="#07402B" stroke-width="3" stroke-linecap="round"/>
</svg>
