<svg width="37" height="36" viewBox="0 0 37 36" fill="none" xmlns="http://www.w3.org/2000/svg">
<path d="M6.95 23.5C3.89524 24.6647 2 26.2876 2 28.0828C2 31.627 9.38731 34.5 18.5 34.5C27.6128 34.5 35 31.627 35 28.0828C35 26.2876 33.1047 24.6647 30.05 23.5M18.5 12.5H18.5183M29.5 12.5C29.5 19.9501 21.25 23.5 18.5 29C15.75 23.5 7.5 19.9501 7.5 12.5C7.5 6.42487 12.4249 1.5 18.5 1.5C24.5751 1.5 29.5 6.42487 29.5 12.5ZM20.3333 12.5C20.3333 13.5125 19.5126 14.3333 18.5 14.3333C17.4875 14.3333 16.6667 13.5125 16.6667 12.5C16.6667 11.4875 17.4875 10.6667 18.5 10.6667C19.5126 10.6667 20.3333 11.4875 20.3333 12.5Z" stroke="#07402B" stroke-width="3" stroke-linecap="round" stroke-linejoin="round"/>
</svg>
