<svg width="322" height="113" viewBox="0 0 322 113" fill="none" xmlns="http://www.w3.org/2000/svg">
<g clip-path="url(#clip0_458_264)">
<ellipse cx="257.824" cy="28.132" rx="25.5" ry="23" transform="rotate(94.2436 257.824 28.132)" fill="#0CBC8B"/>
<ellipse cx="50.5" cy="46" rx="25.5" ry="23" fill="#6B4E43"/>
<ellipse cx="257.136" cy="60.7028" rx="44.931" ry="64.2385" transform="rotate(94.2436 257.136 60.7028)" fill="#3E512A"/>
<ellipse cx="64" cy="62" rx="13" ry="53" transform="rotate(29.4753 64 62)" fill="#5E783C" fill-opacity="0.58"/>
<g clip-path="url(#clip1_458_264)">
<path opacity="0.18" d="M146.855 13.6625C138.036 21.0012 130.93 30.3609 121.551 37.0007C112.876 43.1184 102.405 46.7856 94.9401 54.3222C88.565 60.7562 84.9924 69.4432 84.9995 78.4934C85.0066 87.5436 88.5928 96.2249 94.9781 102.649C103.906 111.63 117.106 115.015 129.762 115.68C142.418 116.345 155.108 114.691 167.764 115.369C179.741 116.013 191.651 118.737 203.611 117.836C215.571 116.935 228.235 111.305 232.959 100.304C238.188 88.1273 232.196 74.4268 228.063 61.8419C224.943 52.3261 222.884 42.4958 221.922 32.5293C220.488 17.6203 217.848 -3.08215 199.056 -3.90738C180.391 -4.75367 161.164 1.73453 146.855 13.6625Z" fill="#2F6E57"/>
<path d="M197.175 96.527C197.951 96.9228 198.065 98.0596 197.627 98.8049C197.188 99.5501 196.361 99.9964 195.59 100.363C193.732 101.223 191.782 101.869 189.778 102.287C188.871 102.481 187.67 102.994 187.897 103.895C188.062 104.615 188.994 104.788 189.732 104.8C200.697 104.969 211.539 102.03 222.5 102.274C223.225 102.274 224.031 102.354 224.529 102.885C225.157 103.554 224.988 104.632 224.634 105.478C222.677 110.177 217.043 112.009 212.007 112.821C200.541 114.678 188.842 114.147 177.228 114.017C154.096 113.764 130.901 115.124 107.853 113.112C107.365 113.113 106.887 112.979 106.47 112.724C106.059 112.361 105.807 111.852 105.766 111.305C105.374 108.506 107.617 105.874 110.257 104.851C112.897 103.828 115.828 104.009 118.654 104.215C130.627 105.057 142.65 105.773 154.619 104.872C162.457 104.349 170.211 102.937 177.729 100.662C181.183 99.588 184.679 97.4744 188.209 96.8302C189.297 96.6323 190.402 96.767 191.499 96.7123C193.093 96.6323 195.691 95.7734 197.175 96.527Z" fill="url(#paint0_linear_458_264)"/>
<path d="M85 76.4099C85.0422 77.8203 85.738 79.1171 86.4339 80.3466C89.601 85.9253 93.1436 91.4156 98.0356 95.5587C105.239 101.643 114.673 104.262 123.782 106.72C122.964 106.325 121.985 102.135 121.623 101.213C120.919 99.407 120.261 97.5839 119.582 95.7734C118.515 92.9061 116.263 90.5988 114.099 88.4894C109.141 83.7299 103.127 80.2069 96.5469 78.2077C92.8019 77.0688 88.9145 76.4636 85 76.4099Z" fill="#2F6E57"/>
<path d="M85 76.4099C85.0422 77.8203 85.738 79.1171 86.4339 80.3466C89.601 85.9253 93.1436 91.4156 98.0356 95.5587C105.239 101.643 114.673 104.262 123.782 106.72C122.964 106.325 121.985 102.135 121.623 101.213C120.919 99.407 120.261 97.5839 119.582 95.7734C118.515 92.9061 116.263 90.5988 114.099 88.4894C109.141 83.7299 103.127 80.2069 96.5469 78.2077C92.8019 77.0688 88.9145 76.4636 85 76.4099Z" fill="url(#paint1_linear_458_264)"/>
<path d="M120.64 79.5255C119.898 74.3383 119.135 69.0796 117.043 64.2713C114.951 59.4631 111.328 55.1053 106.407 53.2612L105.985 75.5551C105.901 79.8455 105.829 84.2201 107.061 88.3336C109.228 95.5418 116.735 104 123.972 106.384C125.043 102.918 123.242 97.6765 122.707 94.0808L120.64 79.5255Z" fill="#2F6E57"/>
<path d="M210.363 72.831C210.325 74.2373 209.625 75.5383 208.929 76.7635C205.77 82.3423 202.223 87.8368 197.323 91.9756C190.12 98.0596 180.69 100.683 171.598 103.137C172.411 102.742 173.39 98.5522 173.753 97.6302C174.457 95.8239 175.115 94.005 175.794 92.1904C176.861 89.3231 179.113 87.02 181.301 84.9106C186.25 80.1512 192.256 76.6281 198.828 74.6289C202.568 73.4864 206.452 72.8811 210.363 72.831Z" fill="#2F6E57"/>
<path d="M210.363 72.831C210.325 74.2373 209.625 75.5383 208.929 76.7635C205.77 82.3423 202.223 87.8368 197.323 91.9756C190.12 98.0596 180.69 100.683 171.598 103.137C172.411 102.742 173.39 98.5522 173.753 97.6302C174.457 95.8239 175.115 94.005 175.794 92.1904C176.861 89.3231 179.113 87.02 181.301 84.9106C186.25 80.1512 192.256 76.6281 198.828 74.6289C202.568 73.4864 206.452 72.8811 210.363 72.831Z" fill="url(#paint2_linear_458_264)"/>
<path d="M174.722 75.9509C175.465 70.7637 176.228 65.5007 178.32 60.6967C180.412 55.8927 184.034 51.5096 188.956 49.6823C189.099 57.1151 189.24 64.545 189.378 71.9721C189.458 76.2667 189.534 80.6413 188.298 84.7548C186.134 91.963 178.623 100.422 171.391 102.801C170.315 99.3396 172.116 94.0934 172.631 90.4978L174.722 75.9509Z" fill="#2F6E57"/>
<path d="M167.228 3.3429L128.189 7.17855C124.157 7.57433 120.885 10.9679 120.885 14.7362V102.123C120.885 105.912 124.157 108.64 128.189 108.245L167.228 104.409C171.264 104.013 174.537 100.62 174.537 96.8555V9.469C174.537 5.68808 171.264 2.94712 167.228 3.3429ZM170.809 97.0407C170.809 99.3691 168.793 101.453 166.309 101.697L128.375 105.424C125.886 105.668 123.871 103.979 123.871 101.634V14.4794C123.871 12.151 125.886 10.0669 128.375 9.82267L134.06 9.26269V9.78057C134.06 11.271 135.35 12.3531 136.94 12.1973L157.921 10.1637C158.682 10.0994 159.393 9.76194 159.924 9.21378C160.454 8.66562 160.767 7.94401 160.805 7.18277V6.68594L166.288 6.14701C168.772 5.90281 170.788 7.59117 170.788 9.93635L170.809 97.0407Z" fill="#2F6E57"/>
<path d="M169.067 4.95547L130.024 8.79113C125.992 9.1869 122.719 12.5805 122.719 16.3698V103.735C122.719 107.525 125.992 110.253 130.024 109.857L169.067 106.026C173.099 105.63 176.371 102.236 176.371 98.468V11.0816C176.371 7.30486 173.103 4.58075 169.067 4.95547ZM172.648 98.6533C172.648 100.982 170.632 103.066 168.144 103.31L130.188 107.036C127.7 107.28 125.684 105.592 125.684 103.247V16.0919C125.684 13.7636 127.7 11.6752 130.188 11.431L135.894 10.8963V11.41C135.894 12.9005 137.185 13.9825 138.774 13.8267L159.76 11.7679C160.518 11.701 161.227 11.3632 161.756 10.8163C162.286 10.2695 162.599 9.55038 162.64 8.79113V8.28167L168.144 7.73853C170.632 7.49433 172.648 9.1869 172.648 11.5279V98.6533Z" fill="#E1EAD6"/>
<path d="M172.648 11.5153V98.6701C172.648 100.998 170.632 103.083 168.144 103.327L130.188 107.053C127.7 107.297 125.684 105.609 125.684 103.264V16.1088C125.684 13.7804 127.7 11.6921 130.188 11.4479L135.894 10.8963V11.41C135.894 12.9005 137.185 13.9825 138.774 13.8268L159.76 11.7679C160.518 11.701 161.227 11.3632 161.756 10.8163C162.286 10.2695 162.599 9.5504 162.64 8.79114V8.28169L168.144 7.73855C170.632 7.49435 172.648 9.18692 172.648 11.5153Z" stroke="url(#paint3_linear_458_264)" stroke-width="0.63" stroke-miterlimit="10"/>
<path d="M172.648 11.5153V98.6701C172.648 100.998 170.632 103.083 168.144 103.327L130.188 107.053C127.7 107.297 125.684 105.609 125.684 103.264V16.1088C125.684 13.7804 127.7 11.6921 130.188 11.4479L135.894 10.8963V11.41C135.894 12.9005 137.185 13.9825 138.774 13.8268L159.76 11.7679C160.518 11.701 161.227 11.3632 161.756 10.8163C162.286 10.2695 162.599 9.5504 162.64 8.79114V8.28169L168.144 7.73855C170.632 7.49435 172.648 9.18692 172.648 11.5153Z" fill="#2F6E57"/>
<path d="M159.692 94.2113L140.63 96.0344C140.361 96.0566 140.091 96.0228 139.836 95.9353C139.581 95.8478 139.347 95.7084 139.149 95.5259C138.951 95.3435 138.793 95.122 138.685 94.8754C138.577 94.6289 138.521 94.3626 138.521 94.0935V89.3315C138.521 88.8416 138.704 88.3692 139.034 88.0064C139.364 87.6437 139.817 87.4166 140.305 87.3695L159.359 85.5464C159.63 85.5205 159.903 85.5515 160.161 85.6374C160.419 85.7232 160.656 85.862 160.857 86.0448C161.058 86.2276 161.218 86.4504 161.328 86.6989C161.437 86.9473 161.494 87.2159 161.493 87.4874V92.2493C161.492 92.7416 161.306 93.2157 160.973 93.5787C160.64 93.9416 160.183 94.1673 159.692 94.2113Z" fill="url(#paint4_linear_458_264)"/>
<path d="M152.126 10.6353L144.915 11.3426V10.7448L152.126 10.0374V10.6353Z" fill="url(#paint5_linear_458_264)"/>
<path d="M154.389 10.6733C154.773 10.4491 154.922 9.99078 154.722 9.64951C154.523 9.30824 154.049 9.21329 153.665 9.43744C153.281 9.66158 153.132 10.1199 153.332 10.4612C153.531 10.8025 154.005 10.8974 154.389 10.6733Z" fill="url(#paint6_linear_458_264)"/>
<path d="M135.148 77.4666L162.648 74.8352C163.576 74.7517 164.437 74.3229 165.063 73.6341C165.688 72.9453 166.03 72.0468 166.022 71.1174V40.1416C166.018 39.5785 165.897 39.0224 165.667 38.5081C165.438 37.9938 165.104 37.5323 164.688 37.1525C164.271 36.7727 163.781 36.4828 163.247 36.3009C162.713 36.119 162.148 36.0491 161.586 36.0954L134.085 38.7269C133.158 38.8094 132.296 39.2373 131.671 39.9254C131.046 40.6136 130.703 41.5115 130.711 42.4405V73.4205C130.715 73.9836 130.836 74.5397 131.066 75.054C131.295 75.5683 131.629 76.0298 132.045 76.4096C132.462 76.7894 132.952 77.0793 133.486 77.2612C134.02 77.4431 134.585 77.513 135.148 77.4666Z" fill="#809C92"/>
<path d="M136.771 77.9045L164.272 75.273C165.199 75.1905 166.061 74.7626 166.686 74.0745C167.311 73.3864 167.654 72.4885 167.646 71.5595V40.5795C167.641 40.0164 167.521 39.4603 167.291 38.946C167.061 38.4316 166.728 37.9701 166.312 37.5903C165.895 37.2106 165.405 36.9207 164.871 36.7388C164.337 36.5569 163.771 36.4869 163.209 36.5333L135.708 39.1648C134.781 39.2483 133.919 39.6771 133.294 40.3659C132.669 41.0547 132.327 41.9531 132.335 42.8826V73.8583C132.339 74.4214 132.46 74.9775 132.69 75.4919C132.919 76.0062 133.253 76.4677 133.669 76.8475C134.085 77.2273 134.576 77.5172 135.11 77.699C135.643 77.8809 136.209 77.9509 136.771 77.9045Z" fill="url(#paint7_linear_458_264)"/>
<path d="M137.83 44.8404L147.698 44.0489V53.939L137.83 54.7306V44.8404ZM146.062 52.4191V45.8425L139.466 46.373V52.9875L146.062 52.4191Z" fill="#473F47"/>
<path d="M154.353 43.5057L164.213 42.7142V52.6128L154.353 53.4212V43.5057ZM162.581 51.1097V44.4952L155.981 45.0257V51.6402L162.581 51.1097Z" fill="#473F47"/>
<path d="M147.698 70.4943L137.83 71.2858V61.4209L147.698 60.6293V70.4943ZM139.458 69.5132L146.07 68.9996V62.3893L139.458 62.9198V69.5132Z" fill="#473F47"/>
<path d="M151.009 45.4214L152.654 45.2909V48.5792L151.021 48.7097V50.3518L149.398 50.4823V43.9141L151.009 43.7836V45.4214Z" fill="#473F47"/>
<path d="M164.217 57.581L160.953 57.8421V56.2L157.655 56.461V54.84L164.217 54.3138V57.581Z" fill="#473F47"/>
<path d="M162.585 64.3682V65.9934L164.213 65.8629V69.1512L160.962 69.4122V64.5113L162.585 64.3682Z" fill="#473F47"/>
<path d="M141.102 56.1663V57.7957L142.739 57.6652V59.3157L137.834 59.7115V56.4442L141.102 56.1663Z" fill="#473F47"/>
<path d="M151.021 55.3579L155.947 54.9622V58.2505L152.666 58.5157V56.8316L151.021 56.9621V55.32V55.3579Z" fill="#473F47"/>
<path d="M154.353 60.0483L155.985 59.9178V58.2841L159.258 58.0189V61.2861L154.353 61.6777V60.0483Z" fill="#473F47"/>
<path d="M152.666 58.5157V61.804L149.385 62.0693V58.781L152.683 58.5157H152.666Z" fill="#473F47"/>
<path d="M152.662 66.8312L153.548 66.7428L155.711 66.5702H155.956V69.8417L152.683 70.1069V67.0754C152.683 66.9954 152.683 66.9197 152.683 66.8397L152.662 66.8312Z" fill="#473F47"/>
<path d="M149.385 58.781L146.1 59.042V57.4084L147.724 57.2779V55.6232L149.381 55.4885V58.7936L149.385 58.781Z" fill="#473F47"/>
<path d="M164.217 62.5408L162.602 62.6714V61.0335L160.966 61.1641V59.5346L164.217 59.2736V62.5408Z" fill="#473F47"/>
<path d="M151.034 66.9491V65.265L149.398 65.3955V63.7787L152.662 63.5176V66.8228C152.409 66.8228 152.16 66.8228 151.911 66.8565C151.662 66.8902 151.321 66.9154 151.026 66.9449L151.034 66.9491Z" fill="#473F47"/>
<path d="M151.038 53.7117V50.4065L152.653 50.276V53.5769L151.03 53.7075L151.038 53.7117Z" fill="#473F47"/>
<path d="M151.03 66.9449V69.9553V70.2248L149.406 70.3553V67.0838L151.047 66.9491L151.03 66.9449Z" fill="#473F47"/>
<path d="M146.045 55.7705V57.3831L142.794 57.6442V56.0316L146.045 55.7705Z" fill="#473F47"/>
<path d="M157.655 64.7218V63.105L160.911 62.844V64.4481L157.655 64.7218Z" fill="#473F47"/>
<path d="M157.655 69.6901V66.4312L159.258 66.3007V69.5596L157.655 69.6901Z" fill="#473F47"/>
<path d="M149.381 55.4885V53.8422L151.038 53.7075V55.3579L149.385 55.4927L149.381 55.4885Z" fill="#473F47"/>
<path d="M154.349 64.9871V63.3787L155.951 63.2524V64.8566L154.349 64.9871Z" fill="#473F47"/>
<path d="M152.696 63.4629V61.8419L154.302 61.7114V63.3198L152.696 63.4629Z" fill="#473F47"/>
<path d="M157.605 66.3849L156.006 66.5154V64.9029L157.605 64.7723V66.3849Z" fill="#473F47"/>
<path d="M144.396 47.6277L141.136 47.8887V51.1476L144.396 50.8865V47.6277Z" fill="#473F47"/>
<path d="M160.911 49.5687V46.3014L157.664 46.5624V49.8297L160.911 49.5687Z" fill="#473F47"/>
<path d="M141.128 67.707L144.388 67.4459V64.1829L141.128 64.4439V67.707Z" fill="#473F47"/>
<path d="M144.396 47.6277V50.8949L141.136 51.156V47.8971L144.396 47.6277Z" fill="#473F47"/>
<path d="M160.911 49.5687L157.664 49.8297V46.5624L160.911 46.3014V49.5687Z" fill="#473F47"/>
<path d="M141.128 67.707V64.4439L144.388 64.1829V67.4459L141.128 67.707Z" fill="#473F47"/>
<path d="M160.645 93.5798L141.592 95.3987C141.321 95.4251 141.048 95.3947 140.79 95.3094C140.532 95.224 140.295 95.0857 140.094 94.9032C139.893 94.7207 139.732 94.4981 139.623 94.2499C139.513 94.0016 139.457 93.7332 139.458 93.4619V88.6999C139.457 88.21 139.64 87.7376 139.97 87.3749C140.3 87.0121 140.753 86.785 141.242 86.7379L160.295 84.9148C160.566 84.889 160.839 84.92 161.097 85.0058C161.355 85.0916 161.592 85.2304 161.793 85.4133C161.994 85.5961 162.154 85.8189 162.264 86.0673C162.374 86.3158 162.43 86.5843 162.429 86.8558V91.6177C162.429 92.1077 162.247 92.5801 161.917 92.9428C161.587 93.3056 161.134 93.5327 160.645 93.5798Z" fill="#E1EAD6"/>
<path d="M145.117 91.5209L145.902 91.4451C145.903 91.4851 145.913 91.5243 145.931 91.5599C145.95 91.5956 145.975 91.6268 146.007 91.6514C146.093 91.7046 146.194 91.7255 146.294 91.7104C146.393 91.7027 146.489 91.6693 146.572 91.6135C146.609 91.5906 146.64 91.5583 146.661 91.5199C146.681 91.4814 146.692 91.4382 146.69 91.3946C146.693 91.3736 146.693 91.3524 146.69 91.3314C146.666 91.3005 146.636 91.2747 146.602 91.2556C146.532 91.2151 146.457 91.1867 146.378 91.1714L146.003 91.0872C145.856 91.0631 145.714 91.0162 145.581 90.9483C145.478 90.8983 145.39 90.8229 145.324 90.7293C145.228 90.5923 145.176 90.4292 145.176 90.262C145.174 90.1276 145.201 89.9943 145.256 89.8714C145.311 89.7486 145.391 89.639 145.493 89.5504C145.716 89.3542 145.997 89.2373 146.294 89.2178C146.572 89.1752 146.856 89.2416 147.087 89.4031C147.189 89.4811 147.27 89.583 147.324 89.6996C147.378 89.8163 147.402 89.9443 147.395 90.0725L146.619 90.1441C146.619 89.9546 146.509 89.8704 146.285 89.8915C146.195 89.8936 146.108 89.9246 146.037 89.9799C146.009 90.0021 145.986 90.0303 145.971 90.0624C145.956 90.0945 145.948 90.1296 145.948 90.1652C145.948 90.2746 146.045 90.3504 146.243 90.3883L146.61 90.4683C147.201 90.5862 147.496 90.8893 147.496 91.3104C147.499 91.5134 147.432 91.7113 147.306 91.8704C147.189 92.0215 147.035 92.1403 146.859 92.2156C146.685 92.2924 146.5 92.3394 146.311 92.3545C146.017 92.3989 145.717 92.3345 145.467 92.1735C145.359 92.1025 145.27 92.0056 145.209 91.8916C145.148 91.7777 145.116 91.6502 145.117 91.5209Z" fill="#2F6E57"/>
<path d="M150.174 90.8935L150.811 91.2598C150.663 91.4915 150.464 91.686 150.229 91.8282C149.994 91.9746 149.728 92.064 149.453 92.0893C149.247 92.1147 149.037 92.0964 148.839 92.0354C148.641 91.9745 148.457 91.8723 148.301 91.7356C148.147 91.6038 148.025 91.4395 147.942 91.2545C147.86 91.0696 147.82 90.8686 147.825 90.6662C147.825 90.2327 147.996 89.8168 148.301 89.5083C148.599 89.1802 149.011 88.9783 149.453 88.9441C149.718 88.9145 149.987 88.9537 150.233 89.0578C150.465 89.1571 150.666 89.3171 150.815 89.521L150.17 90.0094C150.095 89.8975 149.99 89.8097 149.866 89.7567C149.734 89.6966 149.588 89.6733 149.444 89.6894C149.214 89.7087 148.999 89.8157 148.845 89.9883C148.687 90.1506 148.599 90.3683 148.601 90.5946C148.597 90.7003 148.617 90.8056 148.659 90.9025C148.701 90.9995 148.765 91.0856 148.845 91.1546C148.926 91.2267 149.021 91.2806 149.124 91.3126C149.228 91.3446 149.337 91.3539 149.444 91.3398C149.594 91.329 149.739 91.2812 149.866 91.2009C149.991 91.1233 150.096 91.0181 150.174 90.8935Z" fill="#2F6E57"/>
<path d="M153.248 91.6809L152.978 91.003L151.975 91.0956L151.705 91.824L150.861 91.8998L152.042 88.7252L152.885 88.6494L154.058 91.5967L153.248 91.6809ZM152.468 89.3989L152.181 90.4346L152.78 90.3799L152.468 89.3989Z" fill="#2F6E57"/>
<path d="M156.032 88.3673L156.803 88.2957V91.3651L156.129 91.4241L155.15 89.841V91.5251L154.374 91.5967V88.5273L155.074 88.4642L156.032 90.0262V88.3673Z" fill="#2F6E57"/>
<path d="M186.021 45.6362L165.335 36.0786L131.47 40.1669L132.33 76.2414L135.148 77.4667L166.018 74.9952L167.642 71.5595L185.713 47.0509L186.021 45.6362Z" fill="url(#paint8_linear_458_264)"/>
<path d="M185.215 47.8466V44.8236C185.215 44.7234 185.241 44.625 185.292 44.5385C185.342 44.4519 185.415 44.3803 185.502 44.331L187.189 43.392C187.366 43.291 188.066 43.6994 188.066 43.9015L187.589 49.0887L186.404 50.0023L185.219 49.3076L185.215 47.8466Z" fill="#E1EAD6"/>
<path d="M185.215 47.8466V44.8236C185.215 44.7234 185.241 44.625 185.292 44.5385C185.342 44.4519 185.415 44.3803 185.502 44.331L187.189 43.392C187.366 43.291 188.066 43.6994 188.066 43.9015L187.589 49.0887L186.404 50.0023L185.219 49.3076L185.215 47.8466Z" fill="url(#paint9_linear_458_264)"/>
<path d="M185.713 48.2214V45.1941C185.712 45.0945 185.739 44.9966 185.789 44.9107C185.84 44.8248 185.912 44.754 185.999 44.7057L187.686 43.7626C187.727 43.74 187.773 43.7284 187.82 43.7288C187.866 43.7293 187.912 43.7418 187.952 43.7651C187.993 43.7884 188.026 43.8218 188.05 43.8619C188.074 43.902 188.086 43.9476 188.087 43.9941V49.4676L186.902 50.3771L185.717 49.6866L185.713 48.2214Z" fill="#E1EAD6"/>
<path d="M186.021 48.095V45.6362L187.939 44.4278V48.495L187.518 49.8634L186.624 50.1581C186.624 50.1581 186.147 49.956 186.147 49.8929" fill="#2F6E57"/>
<path d="M212.842 70.49L212.589 70.8311L213.5 57.88L213.682 55.2779L213.77 54.0148L214.247 55.038C215.141 56.92 216.996 60.8567 217.515 61.9346C218.11 63.1724 213.926 68.9996 212.842 70.49Z" fill="#E1EAD6"/>
<path opacity="0.1" d="M212.842 70.4901C212.737 70.2418 212.698 69.9706 212.729 69.7027C212.84 69.1113 213.095 68.5562 213.471 68.0859C214.475 66.6123 215.731 65.0502 216.309 63.3408C217.068 61.0799 214.58 59.6778 213.5 57.8673C213.224 57.4437 213.06 56.9569 213.024 56.4526C213.006 56.2123 213.058 55.9719 213.175 55.761C213.292 55.55 213.468 55.3778 213.682 55.2653C213.857 55.1568 214.047 55.0745 214.247 55.0211C215.141 56.9032 216.996 60.8399 217.515 61.9177C218.11 63.1724 213.926 68.9996 212.842 70.4901Z" fill="#020202"/>
<path d="M206.664 106.123C206.263 106.306 205.932 106.613 205.719 106.998C205.675 107.084 205.662 107.182 205.682 107.276C205.712 107.346 205.758 107.408 205.816 107.458C205.873 107.509 205.941 107.546 206.015 107.567C207.077 107.988 208.279 107.908 209.389 107.706C210.502 107.433 211.639 107.268 212.783 107.213C212.88 107.229 212.98 107.223 213.074 107.197C213.169 107.171 213.257 107.125 213.332 107.061C213.402 106.956 213.436 106.83 213.429 106.704C213.475 105.71 213.302 104.718 212.923 103.798C212.948 103.857 209.916 103.979 209.654 104.156C209.173 104.489 208.773 104.914 208.258 105.222C207.744 105.529 207.2 105.819 206.664 106.123Z" fill="#282328"/>
<path d="M210.696 84.4517C210.675 88.327 210.98 92.1973 211.607 96.0218C211.708 96.687 211.818 97.3481 211.953 98.0091C212.948 102.893 213.028 104.135 213.028 104.135H209.03C209.03 104.135 206.078 90.3041 204.981 87.1547C204.152 84.7678 203.505 82.3216 203.046 79.8371C202.867 78.6597 203.012 77.4559 203.467 76.3551C203.622 75.9211 203.842 75.5135 204.121 75.1467C204.664 74.5478 205.344 74.0885 206.103 73.8078C207.718 73.0789 209.464 72.6864 211.236 72.6542C211.438 72.6371 211.641 72.6811 211.818 72.7805C211.931 72.8734 212.02 72.9917 212.079 73.1258C212.598 74.1783 212.501 75.4162 212.341 76.5783C212.271 77.2235 212.129 77.8589 211.919 78.4729C211.683 79.1003 211.312 79.6687 211.096 80.3045C210.913 80.9165 210.806 81.5485 210.776 82.1865C210.751 82.9402 210.713 83.6938 210.696 84.4517Z" fill="#282328"/>
<path d="M200.676 81.395C200.76 81.8984 200.792 82.4091 200.773 82.9191C200.756 83.8337 200.785 84.7485 200.861 85.6601C201.085 90.001 201.743 94.325 201.747 98.6702C201.747 102.375 201.624 106.249 201.624 106.249C201.624 106.249 204.859 107.242 205.606 106.497L206.85 88.6031C207.039 87.2516 207.33 85.879 207.427 84.5191C207.512 83.3359 207.537 82.3339 207.98 81.1971C208.478 79.934 209.186 78.7424 209.57 77.4288C209.818 76.5876 209.925 75.7112 209.886 74.8352C209.898 74.5666 209.825 74.3011 209.675 74.0773C209.528 73.925 209.348 73.8084 209.148 73.7363C206.909 72.7426 204.585 71.7321 202.135 71.7532C201.937 71.7368 201.739 71.7793 201.565 71.8753C201.4 72.0116 201.281 72.1954 201.224 72.4016C200.323 74.7763 200.045 77.3419 200.418 79.854C200.515 80.3971 200.6 80.8939 200.676 81.395Z" fill="#473F47"/>
<path d="M188.597 50.8949C188.5 50.3265 188.513 49.7329 188.462 49.1561C188.46 48.9296 188.399 48.7077 188.285 48.5119C188.225 48.4161 188.133 48.3442 188.025 48.3082C187.918 48.2721 187.801 48.2742 187.695 48.314C187.433 48.4445 187.425 48.8024 187.433 49.0929C187.442 49.3834 187.366 49.7539 187.079 49.8087C186.971 49.8192 186.862 49.7972 186.767 49.7455C186.624 49.669 186.501 49.5603 186.407 49.428C186.313 49.2958 186.252 49.1436 186.227 48.9834C186.202 48.794 186.227 48.5961 186.194 48.4066C186.084 47.8593 185.375 47.9519 185.046 48.2382C184.853 48.4251 184.695 48.6464 184.582 48.8908C184.344 49.3045 184.169 49.7516 184.064 50.2171C183.714 52.116 186.008 52.5244 186.978 53.7369C187.117 53.9251 187.273 54.1012 187.442 54.2632C187.606 54.4042 187.805 54.4995 188.019 54.5394C188.232 54.5793 188.452 54.5625 188.656 54.4906C188.86 54.4157 189.04 54.2881 189.178 54.1209C189.315 53.9537 189.406 53.7529 189.441 53.5391C189.555 52.8317 189.04 52.1959 188.787 51.5223C188.704 51.3196 188.641 51.1096 188.597 50.8949Z" fill="#FFBBAB"/>
<path d="M205.091 45.9604C205.13 46.0138 205.16 46.0736 205.18 46.1372C205.209 46.2661 205.209 46.3999 205.18 46.5288C205.009 47.2901 204.892 48.0625 204.83 48.8403C204.797 49.058 204.838 49.2805 204.948 49.4718C205.122 49.6568 205.36 49.7683 205.614 49.7834C205.983 49.8424 206.358 49.8678 206.732 49.8592C206.879 49.8592 207.061 49.8592 207.153 49.9813C207.185 50.0366 207.202 50.0988 207.204 50.1623C207.221 50.4524 207.165 50.7421 207.039 51.0044C206.963 51.1311 206.925 51.2774 206.93 51.4254C206.959 51.6949 207.352 51.6696 207.554 51.6823C208.321 51.7202 209.093 51.7244 209.861 51.6823C209.993 51.6879 210.125 51.6604 210.245 51.6023C210.451 51.4802 210.498 51.2065 210.557 50.9749C210.818 49.9013 211.649 49.0676 212.096 48.0571C212.326 47.5188 212.447 46.9402 212.452 46.3549C212.457 45.7695 212.346 45.189 212.125 44.6467C211.913 44.1301 211.61 43.6553 211.231 43.2447C210.886 42.8615 210.219 42.7815 209.738 42.6805C208.895 42.5036 207.959 42.4531 207.208 42.9036C206.365 43.4089 205.977 44.4446 205.129 44.9288C204.981 45.013 204.8 45.0972 204.749 45.2614C204.736 45.3448 204.744 45.4302 204.771 45.5101C204.798 45.59 204.844 45.6622 204.906 45.7204C204.96 45.8046 205.032 45.8762 205.091 45.9604Z" fill="#FFBBAB"/>
<path d="M207.44 42.6089C207.459 42.7394 207.499 42.8659 207.558 42.9836C207.828 43.5436 208.182 43.4047 208.667 43.4763C209.258 43.5815 209.642 44.2426 209.764 44.7815C209.869 45.4349 209.848 46.1024 209.701 46.7477C209.83 46.6409 209.991 46.5773 210.159 46.566C210.326 46.5547 210.494 46.5961 210.637 46.6846C210.776 46.7814 210.884 46.9164 210.949 47.0732C211.013 47.2301 211.031 47.4022 211 47.5688C210.965 47.7361 210.884 47.8905 210.766 48.0146C210.649 48.1388 210.499 48.2279 210.333 48.2719C210.169 48.314 209.975 48.3224 209.874 48.4571C209.819 48.5544 209.795 48.6661 209.806 48.7771C209.806 49.4929 209.836 50.2718 210.291 50.8276C210.924 50.7644 211.404 50.2592 211.877 49.8382C212.547 49.2403 213.315 48.7519 213.96 48.1245C214.644 47.5253 215.069 46.6847 215.145 45.7793C215.166 44.3268 213.88 43.2068 213.408 41.8384C213.323 41.5303 213.212 41.2302 213.074 40.9416C212.948 40.7435 212.781 40.5739 212.585 40.4439C212.389 40.3138 212.168 40.2261 211.936 40.1865C211.704 40.1468 211.467 40.1561 211.239 40.2136C211.01 40.2711 210.797 40.3757 210.612 40.5206C210.272 40.2973 209.873 40.1783 209.467 40.1783C209.06 40.1783 208.662 40.2973 208.322 40.5206C208.01 40.7662 207.766 41.0865 207.612 41.4516C207.458 41.8168 207.399 42.2149 207.44 42.6089Z" fill="#5E2B19"/>
<path d="M213.614 58.5831C213.44 59.9398 213.383 61.3091 213.446 62.6756C213.483 64.0103 213.547 65.3365 213.602 66.6712C213.344 67.8207 213.058 68.9701 212.758 70.1069C212.568 71.0355 212.255 71.9347 211.826 72.7805C211.61 73.1873 211.325 73.5535 210.983 73.8626C210.646 74.1579 210.263 74.3955 209.848 74.5657C208.875 74.9256 207.834 75.0693 206.799 74.9867C206.069 74.958 205.345 74.8478 204.64 74.6583C203.734 74.4325 202.892 74.0002 202.181 73.3952C201.824 73.0766 201.512 72.7112 201.253 72.3089C200.634 71.3176 200.259 70.1934 200.161 69.0291C199.949 67.1179 200.196 65.1839 200.882 63.3871C200.92 63.2819 200.962 63.1808 201.005 63.0756C201.296 62.3345 201.587 61.5935 201.886 60.8525C201.886 60.8525 201.886 60.8314 201.886 60.823C201.932 60.7051 201.979 60.5957 202.021 60.482L202.046 60.4188L201.882 60.4862L201.709 60.5493C201.654 60.5714 201.598 60.5897 201.54 60.6041C201.418 60.6504 201.287 60.6841 201.165 60.7178L200.743 60.823C200.503 60.8735 200.258 60.9199 200.013 60.9493L199.68 60.9872C196.614 61.2567 193.27 60.0188 190.706 58.6505C189.869 58.2254 189.104 57.6729 188.437 57.0126C188.298 56.8653 188.167 56.7107 188.045 56.5495C187.738 56.1459 187.512 55.687 187.379 55.198C187.286 54.9019 187.286 54.5846 187.379 54.2885C187.385 54.2767 187.392 54.2654 187.4 54.2548C187.492 54.0523 187.621 53.8682 187.779 53.7117C188.169 53.2855 188.581 52.8807 189.015 52.4991L189.15 52.3812C189.266 52.2793 189.403 52.2033 189.55 52.1581C189.696 52.1255 189.847 52.1252 189.993 52.1572C190.138 52.1892 190.275 52.2528 190.394 52.3433C190.609 52.4936 190.81 52.6642 190.993 52.8528C192.164 53.9672 193.552 54.8281 195.072 55.3817C196.591 55.9352 198.209 56.1694 199.824 56.0695C200.71 56.0322 201.581 55.8235 202.388 55.4548C203.096 55.0717 203.753 54.6022 204.345 54.0569C204.879 53.6199 205.389 53.1532 205.871 52.6591C205.998 52.5244 206.129 52.3854 206.242 52.2381C206.356 52.0907 206.428 52.0107 206.517 51.897L206.626 51.7539C206.722 51.6079 206.849 51.4844 206.997 51.3918C207.21 51.2944 207.443 51.2482 207.676 51.257C208.591 51.2191 209.587 51.0465 210.489 51.0676H210.586C210.674 51.0709 210.761 51.0808 210.848 51.097C211.16 51.1461 211.452 51.2817 211.691 51.4886C211.985 51.7704 212.253 52.0775 212.492 52.4065C213.054 53.0206 213.494 53.7348 213.791 54.5117C214.23 55.8 213.817 57.2105 213.614 58.5831Z" fill="#E1EAD6"/>
<path d="M214.669 58.4442C214.665 59.9044 214.554 61.3623 214.335 62.8061C214.146 64.1071 213.914 65.3913 213.602 66.6712C213.547 65.3366 213.483 64.0103 213.446 62.6756C213.383 61.3091 213.44 59.9399 213.614 58.5831C213.817 57.2147 214.23 55.8 213.804 54.4864C213.507 53.7095 213.066 52.9954 212.505 52.3812C212.266 52.0523 211.997 51.7451 211.704 51.4633C212.547 52.0991 213.214 53.2822 213.77 53.9896C214.719 55.2316 214.66 56.9621 214.669 58.4442Z" fill="#E1EAD6"/>
<path opacity="0.1" d="M214.669 58.4442C214.665 59.9044 214.554 61.3623 214.335 62.8061C214.146 64.1071 213.914 65.3913 213.602 66.6712C213.547 65.3366 213.483 64.0103 213.446 62.6756C213.383 61.3091 213.44 59.9399 213.614 58.5831C213.817 57.2147 214.23 55.8 213.804 54.4864C213.507 53.7095 213.066 52.9954 212.505 52.3812C212.266 52.0523 211.997 51.7451 211.704 51.4633C212.547 52.0991 213.214 53.2822 213.77 53.9896C214.719 55.2316 214.66 56.9621 214.669 58.4442Z" fill="#020202"/>
<path opacity="0.1" d="M213.614 58.5831C213.44 59.9398 213.383 61.3091 213.446 62.6756C213.483 64.0103 213.547 65.3365 213.602 66.6712C213.344 67.8207 213.058 68.9701 212.758 70.1069C212.568 71.0355 212.255 71.9347 211.826 72.7805C211.61 73.1873 211.325 73.5535 210.983 73.8626C210.646 74.1579 210.263 74.3955 209.848 74.5657C208.875 74.9256 207.834 75.0693 206.799 74.9867C206.069 74.958 205.345 74.8478 204.64 74.6583C203.734 74.4325 202.892 74.0002 202.181 73.3952C201.824 73.0766 201.512 72.7112 201.253 72.3089C200.634 71.3176 200.259 70.1934 200.161 69.0291C199.949 67.1179 200.196 65.1839 200.882 63.3871C200.92 63.2819 200.962 63.1808 201.005 63.0756C201.338 62.3506 201.632 61.6085 201.886 60.8525C201.886 60.8525 201.886 60.8314 201.886 60.823C201.92 60.6967 201.949 60.5788 201.979 60.4567C201.948 60.4704 201.915 60.4803 201.882 60.4862L201.709 60.5493C201.654 60.5714 201.598 60.5897 201.54 60.6041C201.418 60.6504 201.287 60.6841 201.165 60.7178L200.743 60.823C200.503 60.8735 200.258 60.9199 200.013 60.9493L199.68 60.9872C196.572 61.303 193.384 60.0904 190.706 58.6505C189.869 58.2254 189.104 57.6729 188.437 57.0126C188.298 56.8653 188.167 56.7107 188.045 56.5495C187.738 56.1459 187.512 55.687 187.379 55.198C187.286 54.9019 187.286 54.5846 187.379 54.2885C187.385 54.2767 187.392 54.2654 187.4 54.2548C187.492 54.0523 187.621 53.8682 187.779 53.7117C188.169 53.2855 188.581 52.8807 189.015 52.4991L189.15 52.3812C189.266 52.2793 189.403 52.2033 189.55 52.1581C189.696 52.1255 189.847 52.1252 189.993 52.1572C190.138 52.1892 190.275 52.2528 190.394 52.3433C190.609 52.4936 190.81 52.6642 190.993 52.8528C192.164 53.9672 193.552 54.8281 195.072 55.3817C196.591 55.9352 198.209 56.1694 199.824 56.0695C200.71 56.0322 201.581 55.8235 202.388 55.4548C203.096 55.0717 203.753 54.6022 204.345 54.0569C204.879 53.6199 205.389 53.1532 205.871 52.6591C205.998 52.5244 206.129 52.3854 206.242 52.2381C206.356 52.0907 206.428 52.0107 206.517 51.897L206.626 51.7539C206.722 51.6079 206.849 51.4844 206.997 51.3918C207.21 51.2944 207.443 51.2482 207.676 51.257C208.591 51.2191 209.587 51.0465 210.489 51.0676H210.586C210.674 51.0709 210.761 51.0808 210.848 51.097C211.154 51.165 211.442 51.2986 211.691 51.4886C211.985 51.7704 212.253 52.0775 212.492 52.4065C213.054 53.0206 213.494 53.7348 213.791 54.5117C214.23 55.8 213.817 57.2105 213.614 58.5831Z" fill="#020202"/>
<path d="M199.208 108.476C198.806 108.658 198.475 108.965 198.263 109.352C198.219 109.437 198.206 109.536 198.225 109.63C198.256 109.699 198.301 109.761 198.359 109.811C198.417 109.86 198.485 109.896 198.559 109.916C199.621 110.337 200.823 110.261 201.953 110.059C203.068 109.787 204.206 109.622 205.353 109.567C205.449 109.582 205.547 109.576 205.641 109.55C205.735 109.524 205.822 109.478 205.897 109.415C205.967 109.31 206.001 109.184 205.994 109.057C206.04 108.063 205.867 107.072 205.488 106.152C205.513 106.211 202.481 106.329 202.223 106.51C201.738 106.842 201.338 107.268 200.823 107.575C200.309 107.882 199.744 108.156 199.208 108.476Z" fill="#282328"/>
<path d="M194.13 57.3579C192.11 56.6379 190.052 55.9263 188.441 54.478C188.255 54.345 188.127 54.1463 188.083 53.9222C188.097 53.7836 188.142 53.65 188.215 53.5312C188.288 53.4124 188.387 53.3115 188.505 53.2359C188.793 52.9456 189.121 52.6975 189.479 52.4991C189.658 52.3997 189.856 52.3389 190.06 52.3208C190.264 52.3027 190.47 52.3276 190.664 52.3938C190.934 52.5298 191.177 52.7139 191.381 52.937C192.864 54.2696 194.689 55.1646 196.652 55.5222C198.563 55.9432 200.667 55.9685 202.502 55.2274C203.564 54.8064 205.876 52.0149 206.909 52.4233C207.942 52.8317 207.487 54.8906 206.985 55.5306C205.901 56.9074 203.155 57.56 201.502 57.8715C199.043 58.3578 196.498 58.1804 194.13 57.3579Z" fill="#E1EAD6"/>
<path d="M210.215 52.8064C210.448 52.6971 210.654 52.539 210.82 52.3428C210.986 52.1466 211.108 51.917 211.177 51.6696C210.622 51.5557 210.053 51.5273 209.49 51.5854L207.875 51.6654L206.812 51.7202C206.15 51.7581 206.137 52.0486 206.39 52.5033C206.508 52.718 206.812 52.8906 206.938 53.1222C207.065 53.3538 207.086 53.6022 207.238 53.779C207.659 54.2843 207.778 53.998 208.322 53.6696C208.866 53.3412 209.595 53.1433 210.215 52.8064Z" fill="#E1EAD6"/>
<path d="M184.026 14.0499L202.982 12.0626L189.428 17.3635L184.026 14.0499Z" fill="#2F6E57"/>
<path d="M202.982 12.0626L191.684 22.9759L189.428 17.3635L202.982 12.0626Z" fill="#2F6E57"/>
<path d="M202.982 12.0626L191.684 22.9759L189.428 17.3635L202.982 12.0626Z" fill="url(#paint10_linear_458_264)"/>
<path d="M187.193 23.3506L189.428 17.3635L202.982 12.0626L187.193 23.3506Z" fill="#2F6E57"/>
<path d="M202.982 12.0626L189.428 16.2056L184.026 14.0499L189.428 17.3635L202.982 12.0626Z" fill="url(#paint11_linear_458_264)"/>
</g>
<rect x="24" y="53" width="27" height="56" fill="#2F6E57"/>
<path d="M248.899 110.136L316.672 64.616L330.355 115.641L248.899 110.136Z" fill="#935B50"/>
</g>
<defs>
<linearGradient id="paint0_linear_458_264" x1="181.335" y1="48.4529" x2="147.83" y2="171.992" gradientUnits="userSpaceOnUse">
<stop offset="0.01"/>
<stop offset="0.13" stop-opacity="0.69"/>
<stop offset="0.25" stop-opacity="0.32"/>
<stop offset="1" stop-opacity="0"/>
</linearGradient>
<linearGradient id="paint1_linear_458_264" x1="123.761" y1="75.092" x2="67.3104" y2="123.262" gradientUnits="userSpaceOnUse">
<stop offset="0.01"/>
<stop offset="0.13" stop-opacity="0.69"/>
<stop offset="0.25" stop-opacity="0.32"/>
<stop offset="1" stop-opacity="0"/>
</linearGradient>
<linearGradient id="paint2_linear_458_264" x1="171.602" y1="71.5132" x2="228.052" y2="119.678" gradientUnits="userSpaceOnUse">
<stop offset="0.01"/>
<stop offset="0.13" stop-opacity="0.69"/>
<stop offset="0.25" stop-opacity="0.32"/>
<stop offset="1" stop-opacity="0"/>
</linearGradient>
<linearGradient id="paint3_linear_458_264" x1="111.232" y1="32.7091" x2="182.086" y2="88.8684" gradientUnits="userSpaceOnUse">
<stop stop-color="white"/>
<stop offset="1" stop-color="#CBCBCB"/>
</linearGradient>
<linearGradient id="paint4_linear_458_264" x1="152.873" y1="81.155" x2="142.45" y2="116.081" gradientUnits="userSpaceOnUse">
<stop offset="0.01"/>
<stop offset="0.13" stop-opacity="0.69"/>
<stop offset="0.25" stop-opacity="0.32"/>
<stop offset="1" stop-opacity="0"/>
</linearGradient>
<linearGradient id="paint5_linear_458_264" x1="148.636" y1="6.64259" x2="149.041" y2="11.3533" gradientUnits="userSpaceOnUse">
<stop stop-color="#E1EAD6"/>
<stop offset="1" stop-color="#CBCBCB"/>
</linearGradient>
<linearGradient id="paint6_linear_458_264" x1="153.937" y1="6.16003" x2="154.495" y2="9.54431" gradientUnits="userSpaceOnUse">
<stop stop-color="#E1EAD6"/>
<stop offset="1" stop-color="#CBCBCB"/>
</linearGradient>
<linearGradient id="paint7_linear_458_264" x1="151.287" y1="57.8502" x2="188.937" y2="71.0315" gradientUnits="userSpaceOnUse">
<stop stop-color="#E1EAD6"/>
<stop offset="1" stop-color="#CBCBCB"/>
</linearGradient>
<linearGradient id="paint8_linear_458_264" x1="195.45" y1="48.4192" x2="148.99" y2="57.5593" gradientUnits="userSpaceOnUse">
<stop offset="0.01" stop-color="#E1EAD6"/>
<stop offset="1" stop-color="#E1EAD6" stop-opacity="0"/>
</linearGradient>
<linearGradient id="paint9_linear_458_264" x1="241.562" y1="-50.3374" x2="244.297" y2="-47.5343" gradientUnits="userSpaceOnUse">
<stop stop-color="white"/>
<stop offset="1" stop-color="#CBCBCB"/>
</linearGradient>
<linearGradient id="paint10_linear_458_264" x1="191.41" y1="11.1068" x2="207.067" y2="28.1128" gradientUnits="userSpaceOnUse">
<stop offset="0.01"/>
<stop offset="0.13" stop-opacity="0.69"/>
<stop offset="0.25" stop-opacity="0.32"/>
<stop offset="1" stop-opacity="0"/>
</linearGradient>
<linearGradient id="paint11_linear_458_264" x1="193.502" y1="6.92593" x2="193.502" y2="25.1485" gradientUnits="userSpaceOnUse">
<stop offset="0.01"/>
<stop offset="0.13" stop-opacity="0.69"/>
<stop offset="0.25" stop-opacity="0.32"/>
<stop offset="1" stop-opacity="0"/>
</linearGradient>
<clipPath id="clip0_458_264">
<rect width="322" height="113" fill="white"/>
</clipPath>
<clipPath id="clip1_458_264">
<rect width="150" height="122" fill="white" transform="translate(85 -4)"/>
</clipPath>
</defs>
</svg>
