<svg width="86" height="61" viewBox="0 0 86 61" fill="none" xmlns="http://www.w3.org/2000/svg">
<path d="M33.8608 55.7941C33.3239 55.7941 32.8876 55.3578 32.8876 54.8194V5.42971C32.8876 4.89137 33.3239 4.45508 33.8608 4.45508C34.3991 4.45508 34.8339 4.89137 34.8339 5.42971V54.8194C34.8339 55.3578 34.3991 55.7941 33.8608 55.7941Z" fill="white"/>
<path d="M27.4081 21.8358C27.3756 21.8358 27.3416 21.8344 27.3076 21.8299L11.8273 20.2253C11.292 20.1705 10.9045 19.6914 10.9592 19.1545C11.0154 18.6191 11.4916 18.2301 12.0285 18.2863L27.5072 19.891C28.0426 19.9457 28.4316 20.4249 28.3754 20.9603C28.3236 21.4631 27.9006 21.8358 27.4081 21.8358Z" fill="white"/>
<path d="M27.4081 29.9924C27.3756 29.9924 27.3416 29.9909 27.3076 29.9865L11.8273 28.3818C11.292 28.3271 10.9045 27.8479 10.9592 27.3125C11.0154 26.7771 11.4916 26.3867 12.0285 26.4429L27.5072 28.0475C28.0426 28.1037 28.4316 28.5815 28.3754 29.1183C28.3236 29.6197 27.9006 29.9924 27.4081 29.9924Z" fill="white"/>
<path d="M27.4081 38.1491C27.3756 38.1491 27.3416 38.1476 27.3076 38.1447L11.8273 36.54C11.292 36.4838 10.9045 36.0046 10.9592 35.4692C11.0154 34.9339 11.4916 34.5464 12.0285 34.5996L27.5072 36.2043C28.0426 36.2605 28.4316 36.7397 28.3754 37.275C28.3236 37.7764 27.9006 38.1491 27.4081 38.1491Z" fill="white"/>
<path d="M27.4081 13.679C27.3756 13.679 27.3416 13.676 27.3076 13.6731L11.8273 12.0684C11.292 12.0122 10.9045 11.533 10.9592 10.9976C11.0154 10.4622 11.4916 10.0748 12.0285 10.128L27.5072 11.7341C28.0426 11.7889 28.4316 12.268 28.3754 12.8034C28.3236 13.3048 27.9006 13.679 27.4081 13.679Z" fill="white"/>
<path d="M27.4081 46.3054C27.3756 46.3054 27.3416 46.3039 27.3076 46.301L11.8273 44.6963C11.292 44.6401 10.9045 44.1609 10.9592 43.6256C11.0154 43.0902 11.4916 42.7027 12.0285 42.7559L27.5072 44.3606C28.0426 44.4168 28.4316 44.896 28.3754 45.4314C28.3236 45.9327 27.9006 46.3054 27.4081 46.3054Z" fill="white"/>
<path d="M40.3106 21.8359C39.8181 21.8359 39.3951 21.4632 39.3434 20.9618C39.2872 20.4264 39.6761 19.9473 40.2115 19.8911L49.1725 18.9638C49.7079 18.9076 50.1856 19.298 50.2418 19.8334C50.2965 20.3688 49.9075 20.8479 49.3722 20.9027L40.4112 21.8314C40.3771 21.8344 40.3431 21.8359 40.3106 21.8359Z" fill="white"/>
<path d="M40.3106 29.9938C39.8181 29.9938 39.3951 29.6196 39.3434 29.1183C39.2872 28.5829 39.6761 28.1037 40.2115 28.049L51.2785 26.9028C51.8109 26.8481 52.2916 27.237 52.3463 27.7724C52.4025 28.3078 52.0136 28.787 51.4782 28.8432L40.4112 29.9879C40.3771 29.9923 40.3431 29.9938 40.3106 29.9938Z" fill="white"/>
<path d="M40.3117 38.1491C39.8193 38.1491 39.3963 37.7764 39.3445 37.275C39.2883 36.7397 39.6773 36.2605 40.2127 36.2043L55.6914 34.5996C56.2283 34.5464 56.7045 34.9339 56.7607 35.4692C56.8154 36.0046 56.4265 36.4838 55.8925 36.54L40.4123 38.1447C40.3783 38.1476 40.3443 38.1491 40.3117 38.1491Z" fill="white"/>
<path d="M40.3115 13.6793C39.819 13.6793 39.396 13.3066 39.3443 12.8052C39.2895 12.2698 39.677 11.7906 40.2124 11.7344L56.3227 10.0632C56.861 10.0055 57.3358 10.396 57.392 10.9328C57.4467 11.4682 57.0577 11.9474 56.5238 12.0021L40.4135 13.6748C40.3795 13.6778 40.3455 13.6793 40.3115 13.6793Z" fill="white"/>
<path d="M40.3117 46.3054C39.8193 46.3054 39.3963 45.9327 39.3445 45.4314C39.2883 44.896 39.6773 44.4168 40.2127 44.3606L55.6914 42.7559C56.2283 42.7027 56.7045 43.0902 56.7607 43.6256C56.8154 44.1609 56.4265 44.6401 55.8925 44.6963L40.4123 46.301C40.3783 46.3039 40.3443 46.3054 40.3117 46.3054Z" fill="white"/>
<mask id="mask0_99_2256" style="mask-type:luminance" maskUnits="userSpaceOnUse" x="0" y="4" width="68" height="57">
<path d="M0 4.13239H67.7717V60.63H0V4.13239Z" fill="white"/>
</mask>
<g mask="url(#mask0_99_2256)">
<path d="M33.8618 60.6469C33.7376 60.6469 33.6133 60.6217 33.495 60.5744L31.806 59.8852C31.7277 59.8541 23.373 56.5428 13.4773 56.5428C11.0178 56.5428 8.653 56.7483 6.44935 57.1506L1.16061 58.1105C0.876649 58.1622 0.583816 58.0853 0.363452 57.899C0.141608 57.7141 0.0129395 57.4405 0.0129395 57.1506V5.43154C0.0129395 4.8932 0.449231 4.45691 0.986092 4.45691H5.47472C6.01306 4.45691 6.44935 4.8932 6.44935 5.43154C6.44935 5.96988 6.01306 6.40617 5.47472 6.40617H1.96072V55.9837L6.10032 55.2324C8.41784 54.8079 10.901 54.5935 13.4773 54.5935C23.7443 54.5935 32.4494 58.0424 32.5352 58.0764L33.8618 58.6177L35.1855 58.0794C35.7312 57.8605 44.1731 54.5935 54.2418 54.5935C56.8181 54.5935 59.2998 54.8079 61.6173 55.2324L65.7584 55.9837V29.9423C65.7584 29.4039 66.1932 28.9676 66.7316 28.9676C67.2699 28.9676 67.7047 29.4039 67.7047 29.9423V57.1506C67.7047 57.439 67.5775 57.7141 67.3557 57.899C67.1338 58.0838 66.841 58.1622 66.5585 58.1105L61.2698 57.1506C59.0647 56.7483 56.7013 56.5428 54.2418 56.5428C44.2958 56.5428 36.0107 59.8467 35.9294 59.8808L34.2286 60.5744C34.1117 60.6217 33.9875 60.6469 33.8618 60.6469Z" fill="white"/>
</g>
<path d="M66.7318 13.6531C66.1949 13.6531 65.7587 13.2153 65.7587 12.6769V6.40617H62.2432C61.7063 6.40617 61.27 5.96988 61.27 5.43154C61.27 4.8932 61.7063 4.45691 62.2432 4.45691H66.7318C67.2701 4.45691 67.7064 4.8932 67.7064 5.43154V12.6769C67.7064 13.2153 67.2701 13.6531 66.7318 13.6531Z" fill="white"/>
<path d="M33.8605 55.7941C33.7362 55.7941 33.612 55.7704 33.4937 55.7216C33.3576 55.6669 19.6433 50.1829 5.64938 52.7282C5.36542 52.78 5.07259 52.7031 4.85074 52.5167C4.63038 52.3319 4.50171 52.0583 4.50171 51.7684V1.61255C4.50171 1.14076 4.83891 0.737006 5.30182 0.652706C18.6834 -1.78166 31.3995 3.30004 33.8605 4.36489C36.3214 3.30004 49.036 -1.78166 62.4176 0.652706C62.8805 0.737006 63.2177 1.14076 63.2177 1.61255V10.6194C63.2177 11.1577 62.7814 11.594 62.2431 11.594C61.7062 11.594 61.2699 11.1577 61.2699 10.6194V2.43485C47.5837 0.266698 34.4018 6.25499 34.2687 6.31711C34.0098 6.43542 33.7111 6.43542 33.4523 6.31563C33.3177 6.25499 20.1357 0.266698 6.44801 2.43485V50.6163C19.4569 48.6197 31.574 52.8983 33.8605 53.7724C36.1484 52.8983 48.2625 48.6197 61.2699 50.6163V32.0007C61.2699 31.4623 61.7062 31.026 62.2431 31.026C62.7814 31.026 63.2177 31.4623 63.2177 32.0007V51.7684C63.2177 52.0583 63.0891 52.3319 62.8672 52.5167C62.6454 52.7031 62.354 52.78 62.0701 52.7282C48.0747 50.1829 34.3633 55.6669 34.2272 55.7216C34.1104 55.7704 33.9847 55.7941 33.8605 55.7941Z" fill="white"/>
<path d="M60.0767 29.7449C55.4313 29.7449 51.6525 25.9603 51.6525 21.3089C51.6525 16.6576 55.4313 12.873 60.0767 12.873C64.7221 12.873 68.5008 16.6576 68.5008 21.3089C68.5008 25.9603 64.7221 29.7449 60.0767 29.7449ZM60.0767 14.8237C56.505 14.8237 53.6003 17.7328 53.6003 21.3089C53.6003 24.8851 56.505 27.7956 60.0767 27.7956C63.6483 27.7956 66.5545 24.8851 66.5545 21.3089C66.5545 17.7328 63.6483 14.8237 60.0767 14.8237Z" fill="white"/>
<path d="M60.077 33.1898C53.5356 33.1898 48.2128 27.8611 48.2128 21.3093C48.2128 14.759 53.5356 9.42889 60.077 9.42889C66.6199 9.42889 71.9412 14.759 71.9412 21.3093C71.9412 27.8611 66.6199 33.1898 60.077 33.1898ZM60.077 11.3782C54.6093 11.3782 50.1606 15.8342 50.1606 21.3093C50.1606 26.7859 54.6093 31.2405 60.077 31.2405C65.5462 31.2405 69.9934 26.7859 69.9934 21.3093C69.9934 15.8342 65.5462 11.3782 60.077 11.3782Z" fill="white"/>
<path d="M70.6673 34.8535C70.4188 34.8535 70.1689 34.7589 69.9796 34.5681L66.047 30.6296C65.6669 30.2496 65.6669 29.6328 66.047 29.2513C66.4271 28.8712 67.0438 28.8712 67.4239 29.2513L71.355 33.1897C71.7366 33.5698 71.7366 34.1865 71.355 34.5681C71.1657 34.7589 70.9158 34.8535 70.6673 34.8535Z" fill="white"/>
<path d="M72.629 32.8907C72.379 32.8907 72.1291 32.7946 71.9398 32.6038L68.0072 28.6668C67.6271 28.2853 67.6271 27.6685 68.0072 27.287C68.3873 26.9069 69.0041 26.9069 69.3841 27.287L73.3167 31.2254C73.6968 31.607 73.6968 32.2237 73.3167 32.6038C73.1274 32.7946 72.8774 32.8907 72.629 32.8907Z" fill="white"/>
<path d="M81.7832 46.9605C80.7804 46.9605 79.7807 46.5789 79.0175 45.8158L68.8822 35.6657C68.7003 35.4823 68.5968 35.2354 68.5968 34.9765C68.5968 34.7177 68.7003 34.4693 68.8822 34.2873L73.0366 30.1285C73.4152 29.747 74.0334 29.747 74.4121 30.1285L84.5473 40.2771C86.0722 41.8049 86.0722 44.288 84.5473 45.8158C83.7857 46.5789 82.7844 46.9605 81.7832 46.9605ZM70.9483 34.9765L80.3944 44.4374C81.1605 45.2035 82.4058 45.2035 83.1704 44.4359C83.9365 43.6698 83.9365 42.4231 83.1704 41.657L73.7243 32.1961L70.9483 34.9765Z" fill="white"/>
<path d="M78.7695 45.1622C78.5211 45.1622 78.2711 45.0676 78.0818 44.8768C77.7003 44.4967 77.7003 43.8785 78.0818 43.4984L82.2347 39.3396C82.6148 38.958 83.2316 38.958 83.6116 39.3396C83.9917 39.7197 83.9917 40.3379 83.6116 40.718L79.4573 44.8768C79.268 45.0676 79.0195 45.1622 78.7695 45.1622Z" fill="white"/>
</svg>
