<svg width="38" height="35" viewBox="0 0 38 35" fill="none" xmlns="http://www.w3.org/2000/svg">
<path d="M22.1042 23.8439C23.2631 25.6803 23.8424 26.5986 23.4477 27.3496C23.0529 28.1009 21.9454 28.1873 19.7305 28.3602L19.1575 28.405C18.528 28.4541 18.2134 28.4787 17.9382 28.6232C17.6629 28.7679 17.4587 29.0161 17.0498 29.5127L16.6777 29.9648C15.239 31.7122 14.5197 32.5859 13.6992 32.4734C12.8787 32.3611 12.5003 31.3371 11.7437 29.2892L11.548 28.7593C11.333 28.1773 11.2255 27.8865 11.0143 27.6751C10.8031 27.464 10.5121 27.3565 9.93013 27.1414L9.40029 26.9458C7.35236 26.1891 6.32838 25.8109 6.21604 24.9902C6.10369 24.1698 6.97736 23.4506 8.72472 22.0118L9.17678 21.6397C9.67333 21.2308 9.9216 21.0264 10.0662 20.7513C10.2108 20.4761 10.2354 20.1615 10.2845 19.532L10.3293 18.959C10.5022 16.7441 10.5887 15.6365 11.3397 15.2418C12.0908 14.8471 13.0091 15.4264 14.8456 16.5853L15.3208 16.885C15.8427 17.2144 16.1037 17.3791 16.4042 17.4202C16.7047 17.4614 17.0109 17.3743 17.6232 17.2003L18.1806 17.0419C20.3355 16.4296 21.4129 16.1234 21.9895 16.7C22.5661 17.2766 22.2599 18.354 21.6476 20.5087" stroke="#07402B" stroke-width="3" stroke-linecap="round"/>
<path d="M36.1499 31.2472C35.306 33.0457 32.7594 33.4149 29.2946 32.5616M36.1499 31.2472C37.0683 29.2901 35.7872 26.031 32.9998 22.4135M36.1499 31.2472C35.0644 33.5608 31.1615 33.5091 26.111 31.5331M36.1499 31.2472C37.647 28.057 33.2998 21.4073 26.111 15.3848M2.29424 7.1972C1.37584 9.15441 2.65699 12.4136 5.44443 16.0311M2.29424 7.1972C3.13821 5.39863 5.6848 5.02971 9.14959 5.88293M2.29424 7.1972C1.07673 9.79188 3.7249 14.6747 8.62349 19.6476M2.29424 7.1972C3.8587 3.86321 11.2734 5.4412 19.5426 10.6113" stroke="#07402B" stroke-width="3" stroke-linecap="round"/>
<path d="M31.0974 2.68039C31.2672 4.27231 31.9347 5.76471 32.9999 6.93358M31.0974 2.68039C29.4944 4.00167 28.9787 4.24527 26.9593 4.63572M31.0974 2.68039L31.6287 2.00006M26.9593 4.63572C28.0245 5.80458 28.692 7.29698 28.8618 8.88891M26.9593 4.63572L26.1111 4.60718" stroke="#07402B" stroke-width="3" stroke-linecap="round"/>
</svg>
