<svg width="55" height="71" viewBox="0 0 55 71" fill="none" xmlns="http://www.w3.org/2000/svg">
<path d="M26.791 18.2604C26.8651 18.2763 26.9391 18.2836 27.0146 18.2836C27.1453 18.2821 27.2731 18.2604 27.3951 18.2168C27.5185 18.1732 27.6303 18.1093 27.732 18.0266C27.8336 17.9438 27.9179 17.8465 27.9846 17.7347C28.0529 17.6229 28.0994 17.5038 28.1255 17.3746C28.2635 16.6906 28.4145 15.9791 28.5684 15.2734H31.3782C31.5103 15.6582 31.6004 16.0517 31.6483 16.4554C31.6483 16.605 31.6773 16.7502 31.7354 16.8881C31.792 17.0261 31.8748 17.1495 31.9808 17.2555C32.0868 17.3615 32.2088 17.4428 32.3482 17.4995C32.4876 17.5575 32.6314 17.5866 32.7824 17.5866C32.9319 17.5866 33.0772 17.5575 33.2151 17.4995C33.3545 17.4428 33.4765 17.3615 33.5825 17.2555C33.6885 17.1495 33.7713 17.0261 33.8279 16.8881C33.886 16.7502 33.915 16.605 33.915 16.4554C33.915 15.3983 31.6207 8.12182 29.8012 7.52791C29.6676 7.4829 29.5311 7.46111 29.3917 7.45966C29.2509 7.45821 29.1144 7.47999 28.9808 7.5221C28.8472 7.56567 28.7238 7.62811 28.6105 7.71088C28.4972 7.79364 28.3999 7.89239 28.3186 8.0071C27.5839 9.0076 26.489 14.026 25.9038 16.9288C25.8733 17.0769 25.8733 17.2236 25.9023 17.3702C25.9314 17.5183 25.9866 17.6534 26.0708 17.7783C26.1536 17.9031 26.2581 18.0077 26.383 18.0919C26.5064 18.1747 26.6429 18.2313 26.791 18.2604ZM29.6429 10.8329C29.9464 11.4573 30.2761 12.2342 30.581 13.0125H29.0868C29.2828 12.1906 29.473 11.4413 29.6429 10.8329Z" fill="white"/>
<path d="M35.1248 12.1467H35.1568L36.1732 12.1191L36.2124 13.7615C36.2153 13.9096 36.2473 14.0504 36.3054 14.1869C36.3649 14.322 36.4477 14.441 36.5537 14.5441C36.6582 14.6472 36.7802 14.7271 36.9167 14.7823C37.0547 14.8375 37.197 14.8665 37.3451 14.8665H37.3712C37.5222 14.8622 37.666 14.8302 37.8025 14.7692C37.9404 14.7097 38.061 14.624 38.1641 14.5166C38.2686 14.4077 38.347 14.2828 38.4022 14.1434C38.4559 14.004 38.4806 13.8588 38.4777 13.7092L38.44 12.0567L39.847 12.019C39.9981 12.0146 40.1418 11.9826 40.2783 11.9217C40.4163 11.8592 40.5368 11.775 40.6399 11.6661C40.743 11.5572 40.8214 11.4323 40.8751 11.2929C40.9289 11.152 40.9535 11.0068 40.9492 10.8573C40.9434 10.7077 40.9085 10.5654 40.8475 10.4304C40.7851 10.2939 40.6994 10.1748 40.592 10.0717C40.4831 9.96859 40.3582 9.89018 40.2188 9.83645C40.0794 9.78127 39.9356 9.75513 39.7861 9.75804L38.3877 9.79579L38.3514 8.26964C38.3485 8.11862 38.3165 7.97486 38.2555 7.83836C38.1946 7.70042 38.1103 7.57989 38.0014 7.47679C37.8925 7.37369 37.7676 7.29383 37.6282 7.2401C37.4874 7.18637 37.3422 7.16023 37.1926 7.16459C37.0416 7.1675 36.8978 7.19944 36.7599 7.26043C36.6234 7.32142 36.5029 7.40564 36.3983 7.51455C36.2952 7.62345 36.2153 7.74688 36.1616 7.88774C36.1079 8.02714 36.0818 8.17235 36.0861 8.32191L36.121 9.85678L35.0958 9.88437C34.9462 9.88872 34.8039 9.92067 34.6674 9.98021C34.5324 10.0412 34.4118 10.124 34.3087 10.2314C34.2056 10.3389 34.1272 10.4609 34.072 10.6003C34.0169 10.7382 33.9907 10.882 33.9922 11.0301C33.9951 11.1782 34.0256 11.3219 34.0837 11.4584C34.1417 11.5949 34.2245 11.7155 34.3291 11.82C34.4351 11.9246 34.557 12.0044 34.695 12.0611C34.8329 12.1177 34.9767 12.1467 35.1248 12.1467Z" fill="white"/>
<path d="M7.2678 23.2439H7.27506L38.2033 23.0551C38.3543 23.0536 38.4981 23.0246 38.6375 22.9665C38.7754 22.9099 38.8974 22.8271 39.0034 22.7211C39.1094 22.6151 39.1907 22.4917 39.2488 22.3537C39.3054 22.2143 39.333 22.0706 39.333 21.921C39.333 21.77 39.304 21.6262 39.2459 21.4883C39.1878 21.3489 39.105 21.2269 38.999 21.1224C38.893 21.0163 38.7696 20.935 38.6302 20.8784C38.4922 20.8203 38.347 20.7927 38.1975 20.7927H38.1902L7.26054 20.9829C7.11098 20.9829 6.96722 21.0134 6.82782 21.0701C6.68987 21.1282 6.56789 21.2109 6.46189 21.3169C6.35589 21.4229 6.27457 21.5464 6.21794 21.6843C6.15985 21.8223 6.13226 21.9675 6.13226 22.117C6.13372 22.2666 6.16276 22.4104 6.21939 22.5498C6.27747 22.6877 6.36024 22.8097 6.46625 22.9157C6.57225 23.0217 6.69568 23.103 6.83508 23.1596C6.97303 23.2163 7.11824 23.2453 7.2678 23.2439Z" fill="white"/>
<path d="M7.26763 27.5737H7.29231L18.1293 27.3457C18.2789 27.3428 18.4212 27.3108 18.5591 27.2513C18.6956 27.1918 18.8162 27.109 18.9193 27.0015C19.0238 26.8941 19.1037 26.7721 19.1588 26.6342C19.214 26.4948 19.2402 26.351 19.2387 26.2029C19.2373 26.0533 19.2068 25.911 19.1487 25.7731C19.0906 25.6366 19.0093 25.516 18.9018 25.41C18.7958 25.3055 18.6738 25.2256 18.5359 25.169C18.3979 25.1124 18.2542 25.0833 18.1046 25.0833H18.0814L7.24294 25.3127C7.09483 25.3156 6.95107 25.3476 6.81457 25.4071C6.67807 25.4667 6.55755 25.5494 6.453 25.6569C6.3499 25.7629 6.27004 25.8863 6.21486 26.0243C6.15968 26.1622 6.13209 26.306 6.13354 26.4555C6.13499 26.6037 6.16548 26.7474 6.22357 26.8839C6.28165 27.0219 6.36442 27.1424 6.47042 27.2469C6.57643 27.3515 6.6984 27.4328 6.83635 27.4894C6.9743 27.5461 7.11806 27.5737 7.26763 27.5737Z" fill="white"/>
<path d="M7.26763 42.0048H7.27489L38.2031 41.8146C38.3541 41.8132 38.4979 41.7841 38.6373 41.7275C38.7752 41.6694 38.8972 41.5866 39.0032 41.4806C39.1092 41.3746 39.1905 41.2512 39.2486 41.1133C39.3053 40.9738 39.3328 40.8301 39.3328 40.6805C39.3328 40.5295 39.3038 40.3857 39.2457 40.2478C39.1876 40.1099 39.1049 39.9879 38.9989 39.8819C38.8929 39.7759 38.7694 39.6946 38.63 39.6379C38.4921 39.5798 38.3469 39.5522 38.1973 39.5522H38.19L7.26037 39.7425C7.11081 39.7439 6.96705 39.773 6.82765 39.831C6.6897 39.8877 6.56772 39.9705 6.46172 40.0765C6.35572 40.1825 6.2744 40.3059 6.21777 40.4438C6.16114 40.5832 6.13354 40.727 6.13354 40.8766C6.13354 41.0261 6.16259 41.1699 6.22067 41.3093C6.27875 41.4472 6.36007 41.5692 6.46608 41.6752C6.57353 41.7798 6.69551 41.8611 6.83491 41.9192C6.97286 41.9758 7.11807 42.0048 7.26763 42.0048Z" fill="white"/>
<path d="M35.1481 44.9991C35.1467 44.8496 35.1176 44.7072 35.0595 44.5693C35.0014 44.4313 34.9187 44.3108 34.8127 44.2048C34.7067 44.1003 34.5847 44.019 34.4467 43.9623C34.3073 43.9057 34.1636 43.8766 34.014 43.8766H34.0053L7.25913 44.0828C7.10811 44.0828 6.96435 44.1119 6.8264 44.17C6.687 44.2281 6.56503 44.3108 6.45902 44.4168C6.35302 44.5228 6.2717 44.6463 6.21507 44.7842C6.15844 44.9236 6.1294 45.0674 6.13085 45.2184C6.13085 45.368 6.15989 45.5117 6.21798 45.6497C6.27606 45.7891 6.35883 45.911 6.46483 46.0156C6.57229 46.1216 6.69426 46.2029 6.83367 46.2595C6.97307 46.3162 7.11828 46.3452 7.26784 46.3438H7.27655L34.0227 46.139C34.1737 46.1376 34.3175 46.1071 34.4569 46.049C34.5949 45.9909 34.7168 45.9081 34.8214 45.8007C34.9274 45.6947 35.0087 45.5712 35.0653 45.4318C35.1205 45.2939 35.1481 45.1487 35.1481 44.9991Z" fill="white"/>
<path d="M8.3321 32.5225C8.33791 32.7171 8.36259 32.9103 8.40616 33.099C8.44972 33.2892 8.51071 33.4737 8.59057 33.6508C8.66899 33.8294 8.76482 33.9979 8.87809 34.1561C8.9899 34.3159 9.11768 34.4625 9.25854 34.5976C9.39939 34.7312 9.55331 34.8503 9.7174 34.9548C9.88149 35.0594 10.0557 35.1465 10.2373 35.2176C10.4188 35.2888 10.6061 35.3411 10.7978 35.3745C10.9909 35.4093 11.184 35.4238 11.3786 35.4195C11.5746 35.4166 11.7678 35.3933 11.958 35.3527C12.1482 35.3106 12.3326 35.251 12.5127 35.1741C12.6913 35.0957 12.8612 35.0013 13.0209 34.8909C13.1821 34.7806 13.3302 34.6557 13.4667 34.5148C13.6018 34.3754 13.7237 34.2244 13.8297 34.0603C13.9357 33.8977 14.0258 33.7249 14.0969 33.5448C14.1695 33.3633 14.2247 33.1774 14.2596 32.9858C14.2959 32.7941 14.3133 32.601 14.3118 32.4064C14.3089 32.2118 14.2886 32.0187 14.2494 31.8284C14.2087 31.6382 14.1507 31.4523 14.0751 31.2737C13.9996 31.0937 13.9067 30.9238 13.7978 30.7626C13.6874 30.6014 13.564 30.4519 13.4246 30.3154C13.2867 30.1789 13.1356 30.0554 12.973 29.948C12.8104 29.8405 12.639 29.7505 12.459 29.6764C12.2774 29.6024 12.0916 29.5457 11.8999 29.508C11.7097 29.4702 11.5151 29.4514 11.3205 29.4514C11.1216 29.4543 10.9241 29.4775 10.7295 29.5196C10.5349 29.5603 10.3476 29.6213 10.1646 29.6997C9.98168 29.7795 9.80888 29.8754 9.64479 29.9872C9.48071 30.1004 9.32969 30.2282 9.19029 30.3705C9.05234 30.5128 8.92891 30.6682 8.82 30.8352C8.71255 31.0007 8.62107 31.1764 8.54701 31.3623C8.4744 31.5467 8.41922 31.7355 8.38292 31.9315C8.34662 32.1276 8.32919 32.3236 8.3321 32.5225ZM12.0437 32.5225C12.0335 32.6155 12.0059 32.7041 11.9609 32.7868C11.9159 32.8681 11.8563 32.9393 11.7852 33.0003C11.7126 33.0598 11.6313 33.1034 11.5412 33.1324C11.4512 33.16 11.3597 33.1716 11.2653 33.1644C11.1724 33.1571 11.0824 33.1324 10.9981 33.0903C10.9139 33.0497 10.8413 32.993 10.7774 32.9233C10.715 32.8536 10.6685 32.7738 10.6366 32.6852C10.6046 32.5966 10.5901 32.5066 10.5945 32.4122C10.5974 32.3178 10.6177 32.2292 10.6569 32.1435C10.6947 32.0564 10.7484 31.9824 10.8166 31.917C10.8834 31.8517 10.9618 31.8008 11.049 31.766C11.1361 31.7311 11.2261 31.7137 11.3205 31.7137C11.4222 31.7195 11.5195 31.7442 11.6109 31.7892C11.7024 31.8328 11.7823 31.8938 11.8491 31.9693C11.9173 32.0448 11.9681 32.1305 12.0015 32.2263C12.0349 32.3222 12.0495 32.4209 12.0437 32.5225Z" fill="white"/>
<path d="M15.4301 32.5225C15.4359 32.7171 15.4606 32.9102 15.5042 33.099C15.5463 33.2892 15.6087 33.4737 15.6871 33.6508C15.767 33.8294 15.8628 33.9979 15.9761 34.1576C16.0879 34.3159 16.2143 34.4625 16.3566 34.5976C16.4974 34.7312 16.6499 34.8517 16.8154 34.9563C16.9795 35.0608 17.1538 35.1479 17.3353 35.2191C17.5168 35.2888 17.7041 35.3411 17.8958 35.3759C18.0889 35.4093 18.282 35.4253 18.4766 35.4209C18.6727 35.418 18.8658 35.3948 19.056 35.3527C19.2462 35.312 19.4306 35.2525 19.6107 35.1755C19.7893 35.0971 19.9592 35.0027 20.1204 34.8924C20.2801 34.782 20.4282 34.6571 20.5647 34.5163C20.7012 34.3769 20.8218 34.2258 20.9278 34.0618C21.0338 33.8991 21.1238 33.7263 21.1964 33.5463C21.269 33.3648 21.3227 33.1789 21.359 32.9872C21.3953 32.7955 21.4128 32.6024 21.4099 32.4078C21.4084 32.2132 21.3881 32.0201 21.3474 31.8299C21.3082 31.6397 21.2501 31.4538 21.1746 31.2737C21.0991 31.0951 21.0062 30.9252 20.8958 30.7641C20.7869 30.6014 20.6635 30.4533 20.5241 30.3154C20.3861 30.1789 20.2351 30.0569 20.0725 29.948C19.9098 29.8405 19.7385 29.7505 19.557 29.6764C19.3769 29.6024 19.1911 29.5457 18.9994 29.508C18.8077 29.4702 18.6146 29.4514 18.42 29.4514C18.2211 29.4543 18.0236 29.4775 17.829 29.5196C17.6344 29.5603 17.4456 29.6213 17.2627 29.6997C17.0797 29.7781 16.9069 29.8739 16.7428 29.9872C16.5787 30.1004 16.4277 30.2282 16.2883 30.3705C16.1504 30.5128 16.0269 30.6682 15.918 30.8338C15.8106 31.0007 15.7191 31.1764 15.645 31.3609C15.5724 31.5453 15.5172 31.7355 15.4809 31.9315C15.4446 32.1261 15.4272 32.3236 15.4301 32.5225ZM19.1431 32.5225C19.133 32.6155 19.1054 32.7041 19.0604 32.7868C19.0153 32.8696 18.9558 32.9407 18.8832 33.0003C18.8106 33.0598 18.7293 33.1048 18.6393 33.1324C18.5507 33.1615 18.4577 33.1716 18.3648 33.1644C18.2704 33.1571 18.1818 33.1339 18.0962 33.0918C18.012 33.0497 17.9393 32.9945 17.8755 32.9233C17.813 32.8536 17.7665 32.7752 17.7346 32.6866C17.7027 32.598 17.6881 32.5066 17.6925 32.4122C17.6954 32.3192 17.7157 32.2292 17.7549 32.1435C17.7941 32.0564 17.8464 31.9809 17.9147 31.917C17.9829 31.8517 18.0599 31.8008 18.147 31.766C18.2341 31.7311 18.3256 31.7137 18.42 31.7137C18.5216 31.7195 18.6175 31.7442 18.709 31.7892C18.8004 31.8328 18.8803 31.8938 18.9486 31.9693C19.0168 32.0448 19.0676 32.1305 19.101 32.2263C19.1344 32.3222 19.1489 32.4209 19.1431 32.5225Z" fill="white"/>
<path d="M22.7049 32.5225C22.7107 32.7171 22.7339 32.9102 22.7775 33.099C22.8211 33.2892 22.8821 33.4737 22.9619 33.6508C23.0418 33.8294 23.1376 33.9979 23.2494 34.1576C23.3627 34.3159 23.489 34.4625 23.6313 34.5976C23.7722 34.7312 23.9247 34.8517 24.0902 34.9563C24.2543 35.0608 24.4271 35.1479 24.6101 35.2191C24.7916 35.2888 24.9789 35.3411 25.1706 35.3759C25.3622 35.4093 25.5568 35.4253 25.7514 35.4209C25.946 35.418 26.1391 35.3948 26.3308 35.3527C26.521 35.312 26.7054 35.2525 26.8855 35.1755C27.0641 35.0971 27.234 35.0027 27.3937 34.8924C27.5549 34.782 27.703 34.6571 27.8395 34.5163C27.9746 34.3769 28.0965 34.2258 28.2025 34.0618C28.3085 33.8991 28.3986 33.7263 28.4712 33.5463C28.5438 33.3648 28.5975 33.1789 28.6338 32.9872C28.6701 32.7955 28.6861 32.6024 28.6846 32.4078C28.6832 32.2132 28.6614 32.0201 28.6222 31.8299C28.583 31.6397 28.5249 31.4538 28.4494 31.2737C28.3724 31.0951 28.281 30.9252 28.1706 30.7641C28.0617 30.6014 27.9368 30.4533 27.7989 30.3154C27.6595 30.1789 27.5099 30.0569 27.3473 29.948C27.1846 29.8405 27.0118 29.7505 26.8318 29.6764C26.6517 29.6024 26.4658 29.5457 26.2742 29.508C26.0825 29.4702 25.8893 29.4514 25.6948 29.4514C25.4944 29.4543 25.2983 29.4775 25.1038 29.5196C24.9092 29.5603 24.7204 29.6213 24.5374 29.6997C24.3545 29.7781 24.1817 29.8739 24.0176 29.9872C23.8535 30.1004 23.7025 30.2282 23.5631 30.3705C23.4251 30.5128 23.3017 30.6682 23.1928 30.8338C23.0839 31.0007 22.9939 31.1764 22.9198 31.3609C22.8458 31.5467 22.7906 31.7355 22.7557 31.9315C22.7194 32.1261 22.702 32.3236 22.7049 32.5225ZM26.4179 32.5225C26.4063 32.6155 26.3787 32.7041 26.3337 32.7868C26.2887 32.8696 26.2306 32.9407 26.158 33.0003C26.0854 33.0598 26.0041 33.1048 25.914 33.1324C25.824 33.1615 25.7325 33.1716 25.6396 33.1644C25.5452 33.1571 25.4552 33.1339 25.371 33.0918C25.2867 33.0497 25.2127 32.9945 25.1502 32.9233C25.0878 32.8536 25.0413 32.7752 25.0094 32.6866C24.9774 32.598 24.9629 32.5066 24.9658 32.4122C24.9702 32.3192 24.9905 32.2292 25.0297 32.1435C25.0675 32.0564 25.1212 31.9809 25.1894 31.917C25.2562 31.8517 25.3346 31.8008 25.4218 31.766C25.5089 31.7311 25.6004 31.7137 25.6948 31.7137C25.7964 31.7195 25.8923 31.7442 25.9837 31.7892C26.0752 31.8328 26.1551 31.8938 26.2233 31.9693C26.2901 32.0448 26.341 32.1305 26.3758 32.2263C26.4092 32.3222 26.4237 32.4209 26.4179 32.5225Z" fill="white"/>
<path d="M29.803 32.5225C29.8088 32.7171 29.8335 32.9102 29.8771 33.099C29.9206 33.2892 29.9816 33.4737 30.0615 33.6508C30.1413 33.8294 30.2372 33.9979 30.349 34.1576C30.4623 34.3159 30.5886 34.4625 30.7294 34.5976C30.8718 34.7312 31.0242 34.8517 31.1883 34.9563C31.3538 35.0608 31.5266 35.1479 31.7082 35.2191C31.8911 35.2888 32.077 35.3411 32.2701 35.3759C32.4618 35.4093 32.6549 35.4253 32.851 35.4209C33.0455 35.418 33.2387 35.3948 33.4289 35.3527C33.6206 35.312 33.805 35.2525 33.9836 35.1755C34.1637 35.0971 34.3321 35.0027 34.4933 34.8924C34.6545 34.782 34.8026 34.6571 34.9376 34.5163C35.0741 34.3769 35.1961 34.2258 35.3021 34.0618C35.4081 33.8991 35.4967 33.7263 35.5693 33.5463C35.6419 33.3648 35.6971 33.1789 35.7319 32.9872C35.7682 32.7955 35.7856 32.6024 35.7842 32.4078C35.7813 32.2132 35.761 32.0201 35.7218 31.8299C35.6811 31.6397 35.6245 31.4538 35.5475 31.2737C35.472 31.0951 35.3791 30.9252 35.2702 30.7641C35.1598 30.6014 35.0364 30.4533 34.8984 30.3154C34.759 30.1789 34.608 30.0569 34.4454 29.948C34.2827 29.8405 34.1114 29.7505 33.9313 29.6764C33.7513 29.6024 33.5639 29.5457 33.3737 29.508C33.182 29.4702 32.9889 29.4514 32.7929 29.4514C32.5939 29.4543 32.3979 29.4775 32.2019 29.5196C32.0073 29.5603 31.8185 29.6213 31.637 29.6997C31.454 29.7781 31.2798 29.8739 31.1157 29.9872C30.9531 30.1004 30.8006 30.2282 30.6626 30.3705C30.5232 30.5128 30.3998 30.6682 30.2924 30.8338C30.1835 31.0007 30.092 31.1764 30.0194 31.3609C29.9453 31.5467 29.8901 31.7355 29.8538 31.9315C29.8175 32.1261 29.8016 32.3236 29.803 32.5225ZM33.5175 32.5225C33.5059 32.6155 33.4783 32.7041 33.4333 32.7868C33.3882 32.8696 33.3302 32.9407 33.2575 33.0003C33.1849 33.0598 33.1036 33.1048 33.0136 33.1324C32.9236 33.1615 32.8321 33.1716 32.7377 33.1644C32.6448 33.1571 32.5547 33.1339 32.4705 33.0918C32.3863 33.0497 32.3122 32.9945 32.2498 32.9233C32.1874 32.8536 32.1394 32.7752 32.1075 32.6866C32.0755 32.598 32.0625 32.5066 32.0654 32.4122C32.0683 32.3192 32.0901 32.2292 32.1278 32.1435C32.167 32.0564 32.2207 31.9809 32.2875 31.917C32.3558 31.8517 32.4342 31.8008 32.5213 31.766C32.6085 31.7311 32.6985 31.7137 32.7929 31.7137C32.8945 31.7195 32.9918 31.7442 33.0833 31.7892C33.1748 31.8328 33.2546 31.8938 33.3214 31.9693C33.3897 32.0448 33.4405 32.1305 33.4739 32.2263C33.5073 32.3222 33.5218 32.4209 33.5175 32.5225Z" fill="white"/>
<path d="M11.3203 48.1834C11.117 48.1776 10.9152 48.1922 10.7148 48.2255C10.5144 48.2604 10.3198 48.3141 10.1296 48.3867C9.93938 48.4593 9.75787 48.5494 9.58652 48.6583C9.41517 48.7672 9.25544 48.8906 9.10733 49.0315C8.96067 49.1709 8.82853 49.3233 8.71236 49.4903C8.59474 49.6559 8.496 49.8316 8.41323 50.0174C8.33191 50.2033 8.26947 50.3964 8.22591 50.5939C8.18234 50.7929 8.15766 50.9932 8.15475 51.1951C8.1504 51.3984 8.16637 51.6002 8.20267 51.7992C8.23897 51.9995 8.29415 52.1941 8.36821 52.3829C8.44372 52.5717 8.5352 52.7517 8.64556 52.9216C8.75592 53.0915 8.88225 53.2498 9.02456 53.395C9.16541 53.5417 9.32079 53.6709 9.48778 53.7871C9.65477 53.9018 9.83338 53.9991 10.0192 54.079C10.2066 54.1588 10.3997 54.2198 10.5986 54.2619C10.7976 54.3026 10.9994 54.3244 11.2027 54.3273C11.406 54.3287 11.6064 54.3113 11.8068 54.2735C12.0072 54.2358 12.2003 54.1777 12.3891 54.1022C12.5778 54.0252 12.7564 53.9308 12.9263 53.819C13.0962 53.7072 13.2531 53.5809 13.3983 53.4371C13.542 53.2948 13.6713 53.1394 13.7845 52.971C13.8992 52.8026 13.9951 52.624 14.0735 52.4366C14.1505 52.2493 14.21 52.0562 14.2507 51.8572C14.2899 51.6583 14.3102 51.4579 14.3102 51.2546C14.3131 51.0557 14.2957 50.8597 14.2594 50.6636C14.2231 50.4676 14.1679 50.2788 14.0953 50.0929C14.0212 49.9085 13.9297 49.7328 13.8223 49.5658C13.7134 49.4003 13.59 49.2449 13.4506 49.1026C13.3126 48.9603 13.1616 48.8325 12.9975 48.7193C12.8334 48.606 12.6606 48.5102 12.4776 48.4317C12.2947 48.3533 12.1059 48.2923 11.9113 48.2517C11.7167 48.2096 11.5193 48.1863 11.3203 48.1834ZM11.3203 52.0649C11.21 52.0765 11.1025 52.0678 10.9951 52.0359C10.8891 52.0039 10.7932 51.9531 10.7075 51.8834C10.6219 51.8122 10.5536 51.728 10.5028 51.6293C10.452 51.532 10.4229 51.4274 10.4142 51.3171C10.4055 51.2067 10.4186 51.0978 10.4549 50.9932C10.4897 50.8887 10.5449 50.7943 10.619 50.713C10.693 50.6302 10.7801 50.5649 10.8803 50.5184C10.9805 50.4705 11.0865 50.4444 11.1969 50.44C11.3073 50.4371 11.4147 50.4545 11.5193 50.4937C11.6224 50.5329 11.7138 50.591 11.7937 50.668C11.8736 50.7449 11.936 50.8335 11.9796 50.9352C12.0217 51.0383 12.0435 51.1443 12.0435 51.2546C12.0493 51.3563 12.0348 51.455 12.0014 51.5509C11.968 51.6467 11.9171 51.7324 11.8489 51.8079C11.7821 51.8834 11.7022 51.9444 11.6107 51.9879C11.5193 52.0329 11.422 52.0576 11.3203 52.0649Z" fill="white"/>
<path d="M18.4199 48.1834C18.2166 48.1776 18.0148 48.1922 17.8144 48.2255C17.614 48.2604 17.418 48.3141 17.2278 48.3867C17.039 48.4593 16.8575 48.5494 16.6861 48.6583C16.5133 48.7672 16.355 48.8906 16.2069 49.0315C16.0603 49.1709 15.9281 49.3233 15.8105 49.4903C15.6943 49.6559 15.5956 49.8316 15.5128 50.0174C15.4315 50.2033 15.3691 50.3964 15.3241 50.5939C15.2805 50.7929 15.2573 50.9932 15.2529 51.1951C15.25 51.3984 15.266 51.6002 15.3008 51.7992C15.3371 51.9995 15.3923 52.1941 15.4678 52.3829C15.5419 52.5717 15.6348 52.7517 15.7452 52.9216C15.8555 53.0915 15.9819 53.2498 16.1227 53.395C16.265 53.5417 16.4189 53.6709 16.5874 53.7871C16.7544 53.9018 16.9315 53.9991 17.1188 54.079C17.3062 54.1588 17.4993 54.2198 17.6982 54.2619C17.8972 54.3026 18.0976 54.3244 18.3009 54.3273C18.5041 54.3287 18.706 54.3113 18.9064 54.2735C19.1053 54.2358 19.2999 54.1777 19.4887 54.1022C19.6774 54.0252 19.856 53.9308 20.0259 53.819C20.1958 53.7072 20.3527 53.5809 20.4964 53.4371C20.6416 53.2948 20.7709 53.1394 20.8841 52.971C20.9974 52.8026 21.0932 52.624 21.1716 52.4366C21.2501 52.2493 21.3096 52.0562 21.3488 51.8572C21.3895 51.6583 21.4098 51.4579 21.4098 51.2546C21.4112 51.0557 21.3953 50.8597 21.359 50.6636C21.3227 50.4676 21.2675 50.2788 21.1934 50.0929C21.1208 49.9085 21.0293 49.7328 20.9204 49.5658C20.813 49.4003 20.6895 49.2449 20.5501 49.1026C20.4122 48.9603 20.2597 48.8325 20.0971 48.7193C19.933 48.606 19.7588 48.5102 19.5758 48.4317C19.3943 48.3533 19.2055 48.2923 19.0095 48.2517C18.8149 48.2096 18.6189 48.1863 18.4199 48.1834ZM18.4199 52.0649C18.3096 52.0765 18.2007 52.0678 18.0947 52.0359C17.9886 52.0039 17.8928 51.9531 17.8071 51.8834C17.7215 51.8122 17.6532 51.728 17.6024 51.6293C17.5516 51.532 17.5211 51.4274 17.5124 51.3171C17.5051 51.2067 17.5182 51.0978 17.553 50.9932C17.5893 50.8887 17.6445 50.7943 17.7171 50.713C17.7912 50.6302 17.8783 50.5649 17.9785 50.5184C18.0801 50.4705 18.1847 50.4444 18.2965 50.44C18.4069 50.4371 18.5143 50.4545 18.6174 50.4937C18.722 50.5329 18.8134 50.591 18.8933 50.668C18.9732 50.7449 19.0342 50.8335 19.0777 50.9352C19.1213 51.0383 19.1431 51.1443 19.1431 51.2546C19.1489 51.3563 19.1344 51.455 19.101 51.5509C19.0676 51.6467 19.0167 51.7324 18.9485 51.8079C18.8802 51.8834 18.8004 51.9444 18.7089 51.9879C18.6174 52.0329 18.5216 52.0576 18.4199 52.0649Z" fill="white"/>
<path d="M25.6946 48.1834C25.4913 48.1776 25.2895 48.1922 25.0877 48.2255C24.8873 48.2604 24.6927 48.3141 24.5025 48.3867C24.3122 48.4593 24.1322 48.5494 23.9608 48.6583C23.788 48.7672 23.6283 48.8906 23.4816 49.0315C23.335 49.1709 23.2028 49.3233 23.0852 49.4903C22.9691 49.6559 22.8689 49.8316 22.7875 50.0174C22.7062 50.2033 22.6423 50.3964 22.5988 50.5939C22.5552 50.7929 22.532 50.9932 22.5276 51.1951C22.5233 51.3984 22.5392 51.6002 22.5755 51.7992C22.6118 51.9995 22.667 52.1941 22.7425 52.3829C22.8166 52.5717 22.9095 52.7517 23.0199 52.9216C23.1302 53.0915 23.2551 53.2498 23.3974 53.395C23.5397 53.5417 23.6937 53.6709 23.8621 53.7871C24.0291 53.9018 24.2062 53.9991 24.3936 54.079C24.5809 54.1588 24.7726 54.2198 24.9715 54.2619C25.1719 54.3026 25.3723 54.3244 25.5756 54.3273C25.7789 54.3287 25.9807 54.3113 26.1811 54.2735C26.38 54.2358 26.5746 54.1777 26.7634 54.1022C26.9507 54.0252 27.1308 53.9308 27.3007 53.819C27.4706 53.7072 27.6274 53.5809 27.7711 53.4371C27.9163 53.2948 28.0456 53.1394 28.1589 52.971C28.2721 52.8026 28.368 52.624 28.4464 52.4366C28.5248 52.2493 28.5843 52.0562 28.6235 51.8572C28.6642 51.6583 28.6831 51.4579 28.6831 51.2546C28.686 51.0557 28.67 50.8597 28.6337 50.6636C28.5974 50.4676 28.5422 50.2788 28.4681 50.0929C28.3941 49.9085 28.3041 49.7328 28.1952 49.5658C28.0877 49.4003 27.9628 49.2449 27.8249 49.1026C27.6855 48.9603 27.5344 48.8325 27.3704 48.7193C27.2063 48.606 27.0335 48.5102 26.8505 48.4317C26.6675 48.3533 26.4788 48.2923 26.2842 48.2517C26.0896 48.2096 25.8936 48.1863 25.6946 48.1834ZM25.6946 52.0649C25.5843 52.0765 25.4754 52.0678 25.3694 52.0359C25.2634 52.0039 25.1675 51.9531 25.0819 51.8834C24.9962 51.8122 24.9279 51.728 24.8771 51.6293C24.8248 51.532 24.7958 51.4274 24.7871 51.3171C24.7784 51.2067 24.7929 51.0978 24.8277 50.9932C24.864 50.8887 24.9178 50.7943 24.9918 50.713C25.0659 50.6302 25.153 50.5649 25.2532 50.5184C25.3534 50.4705 25.4594 50.4444 25.5698 50.44C25.6816 50.4371 25.789 50.4545 25.8921 50.4937C25.9952 50.5329 26.0882 50.591 26.168 50.668C26.2479 50.7449 26.3089 50.8335 26.3524 50.9352C26.396 51.0383 26.4178 51.1443 26.4178 51.2546C26.4236 51.3563 26.4091 51.455 26.3757 51.5509C26.3408 51.6467 26.29 51.7324 26.2232 51.8079C26.155 51.8834 26.0751 51.9444 25.9836 51.9879C25.8921 52.0329 25.7963 52.0576 25.6946 52.0649Z" fill="white"/>
<path d="M32.7929 48.1834C32.5896 48.1776 32.3878 48.1922 32.1874 48.2255C31.987 48.2604 31.7924 48.3141 31.6022 48.3867C31.412 48.4593 31.2319 48.5494 31.0591 48.6583C30.8878 48.7672 30.728 48.8906 30.5814 49.0315C30.4333 49.1709 30.3011 49.3233 30.185 49.4903C30.0673 49.6559 29.9686 49.8316 29.8873 50.0174C29.8045 50.2033 29.7421 50.3964 29.6985 50.5939C29.6549 50.7929 29.6303 50.9932 29.6273 51.1951C29.623 51.3984 29.639 51.6002 29.6753 51.7992C29.7116 51.9995 29.7667 52.1941 29.8408 52.3829C29.9163 52.5717 30.0078 52.7517 30.1182 52.9216C30.2285 53.0915 30.3548 53.2498 30.4972 53.395C30.638 53.5417 30.7934 53.6709 30.9604 53.7871C31.1288 53.9018 31.306 53.9991 31.4918 54.079C31.6792 54.1588 31.8723 54.2198 32.0712 54.2619C32.2702 54.3026 32.472 54.3244 32.6753 54.3273C32.8786 54.3287 33.0804 54.3113 33.2794 54.2735C33.4798 54.2358 33.6729 54.1777 33.8617 54.1022C34.0504 54.0252 34.229 53.9308 34.3989 53.819C34.5688 53.7072 34.7257 53.5809 34.8709 53.4371C35.0146 53.2948 35.1439 53.1394 35.2571 52.971C35.3718 52.8026 35.4677 52.624 35.5461 52.4366C35.6245 52.2493 35.6826 52.0562 35.7233 51.8572C35.7625 51.6583 35.7828 51.4579 35.7828 51.2546C35.7857 51.0557 35.7683 50.8597 35.732 50.6636C35.6957 50.4676 35.6405 50.2788 35.5679 50.0929C35.4938 49.9085 35.4023 49.7328 35.2949 49.5658C35.186 49.4003 35.0625 49.2449 34.9246 49.1026C34.7852 48.9603 34.6342 48.8325 34.4701 48.7193C34.306 48.606 34.1332 48.5102 33.9502 48.4317C33.7673 48.3533 33.5785 48.2923 33.3839 48.2517C33.1893 48.2096 32.9919 48.1863 32.7929 48.1834ZM32.7929 52.0649C32.6826 52.0765 32.5751 52.0678 32.4676 52.0359C32.3616 52.0039 32.2658 51.9531 32.1801 51.8834C32.0945 51.8122 32.0262 51.728 31.9754 51.6293C31.9246 51.532 31.8955 51.4274 31.8868 51.3171C31.8781 51.2067 31.8912 51.0978 31.9275 50.9932C31.9623 50.8887 32.0175 50.7943 32.0916 50.713C32.1656 50.6302 32.2527 50.5649 32.3529 50.5184C32.4531 50.4705 32.5591 50.4444 32.6695 50.44C32.7799 50.4371 32.8873 50.4545 32.9919 50.4937C33.095 50.5329 33.1864 50.591 33.2663 50.668C33.3462 50.7449 33.4086 50.8335 33.4522 50.9352C33.4957 51.0383 33.5175 51.1443 33.5175 51.2546C33.5219 51.3563 33.5074 51.455 33.474 51.5509C33.4406 51.6467 33.3897 51.7324 33.3215 51.8079C33.2547 51.8834 33.1748 51.9444 33.0833 51.9879C32.9919 52.0329 32.8946 52.0576 32.7929 52.0649Z" fill="white"/>
<mask id="mask0_99_2040" style="mask-type:luminance" maskUnits="userSpaceOnUse" x="0" y="0" width="55" height="71">
<path d="M0 0H54.837V70.63H0V0Z" fill="white"/>
</mask>
<g mask="url(#mask0_99_2040)">
<path d="M54.664 39.5217C54.4912 12.2281 54.2037 11.7968 54.0135 11.5122C53.6911 11.0301 53.3789 10.5712 45.7859 10.3694C45.7844 5.03873 45.6683 2.97239 45.4374 2.47287C45.0715 1.68148 44.829 1.16018 32.0084 0.82329C25.6046 0.654847 17.5136 0.609832 11.2129 0.702766C11.0256 0.544488 10.8136 0.437032 10.574 0.381853C10.3358 0.325221 10.0977 0.326673 9.85955 0.384757C8.09525 0.81603 3.55019 6.31222 0.814439 9.7929C0.667777 9.91632 0.55887 10.0659 0.489169 10.243C0.35122 10.4536 0.291684 10.683 0.307657 10.9342C0.316369 11.107 0.349768 11.274 0.407852 11.4367C0.403495 14.5267 0.383166 18.3399 0.359932 22.4784C0.306205 32.5182 0.237956 45.015 0.380262 52.8156C0.400591 53.9294 0.32363 55.1012 0.249573 56.2339C0.0796776 58.8462 -0.0553677 60.9096 0.956744 62.0103C1.15568 62.2281 1.39092 62.3966 1.66246 62.5156C1.93255 62.6347 2.21571 62.6957 2.51049 62.6957C2.97952 62.7059 4.86579 62.7306 7.57105 62.7552C7.49118 69.2955 7.75256 69.506 8.20852 69.872C8.61075 70.1929 8.74725 70.3003 29.1274 70.4122C33.3966 70.4354 37.9315 70.4499 41.7752 70.4499C46.5816 70.4499 50.3019 70.4267 51.0555 70.3686C51.5957 70.3773 52.1141 70.2757 52.6107 70.0651C53.1088 69.856 53.543 69.554 53.9133 69.1619C54.179 68.8294 54.3315 68.4504 54.3707 68.0264C54.5246 67.3642 54.8208 64.036 54.664 39.5217ZM9.88714 2.92883C10.1892 5.33786 10.2502 7.7527 10.0716 10.1733C7.58702 10.2852 4.93985 10.3113 3.38029 10.2053C5.37257 7.62346 7.542 5.19701 9.88714 2.92883ZM2.51049 56.3805C2.5889 55.2014 2.66877 53.9817 2.64553 52.775C2.50468 45.0005 2.57148 32.5197 2.62666 22.49C2.64699 18.7698 2.66441 15.3138 2.67167 12.4052C3.74477 12.5185 4.82077 12.5693 5.89968 12.5562C7.28934 12.5562 9.0275 12.5025 11.2056 12.382C11.3436 12.3733 11.4757 12.3413 11.6021 12.2861C11.7284 12.231 11.8402 12.154 11.939 12.0567C12.0362 11.9609 12.1147 11.8491 12.1727 11.7242C12.2294 11.5993 12.2642 11.4672 12.2729 11.3307C12.5343 8.53247 12.4951 5.74009 12.1553 2.95061C24.3007 2.79669 40.2999 3.14229 43.3972 3.75798C43.6891 7.10506 43.4015 24.7016 43.207 36.5783C43.0487 46.287 42.9238 53.9541 43.024 55.5238C43.1765 57.1211 43.0095 58.6821 42.5201 60.2112C37.4959 60.7673 7.01489 60.5321 2.62666 60.4827C2.27089 60.0616 2.41465 57.8457 2.51049 56.3805ZM52.2448 66.8879L51.9558 66.9605L52.0909 67.7998C51.7162 68.0162 51.3126 68.1207 50.8813 68.1135C48.4592 68.2993 15.5503 68.1309 9.89585 67.9262C9.83777 66.8603 9.8218 64.8056 9.84067 62.7756C13.5363 62.8046 18.2004 62.8308 22.8863 62.8308C32.3801 62.8308 41.9364 62.7248 43.5758 62.3269L44.0419 62.2151L44.2859 61.8041C44.4151 61.5834 45.5536 59.5287 45.2849 55.3786C45.1905 53.9004 45.3212 45.8906 45.4722 36.6146C45.6552 25.493 45.7568 17.8419 45.7815 12.6347C48.3053 12.7116 50.8711 12.8525 52.011 13.0093C52.2927 18.9411 52.6804 61.0331 52.2448 66.8879Z" fill="white"/>
</g>
</svg>
