<svg width="42" height="42" viewBox="0 0 42 42" fill="none" xmlns="http://www.w3.org/2000/svg">
<path fill-rule="evenodd" clip-rule="evenodd" d="M15.9559 36.0423C16.3574 36.7948 16.7594 37.4729 17.1437 38.0737C13.0607 37.1555 9.51781 34.8103 7.06622 31.5894C8.68422 30.6782 10.7565 29.7337 13.2479 29.0425C13.9559 31.8197 14.9549 34.1654 15.9559 36.0423ZM19.0442 34.3952C18.1746 32.7649 17.3031 30.7288 16.6752 28.3164C18.0269 28.1157 19.4698 28 21.0002 28C22.5304 28 23.9734 28.1157 25.3248 28.3162C24.6969 30.7288 23.8254 32.7649 22.9558 34.3952C22.2586 35.7026 21.564 36.7463 21 37.51C20.436 36.7463 19.7414 35.7026 19.0442 34.3952ZM15.75 21C15.75 22.3629 15.8417 23.6565 16.0034 24.8778C17.5628 24.6386 19.2299 24.5 21.0002 24.5C22.7703 24.5 24.4375 24.6384 25.9966 24.8778C26.1583 23.6563 26.25 22.3629 26.25 21C26.25 19.6371 26.1583 18.3437 25.9966 17.1222C24.4375 17.3614 22.7703 17.5 21.0002 17.5C19.2299 17.5 17.5628 17.3614 16.0034 17.1222C15.8417 18.3435 15.75 19.6371 15.75 21ZM12.5694 16.4005C12.3661 17.8449 12.25 19.3793 12.25 21C12.25 22.6207 12.3661 24.1551 12.5694 25.5995C9.59789 26.3972 7.13725 27.5221 5.23423 28.6046C4.12295 26.3051 3.5 23.7253 3.5 21C3.5 18.2747 4.12295 15.695 5.2342 13.3954C7.13701 14.4777 9.5977 15.6027 12.5694 16.4005ZM16.6752 13.6837C18.0269 13.8843 19.4698 14 21.0002 14C22.5304 14 23.9734 13.8843 25.3248 13.6838C24.6969 11.2713 23.8254 9.23517 22.9558 7.6048C22.2586 6.29753 21.564 5.25364 21 4.49008C20.436 5.25364 19.7414 6.29753 19.0442 7.60475C18.1746 9.23512 17.3031 11.2712 16.6752 13.6837ZM29.4306 16.4008C29.6338 17.8451 29.75 19.3795 29.75 21C29.75 22.6207 29.6338 24.1549 29.4306 25.5992C32.4021 26.3972 34.8628 27.5221 36.7659 28.6046C37.877 26.3048 38.5 23.7251 38.5 21C38.5 18.2749 37.877 15.6951 36.7659 13.3955C34.863 14.4778 32.4023 15.6028 29.4306 16.4008ZM34.9337 10.4108C33.3156 11.3221 31.2433 12.2664 28.7523 12.9577C28.0441 10.1804 27.0452 7.83461 26.0442 5.95775C25.6426 5.20513 25.2406 4.52725 24.8563 3.9263C28.9394 4.84454 32.4823 7.18984 34.9337 10.4108ZM13.2479 12.9576C10.7567 12.2664 8.68443 11.322 7.06624 10.4107C9.51781 7.18979 13.0607 4.84454 17.1435 3.9263C16.7594 4.52725 16.3574 5.20511 15.9559 5.9577C14.9549 7.83456 13.9559 10.1804 13.2479 12.9576ZM28.7523 29.0423C28.0441 31.8197 27.0452 34.1654 26.0442 36.0423C25.6426 36.7948 25.2406 37.4729 24.8563 38.0737C28.9394 37.1555 32.4823 34.8101 34.934 31.5891C33.3158 30.678 31.2436 29.7337 28.7523 29.0423ZM21 42C32.5981 42 42 32.5981 42 21C42 9.40203 32.5981 0 21 0C9.40203 0 0 9.40203 0 21C0 32.5981 9.40203 42 21 42Z" fill="#16573F"/>
</svg>
